<mxfile host="app.diagrams.net" modified="2022-02-10T09:25:04.007Z" agent="5.0 (Macintosh; Intel Mac OS X 10_15_7) AppleWebKit/605.1.15 (KHTML, like Gecko) Version/15.3 Safari/605.1.15" etag="AR_Gcw4lz4kS4ORu7oYz" version="16.5.2" type="github" pages="6">
  <diagram id="b7l3399LrovQUoI8YyHk" name="Europa">
    <mxGraphModel dx="946" dy="620" grid="0" gridSize="10" guides="1" tooltips="1" connect="1" arrows="1" fold="1" page="1" pageScale="1" pageWidth="1169" pageHeight="827" math="0" shadow="0">
      <root>
        <mxCell id="0" />
        <mxCell id="1" parent="0" />
        <mxCell id="Z9ixUB7JmdVqJL2UCnjJ-1" style="graphMlID=n0;shape=rect;rounded=1;arcsize=30;strokeWidth=1.0;fontFamily=Helvetica;verticalAlign=top;spacing=0;" parent="1" vertex="1">
          <mxGeometry x="115" y="482" width="72" height="30" as="geometry" />
        </mxCell>
        <mxCell id="Z9ixUB7JmdVqJL2UCnjJ-2" value="Lissabon" style="text;html=1;spacing=0;align=center;fontFamily=Helvetica;fontSize=12;fontStyle=0;verticalAlign=top;" parent="Z9ixUB7JmdVqJL2UCnjJ-1" vertex="1">
          <mxGeometry x="9.982421875" y="5.6494140625" width="52.03515625" height="18.701171875" as="geometry" />
        </mxCell>
        <mxCell id="Z9ixUB7JmdVqJL2UCnjJ-3" style="graphMlID=n1;shape=rect;rounded=1;arcsize=30;strokeWidth=1.0;fontFamily=Helvetica;verticalAlign=top;spacing=0;" parent="1" vertex="1">
          <mxGeometry x="183" y="391" width="72" height="30" as="geometry" />
        </mxCell>
        <mxCell id="Z9ixUB7JmdVqJL2UCnjJ-4" value="Madrid" style="text;html=1;spacing=0;align=center;fontFamily=Helvetica;fontSize=12;fontStyle=0;verticalAlign=top;" parent="Z9ixUB7JmdVqJL2UCnjJ-3" vertex="1">
          <mxGeometry x="15.66015625" y="5.6494140625" width="40.6796875" height="18.701171875" as="geometry" />
        </mxCell>
        <mxCell id="Z9ixUB7JmdVqJL2UCnjJ-5" style="graphMlID=n2;shape=rect;rounded=1;arcsize=30;strokeWidth=1.0;fontFamily=Helvetica;verticalAlign=top;spacing=0;" parent="1" vertex="1">
          <mxGeometry x="222" y="312" width="72" height="30" as="geometry" />
        </mxCell>
        <mxCell id="Z9ixUB7JmdVqJL2UCnjJ-6" value="Paris" style="text;html=1;spacing=0;align=center;fontFamily=Helvetica;fontSize=12;fontStyle=0;verticalAlign=top;" parent="Z9ixUB7JmdVqJL2UCnjJ-5" vertex="1">
          <mxGeometry x="20.330078125" y="5.6494140625" width="31.33984375" height="18.701171875" as="geometry" />
        </mxCell>
        <mxCell id="Z9ixUB7JmdVqJL2UCnjJ-7" style="graphMlID=n3;shape=rect;rounded=1;arcsize=30;strokeWidth=1.0;fontFamily=Helvetica;verticalAlign=top;spacing=0;" parent="1" vertex="1">
          <mxGeometry x="191" y="101" width="72" height="30" as="geometry" />
        </mxCell>
        <mxCell id="Z9ixUB7JmdVqJL2UCnjJ-8" value="London" style="text;html=1;spacing=0;align=center;fontFamily=Helvetica;fontSize=12;fontStyle=0;verticalAlign=top;" parent="Z9ixUB7JmdVqJL2UCnjJ-7" vertex="1">
          <mxGeometry x="13.978515625" y="5.6494140625" width="44.04296875" height="18.701171875" as="geometry" />
        </mxCell>
        <mxCell id="Z9ixUB7JmdVqJL2UCnjJ-9" style="graphMlID=n4;shape=rect;rounded=1;arcsize=30;strokeWidth=1.0;fontFamily=Helvetica;verticalAlign=top;spacing=0;" parent="1" vertex="1">
          <mxGeometry x="329" y="243" width="72" height="30" as="geometry" />
        </mxCell>
        <mxCell id="Z9ixUB7JmdVqJL2UCnjJ-10" value="BrÃ¼ssel" style="text;html=1;spacing=0;align=center;fontFamily=Helvetica;fontSize=12;fontStyle=0;verticalAlign=top;" parent="Z9ixUB7JmdVqJL2UCnjJ-9" vertex="1">
          <mxGeometry x="13.9931640625" y="5.6494140625" width="44.013671875" height="18.701171875" as="geometry" />
        </mxCell>
        <mxCell id="Z9ixUB7JmdVqJL2UCnjJ-11" style="graphMlID=n5;shape=rect;rounded=1;arcsize=30;strokeWidth=1.0;fontFamily=Helvetica;verticalAlign=top;spacing=0;" parent="1" vertex="1">
          <mxGeometry x="345" y="184" width="72" height="30" as="geometry" />
        </mxCell>
        <mxCell id="Z9ixUB7JmdVqJL2UCnjJ-12" value="Amsterdam" style="text;html=1;spacing=0;align=center;fontFamily=Helvetica;fontSize=12;fontStyle=0;verticalAlign=top;" parent="Z9ixUB7JmdVqJL2UCnjJ-11" vertex="1">
          <mxGeometry x="3.326171875" y="5.6494140625" width="65.34765625" height="18.701171875" as="geometry" />
        </mxCell>
        <mxCell id="Z9ixUB7JmdVqJL2UCnjJ-13" style="graphMlID=n6;shape=rect;rounded=1;arcsize=30;strokeWidth=1.0;fontFamily=Helvetica;verticalAlign=top;spacing=0;" parent="1" vertex="1">
          <mxGeometry x="514" y="241" width="72" height="30" as="geometry" />
        </mxCell>
        <mxCell id="Z9ixUB7JmdVqJL2UCnjJ-14" value="Berlin" style="text;html=1;spacing=0;align=center;fontFamily=Helvetica;fontSize=12;fontStyle=0;verticalAlign=top;" parent="Z9ixUB7JmdVqJL2UCnjJ-13" vertex="1">
          <mxGeometry x="18.66015625" y="5.6494140625" width="34.6796875" height="18.701171875" as="geometry" />
        </mxCell>
        <mxCell id="Z9ixUB7JmdVqJL2UCnjJ-15" style="graphMlID=n7;shape=rect;rounded=1;arcsize=30;strokeWidth=1.0;fontFamily=Helvetica;verticalAlign=top;spacing=0;" parent="1" vertex="1">
          <mxGeometry x="517" y="110" width="72" height="30" as="geometry" />
        </mxCell>
        <mxCell id="Z9ixUB7JmdVqJL2UCnjJ-16" value="Kopenhagen" style="text;html=1;spacing=0;align=center;fontFamily=Helvetica;fontSize=12;fontStyle=0;verticalAlign=top;" parent="Z9ixUB7JmdVqJL2UCnjJ-15" vertex="1">
          <mxGeometry x="-0.0341796875" y="5.6494140625" width="72.068359375" height="18.701171875" as="geometry" />
        </mxCell>
        <mxCell id="Z9ixUB7JmdVqJL2UCnjJ-17" style="graphMlID=n8;shape=rect;rounded=1;arcsize=30;strokeWidth=1.0;fontFamily=Helvetica;verticalAlign=top;spacing=0;" parent="1" vertex="1">
          <mxGeometry x="658" y="242" width="72" height="30" as="geometry" />
        </mxCell>
        <mxCell id="Z9ixUB7JmdVqJL2UCnjJ-18" value="Warschau" style="text;html=1;spacing=0;align=center;fontFamily=Helvetica;fontSize=12;fontStyle=0;verticalAlign=top;" parent="Z9ixUB7JmdVqJL2UCnjJ-17" vertex="1">
          <mxGeometry x="6.9912109375" y="5.6494140625" width="58.017578125" height="18.701171875" as="geometry" />
        </mxCell>
        <mxCell id="Z9ixUB7JmdVqJL2UCnjJ-19" style="graphMlID=n9;shape=rect;rounded=1;arcsize=30;strokeWidth=1.0;fontFamily=Helvetica;verticalAlign=top;spacing=0;" parent="1" vertex="1">
          <mxGeometry x="606" y="318" width="72" height="30" as="geometry" />
        </mxCell>
        <mxCell id="Z9ixUB7JmdVqJL2UCnjJ-20" value="Prag" style="text;html=1;spacing=0;align=center;fontFamily=Helvetica;fontSize=12;fontStyle=0;verticalAlign=top;" parent="Z9ixUB7JmdVqJL2UCnjJ-19" vertex="1">
          <mxGeometry x="21.326171875" y="5.6494140625" width="29.34765625" height="18.701171875" as="geometry" />
        </mxCell>
        <mxCell id="Z9ixUB7JmdVqJL2UCnjJ-21" style="graphMlID=n10;shape=rect;rounded=1;arcsize=30;strokeWidth=1.0;fontFamily=Helvetica;verticalAlign=top;spacing=0;" parent="1" vertex="1">
          <mxGeometry x="733" y="329" width="72" height="30" as="geometry" />
        </mxCell>
        <mxCell id="Z9ixUB7JmdVqJL2UCnjJ-22" value="Bratislawa" style="text;html=1;spacing=0;align=center;fontFamily=Helvetica;fontSize=12;fontStyle=0;verticalAlign=top;" parent="Z9ixUB7JmdVqJL2UCnjJ-21" vertex="1">
          <mxGeometry x="6.3232421875" y="5.6494140625" width="59.353515625" height="18.701171875" as="geometry" />
        </mxCell>
        <mxCell id="Z9ixUB7JmdVqJL2UCnjJ-23" style="graphMlID=n11;shape=rect;rounded=1;arcsize=30;strokeWidth=1.0;fontFamily=Helvetica;verticalAlign=top;spacing=0;" parent="1" vertex="1">
          <mxGeometry x="526" y="409" width="72" height="30" as="geometry" />
        </mxCell>
        <mxCell id="Z9ixUB7JmdVqJL2UCnjJ-24" value="Wien" style="text;html=1;spacing=0;align=center;fontFamily=Helvetica;fontSize=12;fontStyle=0;verticalAlign=top;" parent="Z9ixUB7JmdVqJL2UCnjJ-23" vertex="1">
          <mxGeometry x="20.330078125" y="5.6494140625" width="31.33984375" height="18.701171875" as="geometry" />
        </mxCell>
        <mxCell id="Z9ixUB7JmdVqJL2UCnjJ-25" style="graphMlID=n12;shape=rect;rounded=1;arcsize=30;strokeWidth=1.0;fontFamily=Helvetica;verticalAlign=top;spacing=0;" parent="1" vertex="1">
          <mxGeometry x="398" y="439" width="72" height="30" as="geometry" />
        </mxCell>
        <mxCell id="Z9ixUB7JmdVqJL2UCnjJ-26" value="Rom" style="text;html=1;spacing=0;align=center;fontFamily=Helvetica;fontSize=12;fontStyle=0;verticalAlign=top;" parent="Z9ixUB7JmdVqJL2UCnjJ-25" vertex="1">
          <mxGeometry x="21.33203125" y="5.6494140625" width="29.3359375" height="18.701171875" as="geometry" />
        </mxCell>
        <mxCell id="Z9ixUB7JmdVqJL2UCnjJ-27" style="graphMlID=n13;shape=rect;rounded=1;arcsize=30;strokeWidth=1.0;fontFamily=Helvetica;verticalAlign=top;spacing=0;" parent="1" vertex="1">
          <mxGeometry x="695" y="417" width="72" height="30" as="geometry" />
        </mxCell>
        <mxCell id="Z9ixUB7JmdVqJL2UCnjJ-28" value="Budapest" style="text;html=1;spacing=0;align=center;fontFamily=Helvetica;fontSize=12;fontStyle=0;verticalAlign=top;" parent="Z9ixUB7JmdVqJL2UCnjJ-27" vertex="1">
          <mxGeometry x="8.646484375" y="5.6494140625" width="54.70703125" height="18.701171875" as="geometry" />
        </mxCell>
        <mxCell id="Z9ixUB7JmdVqJL2UCnjJ-29" value="" style="graphMlID=e0;rounded=0;endArrow=none;strokeWidth=1.0;startArrow=none;startFill=1;endFill=1;fontFamily=Helvetica;verticalAlign=top;spacing=0;" parent="1" source="Z9ixUB7JmdVqJL2UCnjJ-1" target="Z9ixUB7JmdVqJL2UCnjJ-3" edge="1">
          <mxGeometry relative="1" as="geometry" />
        </mxCell>
        <mxCell id="Z9ixUB7JmdVqJL2UCnjJ-30" value="" style="graphMlID=e1;rounded=0;endArrow=none;strokeWidth=1.0;startArrow=none;startFill=1;endFill=1;fontFamily=Helvetica;verticalAlign=top;spacing=0;" parent="1" source="Z9ixUB7JmdVqJL2UCnjJ-3" target="Z9ixUB7JmdVqJL2UCnjJ-5" edge="1">
          <mxGeometry relative="1" as="geometry" />
        </mxCell>
        <mxCell id="Z9ixUB7JmdVqJL2UCnjJ-31" value="" style="graphMlID=e2;rounded=0;endArrow=none;strokeWidth=1.0;startArrow=none;startFill=1;endFill=1;fontFamily=Helvetica;verticalAlign=top;spacing=0;" parent="1" source="Z9ixUB7JmdVqJL2UCnjJ-5" target="Z9ixUB7JmdVqJL2UCnjJ-9" edge="1">
          <mxGeometry relative="1" as="geometry" />
        </mxCell>
        <mxCell id="Z9ixUB7JmdVqJL2UCnjJ-32" value="" style="graphMlID=e3;rounded=0;endArrow=none;strokeWidth=1.0;startArrow=none;startFill=1;endFill=1;fontFamily=Helvetica;verticalAlign=top;spacing=0;" parent="1" source="Z9ixUB7JmdVqJL2UCnjJ-9" target="Z9ixUB7JmdVqJL2UCnjJ-11" edge="1">
          <mxGeometry relative="1" as="geometry" />
        </mxCell>
        <mxCell id="Z9ixUB7JmdVqJL2UCnjJ-33" value="" style="graphMlID=e4;rounded=0;endArrow=none;strokeWidth=1.0;startArrow=none;startFill=1;endFill=1;fontFamily=Helvetica;verticalAlign=top;spacing=0;" parent="1" source="Z9ixUB7JmdVqJL2UCnjJ-11" target="Z9ixUB7JmdVqJL2UCnjJ-13" edge="1">
          <mxGeometry relative="1" as="geometry" />
        </mxCell>
        <mxCell id="Z9ixUB7JmdVqJL2UCnjJ-34" value="" style="graphMlID=e5;rounded=0;endArrow=none;strokeWidth=1.0;startArrow=none;startFill=1;endFill=1;fontFamily=Helvetica;verticalAlign=top;spacing=0;" parent="1" source="Z9ixUB7JmdVqJL2UCnjJ-5" target="Z9ixUB7JmdVqJL2UCnjJ-13" edge="1">
          <mxGeometry relative="1" as="geometry" />
        </mxCell>
        <mxCell id="Z9ixUB7JmdVqJL2UCnjJ-35" value="" style="graphMlID=e6;rounded=0;endArrow=none;strokeWidth=1.0;startArrow=none;startFill=1;endFill=1;fontFamily=Helvetica;verticalAlign=top;spacing=0;" parent="1" source="Z9ixUB7JmdVqJL2UCnjJ-9" target="Z9ixUB7JmdVqJL2UCnjJ-13" edge="1">
          <mxGeometry relative="1" as="geometry" />
        </mxCell>
        <mxCell id="Z9ixUB7JmdVqJL2UCnjJ-36" value="" style="graphMlID=e7;rounded=0;endArrow=none;strokeWidth=1.0;startArrow=none;startFill=1;endFill=1;fontFamily=Helvetica;verticalAlign=top;spacing=0;" parent="1" source="Z9ixUB7JmdVqJL2UCnjJ-13" target="Z9ixUB7JmdVqJL2UCnjJ-15" edge="1">
          <mxGeometry relative="1" as="geometry" />
        </mxCell>
        <mxCell id="Z9ixUB7JmdVqJL2UCnjJ-37" value="" style="graphMlID=e8;rounded=0;endArrow=none;strokeWidth=1.0;startArrow=none;startFill=1;endFill=1;fontFamily=Helvetica;verticalAlign=top;spacing=0;" parent="1" source="Z9ixUB7JmdVqJL2UCnjJ-13" target="Z9ixUB7JmdVqJL2UCnjJ-17" edge="1">
          <mxGeometry relative="1" as="geometry" />
        </mxCell>
        <mxCell id="Z9ixUB7JmdVqJL2UCnjJ-38" value="" style="graphMlID=e9;rounded=0;endArrow=none;strokeWidth=1.0;startArrow=none;startFill=1;endFill=1;fontFamily=Helvetica;verticalAlign=top;spacing=0;" parent="1" source="Z9ixUB7JmdVqJL2UCnjJ-19" target="Z9ixUB7JmdVqJL2UCnjJ-21" edge="1">
          <mxGeometry relative="1" as="geometry" />
        </mxCell>
        <mxCell id="Z9ixUB7JmdVqJL2UCnjJ-39" value="" style="graphMlID=e10;rounded=0;endArrow=none;strokeWidth=1.0;startArrow=none;startFill=1;endFill=1;fontFamily=Helvetica;verticalAlign=top;spacing=0;" parent="1" source="Z9ixUB7JmdVqJL2UCnjJ-17" target="Z9ixUB7JmdVqJL2UCnjJ-21" edge="1">
          <mxGeometry relative="1" as="geometry" />
        </mxCell>
        <mxCell id="Z9ixUB7JmdVqJL2UCnjJ-40" value="" style="graphMlID=e11;rounded=0;endArrow=none;strokeWidth=1.0;startArrow=none;startFill=1;endFill=1;fontFamily=Helvetica;verticalAlign=top;spacing=0;" parent="1" source="Z9ixUB7JmdVqJL2UCnjJ-19" target="Z9ixUB7JmdVqJL2UCnjJ-17" edge="1">
          <mxGeometry relative="1" as="geometry" />
        </mxCell>
        <mxCell id="Z9ixUB7JmdVqJL2UCnjJ-41" value="" style="graphMlID=e12;rounded=0;endArrow=none;strokeWidth=1.0;startArrow=none;startFill=1;endFill=1;fontFamily=Helvetica;verticalAlign=top;spacing=0;" parent="1" source="Z9ixUB7JmdVqJL2UCnjJ-19" target="Z9ixUB7JmdVqJL2UCnjJ-13" edge="1">
          <mxGeometry relative="1" as="geometry" />
        </mxCell>
        <mxCell id="Z9ixUB7JmdVqJL2UCnjJ-42" value="" style="graphMlID=e13;rounded=0;endArrow=none;strokeWidth=1.0;startArrow=none;startFill=1;endFill=1;fontFamily=Helvetica;verticalAlign=top;spacing=0;" parent="1" source="Z9ixUB7JmdVqJL2UCnjJ-23" target="Z9ixUB7JmdVqJL2UCnjJ-19" edge="1">
          <mxGeometry relative="1" as="geometry" />
        </mxCell>
        <mxCell id="Z9ixUB7JmdVqJL2UCnjJ-43" value="" style="graphMlID=e14;rounded=0;endArrow=none;strokeWidth=1.0;startArrow=none;startFill=1;endFill=1;fontFamily=Helvetica;verticalAlign=top;spacing=0;" parent="1" source="Z9ixUB7JmdVqJL2UCnjJ-23" target="Z9ixUB7JmdVqJL2UCnjJ-13" edge="1">
          <mxGeometry relative="1" as="geometry" />
        </mxCell>
        <mxCell id="Z9ixUB7JmdVqJL2UCnjJ-44" value="" style="graphMlID=e15;rounded=0;endArrow=none;strokeWidth=1.0;startArrow=none;startFill=1;endFill=1;fontFamily=Helvetica;verticalAlign=top;spacing=0;" parent="1" source="Z9ixUB7JmdVqJL2UCnjJ-23" target="Z9ixUB7JmdVqJL2UCnjJ-21" edge="1">
          <mxGeometry relative="1" as="geometry" />
        </mxCell>
        <mxCell id="Z9ixUB7JmdVqJL2UCnjJ-45" value="" style="graphMlID=e16;rounded=0;endArrow=none;strokeWidth=1.0;startArrow=none;startFill=1;endFill=1;fontFamily=Helvetica;verticalAlign=top;spacing=0;" parent="1" source="Z9ixUB7JmdVqJL2UCnjJ-25" target="Z9ixUB7JmdVqJL2UCnjJ-23" edge="1">
          <mxGeometry relative="1" as="geometry" />
        </mxCell>
        <mxCell id="Z9ixUB7JmdVqJL2UCnjJ-46" value="" style="graphMlID=e17;rounded=0;endArrow=none;strokeWidth=1.0;startArrow=none;startFill=1;endFill=1;fontFamily=Helvetica;verticalAlign=top;spacing=0;" parent="1" source="Z9ixUB7JmdVqJL2UCnjJ-25" target="Z9ixUB7JmdVqJL2UCnjJ-5" edge="1">
          <mxGeometry relative="1" as="geometry" />
        </mxCell>
        <mxCell id="Z9ixUB7JmdVqJL2UCnjJ-47" value="" style="graphMlID=e18;rounded=0;endArrow=none;strokeWidth=1.0;startArrow=none;startFill=1;endFill=1;fontFamily=Helvetica;verticalAlign=top;spacing=0;" parent="1" source="Z9ixUB7JmdVqJL2UCnjJ-27" target="Z9ixUB7JmdVqJL2UCnjJ-21" edge="1">
          <mxGeometry relative="1" as="geometry" />
        </mxCell>
        <mxCell id="Z9ixUB7JmdVqJL2UCnjJ-48" value="" style="graphMlID=e19;rounded=0;endArrow=none;strokeWidth=1.0;startArrow=none;startFill=1;endFill=1;fontFamily=Helvetica;verticalAlign=top;spacing=0;" parent="1" source="Z9ixUB7JmdVqJL2UCnjJ-27" target="Z9ixUB7JmdVqJL2UCnjJ-23" edge="1">
          <mxGeometry relative="1" as="geometry" />
        </mxCell>
      </root>
    </mxGraphModel>
  </diagram>
  <diagram id="PVu2-KX2UTwG_iWD2k1V" name="Graphentypen">
    <mxGraphModel dx="946" dy="620" grid="0" gridSize="10" guides="1" tooltips="1" connect="1" arrows="1" fold="1" page="1" pageScale="1" pageWidth="1169" pageHeight="827" math="0" shadow="0">
      <root>
        <mxCell id="pmR28CLBr2qjQM95Hy9x-0" />
        <mxCell id="pmR28CLBr2qjQM95Hy9x-1" parent="pmR28CLBr2qjQM95Hy9x-0" />
        <mxCell id="pmR28CLBr2qjQM95Hy9x-2" style="graphMlID=n0;shape=rect;rounded=1;arcsize=30;fillColor=#ffcc00;strokeColor=#000000;strokeWidth=1.0" parent="pmR28CLBr2qjQM95Hy9x-1" vertex="1">
          <mxGeometry x="481" y="407" width="30" height="30" as="geometry" />
        </mxCell>
        <mxCell id="pmR28CLBr2qjQM95Hy9x-3" value="A" style="text;html=1;spacing=0;align=center;fontFamily=dialog;fontSize=12;fontStyle=0;fontColor=#000000" parent="pmR28CLBr2qjQM95Hy9x-2" vertex="1">
          <mxGeometry x="8.998046875" y="5.6494140625" width="12.00390625" height="18.701171875" as="geometry" />
        </mxCell>
        <mxCell id="pmR28CLBr2qjQM95Hy9x-4" style="graphMlID=n1;shape=rect;rounded=1;arcsize=30;fillColor=#ffcc00;strokeColor=#000000;strokeWidth=1.0" parent="pmR28CLBr2qjQM95Hy9x-1" vertex="1">
          <mxGeometry x="419" y="468" width="30" height="30" as="geometry" />
        </mxCell>
        <mxCell id="pmR28CLBr2qjQM95Hy9x-5" value="B" style="text;html=1;spacing=0;align=center;fontFamily=dialog;fontSize=12;fontStyle=0;fontColor=#000000" parent="pmR28CLBr2qjQM95Hy9x-4" vertex="1">
          <mxGeometry x="8.998046875" y="5.6494140625" width="12.00390625" height="18.701171875" as="geometry" />
        </mxCell>
        <mxCell id="pmR28CLBr2qjQM95Hy9x-6" style="graphMlID=n2;shape=rect;rounded=1;arcsize=30;fillColor=#ffcc00;strokeColor=#000000;strokeWidth=1.0" parent="pmR28CLBr2qjQM95Hy9x-1" vertex="1">
          <mxGeometry x="481" y="536" width="30" height="30" as="geometry" />
        </mxCell>
        <mxCell id="pmR28CLBr2qjQM95Hy9x-7" value="C" style="text;html=1;spacing=0;align=center;fontFamily=dialog;fontSize=12;fontStyle=0;fontColor=#000000" parent="pmR28CLBr2qjQM95Hy9x-6" vertex="1">
          <mxGeometry x="8.6669921875" y="5.6494140625" width="12.666015625" height="18.701171875" as="geometry" />
        </mxCell>
        <mxCell id="pmR28CLBr2qjQM95Hy9x-8" style="graphMlID=n3;shape=rect;rounded=1;arcsize=30;fillColor=#ffcc00;strokeColor=#000000;strokeWidth=1.0" parent="pmR28CLBr2qjQM95Hy9x-1" vertex="1">
          <mxGeometry x="544" y="468" width="30" height="30" as="geometry" />
        </mxCell>
        <mxCell id="pmR28CLBr2qjQM95Hy9x-9" value="E" style="text;html=1;spacing=0;align=center;fontFamily=dialog;fontSize=12;fontStyle=0;fontColor=#000000" parent="pmR28CLBr2qjQM95Hy9x-8" vertex="1">
          <mxGeometry x="8.998046875" y="5.6494140625" width="12.00390625" height="18.701171875" as="geometry" />
        </mxCell>
        <mxCell id="pmR28CLBr2qjQM95Hy9x-10" style="graphMlID=n4;shape=rect;rounded=1;arcsize=30;fillColor=#ffcc00;strokeColor=#000000;strokeWidth=1.0" parent="pmR28CLBr2qjQM95Hy9x-1" vertex="1">
          <mxGeometry x="612" y="420" width="30" height="30" as="geometry" />
        </mxCell>
        <mxCell id="pmR28CLBr2qjQM95Hy9x-11" value="F" style="text;html=1;spacing=0;align=center;fontFamily=dialog;fontSize=12;fontStyle=0;fontColor=#000000" parent="pmR28CLBr2qjQM95Hy9x-10" vertex="1">
          <mxGeometry x="9.3349609375" y="5.6494140625" width="11.330078125" height="18.701171875" as="geometry" />
        </mxCell>
        <mxCell id="pmR28CLBr2qjQM95Hy9x-12" style="graphMlID=n5;shape=rect;rounded=1;arcsize=30;fillColor=#ffcc00;strokeColor=#000000;strokeWidth=1.0" parent="pmR28CLBr2qjQM95Hy9x-1" vertex="1">
          <mxGeometry x="556" y="535" width="30" height="30" as="geometry" />
        </mxCell>
        <mxCell id="pmR28CLBr2qjQM95Hy9x-13" value="D" style="text;html=1;spacing=0;align=center;fontFamily=dialog;fontSize=12;fontStyle=0;fontColor=#000000" parent="pmR28CLBr2qjQM95Hy9x-12" vertex="1">
          <mxGeometry x="8.6669921875" y="5.6494140625" width="12.666015625" height="18.701171875" as="geometry" />
        </mxCell>
        <mxCell id="pmR28CLBr2qjQM95Hy9x-14" style="graphMlID=n6;shape=rect;rounded=1;arcsize=30;fillColor=#ffcc00;strokeColor=#000000;strokeWidth=1.0" parent="pmR28CLBr2qjQM95Hy9x-1" vertex="1">
          <mxGeometry x="855" y="415" width="30" height="30" as="geometry" />
        </mxCell>
        <mxCell id="pmR28CLBr2qjQM95Hy9x-15" value="k1" style="text;html=1;spacing=0;align=center;fontFamily=dialog;fontSize=12;fontStyle=0;fontColor=#000000" parent="pmR28CLBr2qjQM95Hy9x-14" vertex="1">
          <mxGeometry x="6.6630859375" y="5.6494140625" width="16.673828125" height="18.701171875" as="geometry" />
        </mxCell>
        <mxCell id="pmR28CLBr2qjQM95Hy9x-16" style="graphMlID=n7;shape=rect;rounded=1;arcsize=30;fillColor=#ffcc00;strokeColor=#000000;strokeWidth=1.0" parent="pmR28CLBr2qjQM95Hy9x-1" vertex="1">
          <mxGeometry x="984" y="415" width="30" height="30" as="geometry" />
        </mxCell>
        <mxCell id="pmR28CLBr2qjQM95Hy9x-17" value="k2" style="text;html=1;spacing=0;align=center;fontFamily=dialog;fontSize=12;fontStyle=0;fontColor=#000000" parent="pmR28CLBr2qjQM95Hy9x-16" vertex="1">
          <mxGeometry x="6.6630859375" y="5.6494140625" width="16.673828125" height="18.701171875" as="geometry" />
        </mxCell>
        <mxCell id="pmR28CLBr2qjQM95Hy9x-18" style="graphMlID=n8;shape=rect;rounded=1;arcsize=30;fillColor=#ffcc00;strokeColor=#000000;strokeWidth=1.0" parent="pmR28CLBr2qjQM95Hy9x-1" vertex="1">
          <mxGeometry x="913" y="508" width="30" height="30" as="geometry" />
        </mxCell>
        <mxCell id="pmR28CLBr2qjQM95Hy9x-19" value="k4" style="text;html=1;spacing=0;align=center;fontFamily=dialog;fontSize=12;fontStyle=0;fontColor=#000000" parent="pmR28CLBr2qjQM95Hy9x-18" vertex="1">
          <mxGeometry x="6.6630859375" y="5.6494140625" width="16.673828125" height="18.701171875" as="geometry" />
        </mxCell>
        <mxCell id="pmR28CLBr2qjQM95Hy9x-20" style="graphMlID=n9;shape=rect;rounded=1;arcsize=30;fillColor=#ffcc00;strokeColor=#000000;strokeWidth=1.0" parent="pmR28CLBr2qjQM95Hy9x-1" vertex="1">
          <mxGeometry x="817" y="504" width="30" height="30" as="geometry" />
        </mxCell>
        <mxCell id="pmR28CLBr2qjQM95Hy9x-21" value="k3" style="text;html=1;spacing=0;align=center;fontFamily=dialog;fontSize=12;fontStyle=0;fontColor=#000000" parent="pmR28CLBr2qjQM95Hy9x-20" vertex="1">
          <mxGeometry x="6.6630859375" y="5.6494140625" width="16.673828125" height="18.701171875" as="geometry" />
        </mxCell>
        <mxCell id="pmR28CLBr2qjQM95Hy9x-22" style="graphMlID=n10;shape=rect;rounded=1;arcsize=30;fillColor=#ffcc00;strokeColor=#000000;strokeWidth=1.0" parent="pmR28CLBr2qjQM95Hy9x-1" vertex="1">
          <mxGeometry x="1040" y="573" width="30" height="30" as="geometry" />
        </mxCell>
        <mxCell id="pmR28CLBr2qjQM95Hy9x-23" value="k5" style="text;html=1;spacing=0;align=center;fontFamily=dialog;fontSize=12;fontStyle=0;fontColor=#000000" parent="pmR28CLBr2qjQM95Hy9x-22" vertex="1">
          <mxGeometry x="6.6630859375" y="5.6494140625" width="16.673828125" height="18.701171875" as="geometry" />
        </mxCell>
        <mxCell id="pmR28CLBr2qjQM95Hy9x-24" style="graphMlID=n11;shape=rect;rounded=1;arcsize=30;fillColor=#ffcc00;strokeColor=#000000;strokeWidth=1.0" parent="pmR28CLBr2qjQM95Hy9x-1" vertex="1">
          <mxGeometry x="873" y="590" width="30" height="30" as="geometry" />
        </mxCell>
        <mxCell id="pmR28CLBr2qjQM95Hy9x-25" value="k6" style="text;html=1;spacing=0;align=center;fontFamily=dialog;fontSize=12;fontStyle=0;fontColor=#000000" parent="pmR28CLBr2qjQM95Hy9x-24" vertex="1">
          <mxGeometry x="6.6630859375" y="5.6494140625" width="16.673828125" height="18.701171875" as="geometry" />
        </mxCell>
        <mxCell id="pmR28CLBr2qjQM95Hy9x-26" style="graphMlID=n12;shape=rect;rounded=1;arcsize=30;fillColor=#ffcc00;strokeColor=#000000;strokeWidth=1.0" parent="pmR28CLBr2qjQM95Hy9x-1" vertex="1">
          <mxGeometry x="1214" y="286" width="30" height="30" as="geometry" />
        </mxCell>
        <mxCell id="pmR28CLBr2qjQM95Hy9x-27" value="A" style="text;html=1;spacing=0;align=center;fontFamily=dialog;fontSize=12;fontStyle=0;fontColor=#000000" parent="pmR28CLBr2qjQM95Hy9x-26" vertex="1">
          <mxGeometry x="8.998046875" y="5.6494140625" width="12.00390625" height="18.701171875" as="geometry" />
        </mxCell>
        <mxCell id="pmR28CLBr2qjQM95Hy9x-28" style="graphMlID=n13;shape=rect;rounded=1;arcsize=30;fillColor=#ffcc00;strokeColor=#000000;strokeWidth=1.0" parent="pmR28CLBr2qjQM95Hy9x-1" vertex="1">
          <mxGeometry x="1152" y="347" width="30" height="30" as="geometry" />
        </mxCell>
        <mxCell id="pmR28CLBr2qjQM95Hy9x-29" value="B" style="text;html=1;spacing=0;align=center;fontFamily=dialog;fontSize=12;fontStyle=0;fontColor=#000000" parent="pmR28CLBr2qjQM95Hy9x-28" vertex="1">
          <mxGeometry x="8.998046875" y="5.6494140625" width="12.00390625" height="18.701171875" as="geometry" />
        </mxCell>
        <mxCell id="pmR28CLBr2qjQM95Hy9x-30" style="graphMlID=n14;shape=rect;rounded=1;arcsize=30;fillColor=#ffcc00;strokeColor=#000000;strokeWidth=1.0" parent="pmR28CLBr2qjQM95Hy9x-1" vertex="1">
          <mxGeometry x="1214" y="415" width="30" height="30" as="geometry" />
        </mxCell>
        <mxCell id="pmR28CLBr2qjQM95Hy9x-31" value="C" style="text;html=1;spacing=0;align=center;fontFamily=dialog;fontSize=12;fontStyle=0;fontColor=#000000" parent="pmR28CLBr2qjQM95Hy9x-30" vertex="1">
          <mxGeometry x="8.6669921875" y="5.6494140625" width="12.666015625" height="18.701171875" as="geometry" />
        </mxCell>
        <mxCell id="pmR28CLBr2qjQM95Hy9x-32" style="graphMlID=n15;shape=rect;rounded=1;arcsize=30;fillColor=#ffcc00;strokeColor=#000000;strokeWidth=1.0" parent="pmR28CLBr2qjQM95Hy9x-1" vertex="1">
          <mxGeometry x="1277" y="347" width="30" height="30" as="geometry" />
        </mxCell>
        <mxCell id="pmR28CLBr2qjQM95Hy9x-33" value="E" style="text;html=1;spacing=0;align=center;fontFamily=dialog;fontSize=12;fontStyle=0;fontColor=#000000" parent="pmR28CLBr2qjQM95Hy9x-32" vertex="1">
          <mxGeometry x="8.998046875" y="5.6494140625" width="12.00390625" height="18.701171875" as="geometry" />
        </mxCell>
        <mxCell id="pmR28CLBr2qjQM95Hy9x-34" style="graphMlID=n16;shape=rect;rounded=1;arcsize=30;fillColor=#ffcc00;strokeColor=#000000;strokeWidth=1.0" parent="pmR28CLBr2qjQM95Hy9x-1" vertex="1">
          <mxGeometry x="1345" y="299" width="30" height="30" as="geometry" />
        </mxCell>
        <mxCell id="pmR28CLBr2qjQM95Hy9x-35" value="F" style="text;html=1;spacing=0;align=center;fontFamily=dialog;fontSize=12;fontStyle=0;fontColor=#000000" parent="pmR28CLBr2qjQM95Hy9x-34" vertex="1">
          <mxGeometry x="9.3349609375" y="5.6494140625" width="11.330078125" height="18.701171875" as="geometry" />
        </mxCell>
        <mxCell id="pmR28CLBr2qjQM95Hy9x-36" style="graphMlID=n17;shape=rect;rounded=1;arcsize=30;fillColor=#ffcc00;strokeColor=#000000;strokeWidth=1.0" parent="pmR28CLBr2qjQM95Hy9x-1" vertex="1">
          <mxGeometry x="1289" y="414" width="30" height="30" as="geometry" />
        </mxCell>
        <mxCell id="pmR28CLBr2qjQM95Hy9x-37" value="D" style="text;html=1;spacing=0;align=center;fontFamily=dialog;fontSize=12;fontStyle=0;fontColor=#000000" parent="pmR28CLBr2qjQM95Hy9x-36" vertex="1">
          <mxGeometry x="8.6669921875" y="5.6494140625" width="12.666015625" height="18.701171875" as="geometry" />
        </mxCell>
        <mxCell id="pmR28CLBr2qjQM95Hy9x-38" style="graphMlID=n18;shape=rect;rounded=1;arcsize=30;fillColor=#ffcc00;strokeColor=#000000;strokeWidth=1.0" parent="pmR28CLBr2qjQM95Hy9x-1" vertex="1">
          <mxGeometry x="741" y="133" width="30" height="30" as="geometry" />
        </mxCell>
        <mxCell id="pmR28CLBr2qjQM95Hy9x-39" value="k1" style="text;html=1;spacing=0;align=center;fontFamily=dialog;fontSize=12;fontStyle=0;fontColor=#000000" parent="pmR28CLBr2qjQM95Hy9x-38" vertex="1">
          <mxGeometry x="6.6630859375" y="5.6494140625" width="16.673828125" height="18.701171875" as="geometry" />
        </mxCell>
        <mxCell id="pmR28CLBr2qjQM95Hy9x-40" style="graphMlID=n19;shape=rect;rounded=1;arcsize=30;fillColor=#ffcc00;strokeColor=#000000;strokeWidth=1.0" parent="pmR28CLBr2qjQM95Hy9x-1" vertex="1">
          <mxGeometry x="870" y="133" width="30" height="30" as="geometry" />
        </mxCell>
        <mxCell id="pmR28CLBr2qjQM95Hy9x-41" value="k2" style="text;html=1;spacing=0;align=center;fontFamily=dialog;fontSize=12;fontStyle=0;fontColor=#000000" parent="pmR28CLBr2qjQM95Hy9x-40" vertex="1">
          <mxGeometry x="6.6630859375" y="5.6494140625" width="16.673828125" height="18.701171875" as="geometry" />
        </mxCell>
        <mxCell id="pmR28CLBr2qjQM95Hy9x-42" style="graphMlID=n20;shape=rect;rounded=1;arcsize=30;fillColor=#ffcc00;strokeColor=#000000;strokeWidth=1.0" parent="pmR28CLBr2qjQM95Hy9x-1" vertex="1">
          <mxGeometry x="799" y="226" width="30" height="30" as="geometry" />
        </mxCell>
        <mxCell id="pmR28CLBr2qjQM95Hy9x-43" value="k4" style="text;html=1;spacing=0;align=center;fontFamily=dialog;fontSize=12;fontStyle=0;fontColor=#000000" parent="pmR28CLBr2qjQM95Hy9x-42" vertex="1">
          <mxGeometry x="6.6630859375" y="5.6494140625" width="16.673828125" height="18.701171875" as="geometry" />
        </mxCell>
        <mxCell id="pmR28CLBr2qjQM95Hy9x-44" style="graphMlID=n21;shape=rect;rounded=1;arcsize=30;fillColor=#ffcc00;strokeColor=#000000;strokeWidth=1.0" parent="pmR28CLBr2qjQM95Hy9x-1" vertex="1">
          <mxGeometry x="703" y="222" width="30" height="30" as="geometry" />
        </mxCell>
        <mxCell id="pmR28CLBr2qjQM95Hy9x-45" value="k3" style="text;html=1;spacing=0;align=center;fontFamily=dialog;fontSize=12;fontStyle=0;fontColor=#000000" parent="pmR28CLBr2qjQM95Hy9x-44" vertex="1">
          <mxGeometry x="6.6630859375" y="5.6494140625" width="16.673828125" height="18.701171875" as="geometry" />
        </mxCell>
        <mxCell id="pmR28CLBr2qjQM95Hy9x-46" style="graphMlID=n22;shape=rect;rounded=1;arcsize=30;fillColor=#ffcc00;strokeColor=#000000;strokeWidth=1.0" parent="pmR28CLBr2qjQM95Hy9x-1" vertex="1">
          <mxGeometry x="926" y="291" width="30" height="30" as="geometry" />
        </mxCell>
        <mxCell id="pmR28CLBr2qjQM95Hy9x-47" value="k5" style="text;html=1;spacing=0;align=center;fontFamily=dialog;fontSize=12;fontStyle=0;fontColor=#000000" parent="pmR28CLBr2qjQM95Hy9x-46" vertex="1">
          <mxGeometry x="6.6630859375" y="5.6494140625" width="16.673828125" height="18.701171875" as="geometry" />
        </mxCell>
        <mxCell id="pmR28CLBr2qjQM95Hy9x-48" style="graphMlID=n23;shape=rect;rounded=1;arcsize=30;fillColor=#ffcc00;strokeColor=#000000;strokeWidth=1.0" parent="pmR28CLBr2qjQM95Hy9x-1" vertex="1">
          <mxGeometry x="759" y="308" width="30" height="30" as="geometry" />
        </mxCell>
        <mxCell id="pmR28CLBr2qjQM95Hy9x-49" value="k6" style="text;html=1;spacing=0;align=center;fontFamily=dialog;fontSize=12;fontStyle=0;fontColor=#000000" parent="pmR28CLBr2qjQM95Hy9x-48" vertex="1">
          <mxGeometry x="6.6630859375" y="5.6494140625" width="16.673828125" height="18.701171875" as="geometry" />
        </mxCell>
        <mxCell id="pmR28CLBr2qjQM95Hy9x-50" style="graphMlID=n24;shape=rect;rounded=1;arcsize=30;fillColor=#ffcc00;strokeColor=#000000;strokeWidth=1.0" parent="pmR28CLBr2qjQM95Hy9x-1" vertex="1">
          <mxGeometry x="132.6" y="61.17" width="30" height="30" as="geometry" />
        </mxCell>
        <mxCell id="pmR28CLBr2qjQM95Hy9x-51" value="G" style="text;html=1;spacing=0;align=center;fontFamily=dialog;fontSize=12;fontStyle=0;fontColor=#000000" parent="pmR28CLBr2qjQM95Hy9x-50" vertex="1">
          <mxGeometry x="8.3330078125" y="5.6494140625" width="13.333984375" height="18.701171875" as="geometry" />
        </mxCell>
        <mxCell id="pmR28CLBr2qjQM95Hy9x-194" style="edgeStyle=orthogonalEdgeStyle;curved=1;orthogonalLoop=1;jettySize=auto;html=1;exitX=0.25;exitY=0;exitDx=0;exitDy=0;entryX=0.25;entryY=1;entryDx=0;entryDy=0;" parent="pmR28CLBr2qjQM95Hy9x-1" source="pmR28CLBr2qjQM95Hy9x-52" target="pmR28CLBr2qjQM95Hy9x-50" edge="1">
          <mxGeometry relative="1" as="geometry" />
        </mxCell>
        <mxCell id="pmR28CLBr2qjQM95Hy9x-52" style="graphMlID=n25;shape=rect;rounded=1;arcsize=30;fillColor=#ffcc00;strokeColor=#000000;strokeWidth=1.0" parent="pmR28CLBr2qjQM95Hy9x-1" vertex="1">
          <mxGeometry x="139.6" y="225.17000000000002" width="30" height="30" as="geometry" />
        </mxCell>
        <mxCell id="pmR28CLBr2qjQM95Hy9x-53" value="R" style="text;html=1;spacing=0;align=center;fontFamily=dialog;fontSize=12;fontStyle=0;fontColor=#000000" parent="pmR28CLBr2qjQM95Hy9x-52" vertex="1">
          <mxGeometry x="8.6669921875" y="5.6494140625" width="12.666015625" height="18.701171875" as="geometry" />
        </mxCell>
        <mxCell id="pmR28CLBr2qjQM95Hy9x-54" style="graphMlID=n26;shape=rect;rounded=1;arcsize=30;fillColor=#ffcc00;strokeColor=#000000;strokeWidth=1.0" parent="pmR28CLBr2qjQM95Hy9x-1" vertex="1">
          <mxGeometry x="242.6" y="67.17" width="30" height="30" as="geometry" />
        </mxCell>
        <mxCell id="pmR28CLBr2qjQM95Hy9x-55" value="M" style="text;html=1;spacing=0;align=center;fontFamily=dialog;fontSize=12;fontStyle=0;fontColor=#000000" parent="pmR28CLBr2qjQM95Hy9x-54" vertex="1">
          <mxGeometry x="8.001953125" y="5.6494140625" width="13.99609375" height="18.701171875" as="geometry" />
        </mxCell>
        <mxCell id="pmR28CLBr2qjQM95Hy9x-56" style="graphMlID=n27;shape=rect;rounded=1;arcsize=30;fillColor=#ffcc00;strokeColor=#000000;strokeWidth=1.0" parent="pmR28CLBr2qjQM95Hy9x-1" vertex="1">
          <mxGeometry x="243.6" y="179.17000000000002" width="30" height="30" as="geometry" />
        </mxCell>
        <mxCell id="pmR28CLBr2qjQM95Hy9x-57" value="K" style="text;html=1;spacing=0;align=center;fontFamily=dialog;fontSize=12;fontStyle=0;fontColor=#000000" parent="pmR28CLBr2qjQM95Hy9x-56" vertex="1">
          <mxGeometry x="8.998046875" y="5.6494140625" width="12.00390625" height="18.701171875" as="geometry" />
        </mxCell>
        <mxCell id="pmR28CLBr2qjQM95Hy9x-58" style="graphMlID=n28;shape=rect;rounded=1;arcsize=30;fillColor=#ffcc00;strokeColor=#000000;strokeWidth=1.0" parent="pmR28CLBr2qjQM95Hy9x-1" vertex="1">
          <mxGeometry x="353.6" y="234.17000000000002" width="30" height="30" as="geometry" />
        </mxCell>
        <mxCell id="pmR28CLBr2qjQM95Hy9x-59" value="S" style="text;html=1;spacing=0;align=center;fontFamily=dialog;fontSize=12;fontStyle=0;fontColor=#000000" parent="pmR28CLBr2qjQM95Hy9x-58" vertex="1">
          <mxGeometry x="8.998046875" y="5.6494140625" width="12.00390625" height="18.701171875" as="geometry" />
        </mxCell>
        <mxCell id="pmR28CLBr2qjQM95Hy9x-60" style="graphMlID=n29;shape=rect;rounded=1;arcsize=30;fillColor=#ffcc00;strokeColor=#000000;strokeWidth=1.0" parent="pmR28CLBr2qjQM95Hy9x-1" vertex="1">
          <mxGeometry x="321.4000000000001" y="735.8" width="30" height="30" as="geometry" />
        </mxCell>
        <mxCell id="pmR28CLBr2qjQM95Hy9x-61" value="A" style="text;html=1;spacing=0;align=center;fontFamily=dialog;fontSize=12;fontStyle=0;fontColor=#000000" parent="pmR28CLBr2qjQM95Hy9x-60" vertex="1">
          <mxGeometry x="8.998046875" y="5.6494140625" width="12.00390625" height="18.701171875" as="geometry" />
        </mxCell>
        <mxCell id="pmR28CLBr2qjQM95Hy9x-62" style="graphMlID=n30;shape=rect;rounded=1;arcsize=30;fillColor=#ffcc00;strokeColor=#000000;strokeWidth=1.0" parent="pmR28CLBr2qjQM95Hy9x-1" vertex="1">
          <mxGeometry x="257.80000000000007" y="785.6" width="30" height="30" as="geometry" />
        </mxCell>
        <mxCell id="pmR28CLBr2qjQM95Hy9x-63" value="B" style="text;html=1;spacing=0;align=center;fontFamily=dialog;fontSize=12;fontStyle=0;fontColor=#000000" parent="pmR28CLBr2qjQM95Hy9x-62" vertex="1">
          <mxGeometry x="8.998046875" y="5.6494140625" width="12.00390625" height="18.701171875" as="geometry" />
        </mxCell>
        <mxCell id="pmR28CLBr2qjQM95Hy9x-64" style="graphMlID=n31;shape=rect;rounded=1;arcsize=30;fillColor=#ffcc00;strokeColor=#000000;strokeWidth=1.0" parent="pmR28CLBr2qjQM95Hy9x-1" vertex="1">
          <mxGeometry x="279.00000000000006" y="859.2" width="30" height="30" as="geometry" />
        </mxCell>
        <mxCell id="pmR28CLBr2qjQM95Hy9x-65" value="C" style="text;html=1;spacing=0;align=center;fontFamily=dialog;fontSize=12;fontStyle=0;fontColor=#000000" parent="pmR28CLBr2qjQM95Hy9x-64" vertex="1">
          <mxGeometry x="8.6669921875" y="5.6494140625" width="12.666015625" height="18.701171875" as="geometry" />
        </mxCell>
        <mxCell id="pmR28CLBr2qjQM95Hy9x-66" style="graphMlID=n32;shape=rect;rounded=1;arcsize=30;fillColor=#ffcc00;strokeColor=#000000;strokeWidth=1.0" parent="pmR28CLBr2qjQM95Hy9x-1" vertex="1">
          <mxGeometry x="383.6000000000001" y="788.0000000000001" width="30" height="30" as="geometry" />
        </mxCell>
        <mxCell id="pmR28CLBr2qjQM95Hy9x-67" value="E" style="text;html=1;spacing=0;align=center;fontFamily=dialog;fontSize=12;fontStyle=0;fontColor=#000000" parent="pmR28CLBr2qjQM95Hy9x-66" vertex="1">
          <mxGeometry x="8.998046875" y="5.6494140625" width="12.00390625" height="18.701171875" as="geometry" />
        </mxCell>
        <mxCell id="pmR28CLBr2qjQM95Hy9x-68" style="graphMlID=n33;shape=rect;rounded=1;arcsize=30;fillColor=#ffcc00;strokeColor=#000000;strokeWidth=1.0" parent="pmR28CLBr2qjQM95Hy9x-1" vertex="1">
          <mxGeometry x="356.4000000000001" y="859.8" width="30" height="30" as="geometry" />
        </mxCell>
        <mxCell id="pmR28CLBr2qjQM95Hy9x-69" value="D" style="text;html=1;spacing=0;align=center;fontFamily=dialog;fontSize=12;fontStyle=0;fontColor=#000000" parent="pmR28CLBr2qjQM95Hy9x-68" vertex="1">
          <mxGeometry x="8.6669921875" y="5.6494140625" width="12.666015625" height="18.701171875" as="geometry" />
        </mxCell>
        <mxCell id="pmR28CLBr2qjQM95Hy9x-70" style="graphMlID=n34;shape=rect;rounded=1;arcsize=30;fillColor=#ffcc00;strokeColor=#000000;strokeWidth=1.0" parent="pmR28CLBr2qjQM95Hy9x-1" vertex="1">
          <mxGeometry x="565.7000000000002" y="741.8000000000001" width="30" height="30" as="geometry" />
        </mxCell>
        <mxCell id="pmR28CLBr2qjQM95Hy9x-71" value="A" style="text;html=1;spacing=0;align=center;fontFamily=dialog;fontSize=12;fontStyle=0;fontColor=#000000" parent="pmR28CLBr2qjQM95Hy9x-70" vertex="1">
          <mxGeometry x="8.998046875" y="5.6494140625" width="12.00390625" height="18.701171875" as="geometry" />
        </mxCell>
        <mxCell id="pmR28CLBr2qjQM95Hy9x-72" style="graphMlID=n35;shape=rect;rounded=1;arcsize=30;fillColor=#ffcc00;strokeColor=#000000;strokeWidth=1.0" parent="pmR28CLBr2qjQM95Hy9x-1" vertex="1">
          <mxGeometry x="515.6000000000001" y="791.4000000000001" width="30" height="30" as="geometry" />
        </mxCell>
        <mxCell id="pmR28CLBr2qjQM95Hy9x-73" value="B" style="text;html=1;spacing=0;align=center;fontFamily=dialog;fontSize=12;fontStyle=0;fontColor=#000000" parent="pmR28CLBr2qjQM95Hy9x-72" vertex="1">
          <mxGeometry x="8.998046875" y="5.6494140625" width="12.00390625" height="18.701171875" as="geometry" />
        </mxCell>
        <mxCell id="pmR28CLBr2qjQM95Hy9x-74" style="graphMlID=n36;shape=rect;rounded=1;arcsize=30;fillColor=#ffcc00;strokeColor=#000000;strokeWidth=1.0" parent="pmR28CLBr2qjQM95Hy9x-1" vertex="1">
          <mxGeometry x="515.6000000000001" y="865.8000000000002" width="30" height="30" as="geometry" />
        </mxCell>
        <mxCell id="pmR28CLBr2qjQM95Hy9x-75" value="C" style="text;html=1;spacing=0;align=center;fontFamily=dialog;fontSize=12;fontStyle=0;fontColor=#000000" parent="pmR28CLBr2qjQM95Hy9x-74" vertex="1">
          <mxGeometry x="8.6669921875" y="5.6494140625" width="12.666015625" height="18.701171875" as="geometry" />
        </mxCell>
        <mxCell id="pmR28CLBr2qjQM95Hy9x-76" style="graphMlID=n37;shape=rect;rounded=1;arcsize=30;fillColor=#ffcc00;strokeColor=#000000;strokeWidth=1.0" parent="pmR28CLBr2qjQM95Hy9x-1" vertex="1">
          <mxGeometry x="615.8000000000002" y="791.4000000000001" width="30" height="30" as="geometry" />
        </mxCell>
        <mxCell id="pmR28CLBr2qjQM95Hy9x-77" value="E" style="text;html=1;spacing=0;align=center;fontFamily=dialog;fontSize=12;fontStyle=0;fontColor=#000000" parent="pmR28CLBr2qjQM95Hy9x-76" vertex="1">
          <mxGeometry x="8.998046875" y="5.6494140625" width="12.00390625" height="18.701171875" as="geometry" />
        </mxCell>
        <mxCell id="pmR28CLBr2qjQM95Hy9x-78" style="graphMlID=n38;shape=rect;rounded=1;arcsize=30;fillColor=#ffcc00;strokeColor=#000000;strokeWidth=1.0" parent="pmR28CLBr2qjQM95Hy9x-1" vertex="1">
          <mxGeometry x="615.8000000000002" y="865.8000000000002" width="30" height="30" as="geometry" />
        </mxCell>
        <mxCell id="pmR28CLBr2qjQM95Hy9x-79" value="D" style="text;html=1;spacing=0;align=center;fontFamily=dialog;fontSize=12;fontStyle=0;fontColor=#000000" parent="pmR28CLBr2qjQM95Hy9x-78" vertex="1">
          <mxGeometry x="8.6669921875" y="5.6494140625" width="12.666015625" height="18.701171875" as="geometry" />
        </mxCell>
        <mxCell id="pmR28CLBr2qjQM95Hy9x-80" style="graphMlID=n39;shape=rect;rounded=1;arcsize=30;fillColor=#ffcc00;strokeColor=#000000;strokeWidth=1.0" parent="pmR28CLBr2qjQM95Hy9x-1" vertex="1">
          <mxGeometry x="723.6000000000003" y="754.8" width="30" height="30" as="geometry" />
        </mxCell>
        <mxCell id="pmR28CLBr2qjQM95Hy9x-81" value="A" style="text;html=1;spacing=0;align=center;fontFamily=dialog;fontSize=12;fontStyle=0;fontColor=#000000" parent="pmR28CLBr2qjQM95Hy9x-80" vertex="1">
          <mxGeometry x="8.998046875" y="5.6494140625" width="12.00390625" height="18.701171875" as="geometry" />
        </mxCell>
        <mxCell id="pmR28CLBr2qjQM95Hy9x-82" style="graphMlID=n40;shape=rect;rounded=1;arcsize=30;fillColor=#ffcc00;strokeColor=#000000;strokeWidth=1.0" parent="pmR28CLBr2qjQM95Hy9x-1" vertex="1">
          <mxGeometry x="773.7000000000003" y="807" width="30" height="30" as="geometry" />
        </mxCell>
        <mxCell id="pmR28CLBr2qjQM95Hy9x-83" value="B" style="text;html=1;spacing=0;align=center;fontFamily=dialog;fontSize=12;fontStyle=0;fontColor=#000000" parent="pmR28CLBr2qjQM95Hy9x-82" vertex="1">
          <mxGeometry x="8.998046875" y="5.6494140625" width="12.00390625" height="18.701171875" as="geometry" />
        </mxCell>
        <mxCell id="pmR28CLBr2qjQM95Hy9x-84" style="graphMlID=n41;shape=rect;rounded=1;arcsize=30;fillColor=#ffcc00;strokeColor=#000000;strokeWidth=1.0" parent="pmR28CLBr2qjQM95Hy9x-1" vertex="1">
          <mxGeometry x="723.6000000000003" y="859.2" width="30" height="30" as="geometry" />
        </mxCell>
        <mxCell id="pmR28CLBr2qjQM95Hy9x-85" value="C" style="text;html=1;spacing=0;align=center;fontFamily=dialog;fontSize=12;fontStyle=0;fontColor=#000000" parent="pmR28CLBr2qjQM95Hy9x-84" vertex="1">
          <mxGeometry x="8.6669921875" y="5.6494140625" width="12.666015625" height="18.701171875" as="geometry" />
        </mxCell>
        <mxCell id="pmR28CLBr2qjQM95Hy9x-86" style="graphMlID=n42;shape=rect;rounded=1;arcsize=30;fillColor=#ffcc00;strokeColor=#000000;strokeWidth=1.0" parent="pmR28CLBr2qjQM95Hy9x-1" vertex="1">
          <mxGeometry x="823.8000000000003" y="754.8" width="30" height="30" as="geometry" />
        </mxCell>
        <mxCell id="pmR28CLBr2qjQM95Hy9x-87" value="E" style="text;html=1;spacing=0;align=center;fontFamily=dialog;fontSize=12;fontStyle=0;fontColor=#000000" parent="pmR28CLBr2qjQM95Hy9x-86" vertex="1">
          <mxGeometry x="8.998046875" y="5.6494140625" width="12.00390625" height="18.701171875" as="geometry" />
        </mxCell>
        <mxCell id="pmR28CLBr2qjQM95Hy9x-88" style="graphMlID=n43;shape=rect;rounded=1;arcsize=30;fillColor=#ffcc00;strokeColor=#000000;strokeWidth=1.0" parent="pmR28CLBr2qjQM95Hy9x-1" vertex="1">
          <mxGeometry x="823.8000000000003" y="859.2" width="30" height="30" as="geometry" />
        </mxCell>
        <mxCell id="pmR28CLBr2qjQM95Hy9x-89" value="D" style="text;html=1;spacing=0;align=center;fontFamily=dialog;fontSize=12;fontStyle=0;fontColor=#000000" parent="pmR28CLBr2qjQM95Hy9x-88" vertex="1">
          <mxGeometry x="8.6669921875" y="5.6494140625" width="12.666015625" height="18.701171875" as="geometry" />
        </mxCell>
        <mxCell id="pmR28CLBr2qjQM95Hy9x-90" value="" style="graphMlID=e0;rounded=0;endArrow=classic;strokeColor=#000000;strokeWidth=1.0;startArrow=none;startFill=1;endFill=1" parent="pmR28CLBr2qjQM95Hy9x-1" source="pmR28CLBr2qjQM95Hy9x-2" target="pmR28CLBr2qjQM95Hy9x-2" edge="1">
          <mxGeometry relative="1" as="geometry">
            <Array as="points">
              <mxPoint x="496" y="382" />
            </Array>
          </mxGeometry>
        </mxCell>
        <mxCell id="pmR28CLBr2qjQM95Hy9x-91" value="" style="graphMlID=e1;rounded=0;endArrow=classic;strokeColor=#000000;strokeWidth=1.0;startArrow=none;startFill=1;endFill=1" parent="pmR28CLBr2qjQM95Hy9x-1" source="pmR28CLBr2qjQM95Hy9x-2" target="pmR28CLBr2qjQM95Hy9x-4" edge="1">
          <mxGeometry relative="1" as="geometry">
            <Array as="points">
              <mxPoint x="474" y="451" />
            </Array>
          </mxGeometry>
        </mxCell>
        <mxCell id="pmR28CLBr2qjQM95Hy9x-92" value="" style="graphMlID=e2;rounded=0;endArrow=classic;strokeColor=#000000;strokeWidth=1.0;startArrow=none;startFill=1;endFill=1" parent="pmR28CLBr2qjQM95Hy9x-1" source="pmR28CLBr2qjQM95Hy9x-4" target="pmR28CLBr2qjQM95Hy9x-2" edge="1">
          <mxGeometry relative="1" as="geometry">
            <Array as="points">
              <mxPoint x="461" y="446" />
            </Array>
          </mxGeometry>
        </mxCell>
        <mxCell id="pmR28CLBr2qjQM95Hy9x-93" value="" style="graphMlID=e3;rounded=0;endArrow=classic;strokeColor=#000000;strokeWidth=1.0;startArrow=none;startFill=1;endFill=1" parent="pmR28CLBr2qjQM95Hy9x-1" source="pmR28CLBr2qjQM95Hy9x-2" target="pmR28CLBr2qjQM95Hy9x-6" edge="1">
          <mxGeometry relative="1" as="geometry" />
        </mxCell>
        <mxCell id="pmR28CLBr2qjQM95Hy9x-94" value="" style="graphMlID=e4;rounded=0;endArrow=classic;strokeColor=#000000;strokeWidth=1.0;startArrow=none;startFill=1;endFill=1" parent="pmR28CLBr2qjQM95Hy9x-1" source="pmR28CLBr2qjQM95Hy9x-4" target="pmR28CLBr2qjQM95Hy9x-6" edge="1">
          <mxGeometry relative="1" as="geometry" />
        </mxCell>
        <mxCell id="pmR28CLBr2qjQM95Hy9x-95" value="" style="graphMlID=e5;rounded=0;endArrow=classic;strokeColor=#000000;strokeWidth=1.0;startArrow=none;startFill=1;endFill=1" parent="pmR28CLBr2qjQM95Hy9x-1" source="pmR28CLBr2qjQM95Hy9x-2" target="pmR28CLBr2qjQM95Hy9x-8" edge="1">
          <mxGeometry relative="1" as="geometry" />
        </mxCell>
        <mxCell id="pmR28CLBr2qjQM95Hy9x-96" value="" style="graphMlID=e6;rounded=0;endArrow=classic;strokeColor=#000000;strokeWidth=1.0;startArrow=none;startFill=1;endFill=1" parent="pmR28CLBr2qjQM95Hy9x-1" source="pmR28CLBr2qjQM95Hy9x-8" target="pmR28CLBr2qjQM95Hy9x-6" edge="1">
          <mxGeometry relative="1" as="geometry" />
        </mxCell>
        <mxCell id="pmR28CLBr2qjQM95Hy9x-97" value="" style="graphMlID=e7;rounded=0;endArrow=classic;strokeColor=#000000;strokeWidth=1.0;startArrow=none;startFill=1;endFill=1" parent="pmR28CLBr2qjQM95Hy9x-1" source="pmR28CLBr2qjQM95Hy9x-10" target="pmR28CLBr2qjQM95Hy9x-8" edge="1">
          <mxGeometry relative="1" as="geometry" />
        </mxCell>
        <mxCell id="pmR28CLBr2qjQM95Hy9x-98" value="" style="graphMlID=e8;rounded=0;endArrow=classic;strokeColor=#000000;strokeWidth=1.0;startArrow=none;startFill=1;endFill=1" parent="pmR28CLBr2qjQM95Hy9x-1" source="pmR28CLBr2qjQM95Hy9x-6" target="pmR28CLBr2qjQM95Hy9x-12" edge="1">
          <mxGeometry relative="1" as="geometry" />
        </mxCell>
        <mxCell id="pmR28CLBr2qjQM95Hy9x-99" value="" style="graphMlID=e9;rounded=0;endArrow=none;strokeColor=#000000;strokeWidth=1.0;startArrow=none;startFill=1;endFill=1" parent="pmR28CLBr2qjQM95Hy9x-1" source="pmR28CLBr2qjQM95Hy9x-14" target="pmR28CLBr2qjQM95Hy9x-16" edge="1">
          <mxGeometry relative="1" as="geometry" />
        </mxCell>
        <mxCell id="pmR28CLBr2qjQM95Hy9x-100" value="9" style="text;html=1;spacing=0;align=center;fontFamily=dialog;fontSize=12;fontStyle=0;fontColor=#000000" parent="pmR28CLBr2qjQM95Hy9x-99" vertex="1">
          <mxGeometry width="10.673828125" height="18.701171875" relative="1" as="geometry">
            <mxPoint x="-9.185791015625" y="-18.3505859375" as="offset" />
          </mxGeometry>
        </mxCell>
        <mxCell id="pmR28CLBr2qjQM95Hy9x-101" value="" style="graphMlID=e10;rounded=0;endArrow=none;strokeColor=#000000;strokeWidth=1.0;startArrow=none;startFill=1;endFill=1" parent="pmR28CLBr2qjQM95Hy9x-1" source="pmR28CLBr2qjQM95Hy9x-16" target="pmR28CLBr2qjQM95Hy9x-22" edge="1">
          <mxGeometry relative="1" as="geometry" />
        </mxCell>
        <mxCell id="pmR28CLBr2qjQM95Hy9x-102" value="6" style="text;html=1;spacing=0;align=center;fontFamily=dialog;fontSize=12;fontStyle=0;fontColor=#000000" parent="pmR28CLBr2qjQM95Hy9x-101" vertex="1">
          <mxGeometry width="10.673828125" height="18.701171875" relative="1" as="geometry">
            <mxPoint x="7.0185546875" y="41.64404296875" as="offset" />
          </mxGeometry>
        </mxCell>
        <mxCell id="pmR28CLBr2qjQM95Hy9x-103" value="" style="graphMlID=e11;rounded=0;endArrow=none;strokeColor=#000000;strokeWidth=1.0;startArrow=none;startFill=1;endFill=1" parent="pmR28CLBr2qjQM95Hy9x-1" source="pmR28CLBr2qjQM95Hy9x-16" target="pmR28CLBr2qjQM95Hy9x-18" edge="1">
          <mxGeometry relative="1" as="geometry" />
        </mxCell>
        <mxCell id="pmR28CLBr2qjQM95Hy9x-104" value="4" style="text;html=1;spacing=0;align=center;fontFamily=dialog;fontSize=12;fontStyle=0;fontColor=#000000" parent="pmR28CLBr2qjQM95Hy9x-103" vertex="1">
          <mxGeometry width="10.673828125" height="18.701171875" relative="1" as="geometry">
            <mxPoint x="-11.087646484375" y="19.686767578125" as="offset" />
          </mxGeometry>
        </mxCell>
        <mxCell id="pmR28CLBr2qjQM95Hy9x-105" value="" style="graphMlID=e12;rounded=0;endArrow=none;strokeColor=#000000;strokeWidth=1.0;startArrow=none;startFill=1;endFill=1" parent="pmR28CLBr2qjQM95Hy9x-1" source="pmR28CLBr2qjQM95Hy9x-14" target="pmR28CLBr2qjQM95Hy9x-18" edge="1">
          <mxGeometry relative="1" as="geometry" />
        </mxCell>
        <mxCell id="pmR28CLBr2qjQM95Hy9x-106" value="7" style="text;html=1;spacing=0;align=center;fontFamily=dialog;fontSize=12;fontStyle=0;fontColor=#000000" parent="pmR28CLBr2qjQM95Hy9x-105" vertex="1">
          <mxGeometry width="10.673828125" height="18.701171875" relative="1" as="geometry">
            <mxPoint x="3.97705078125" y="18.641357421875" as="offset" />
          </mxGeometry>
        </mxCell>
        <mxCell id="pmR28CLBr2qjQM95Hy9x-107" value="" style="graphMlID=e13;rounded=0;endArrow=none;strokeColor=#000000;strokeWidth=1.0;startArrow=none;startFill=1;endFill=1" parent="pmR28CLBr2qjQM95Hy9x-1" source="pmR28CLBr2qjQM95Hy9x-14" target="pmR28CLBr2qjQM95Hy9x-20" edge="1">
          <mxGeometry relative="1" as="geometry" />
        </mxCell>
        <mxCell id="pmR28CLBr2qjQM95Hy9x-108" value="3" style="text;html=1;spacing=0;align=center;fontFamily=dialog;fontSize=12;fontStyle=0;fontColor=#000000" parent="pmR28CLBr2qjQM95Hy9x-107" vertex="1">
          <mxGeometry width="10.673828125" height="18.701171875" relative="1" as="geometry">
            <mxPoint x="-18.609375" y="17.65673828125" as="offset" />
          </mxGeometry>
        </mxCell>
        <mxCell id="pmR28CLBr2qjQM95Hy9x-109" value="" style="graphMlID=e14;rounded=0;endArrow=none;strokeColor=#000000;strokeWidth=1.0;startArrow=none;startFill=1;endFill=1" parent="pmR28CLBr2qjQM95Hy9x-1" source="pmR28CLBr2qjQM95Hy9x-20" target="pmR28CLBr2qjQM95Hy9x-24" edge="1">
          <mxGeometry relative="1" as="geometry" />
        </mxCell>
        <mxCell id="pmR28CLBr2qjQM95Hy9x-110" value="5" style="text;html=1;spacing=0;align=center;fontFamily=dialog;fontSize=12;fontStyle=0;fontColor=#000000" parent="pmR28CLBr2qjQM95Hy9x-109" vertex="1">
          <mxGeometry width="10.673828125" height="18.701171875" relative="1" as="geometry">
            <mxPoint x="-19.4384765625" y="15.63720703125" as="offset" />
          </mxGeometry>
        </mxCell>
        <mxCell id="pmR28CLBr2qjQM95Hy9x-111" value="" style="graphMlID=e15;rounded=0;endArrow=none;strokeColor=#000000;strokeWidth=1.0;startArrow=none;startFill=1;endFill=1" parent="pmR28CLBr2qjQM95Hy9x-1" source="pmR28CLBr2qjQM95Hy9x-18" target="pmR28CLBr2qjQM95Hy9x-24" edge="1">
          <mxGeometry relative="1" as="geometry" />
        </mxCell>
        <mxCell id="pmR28CLBr2qjQM95Hy9x-112" value="4" style="text;html=1;spacing=0;align=center;fontFamily=dialog;fontSize=12;fontStyle=0;fontColor=#000000" parent="pmR28CLBr2qjQM95Hy9x-111" vertex="1">
          <mxGeometry width="10.673828125" height="18.701171875" relative="1" as="geometry">
            <mxPoint x="-16.6865234375" y="10.634765625" as="offset" />
          </mxGeometry>
        </mxCell>
        <mxCell id="pmR28CLBr2qjQM95Hy9x-113" value="" style="graphMlID=e16;rounded=0;endArrow=none;strokeColor=#000000;strokeWidth=1.0;startArrow=none;startFill=1;endFill=1" parent="pmR28CLBr2qjQM95Hy9x-1" source="pmR28CLBr2qjQM95Hy9x-24" target="pmR28CLBr2qjQM95Hy9x-22" edge="1">
          <mxGeometry relative="1" as="geometry" />
        </mxCell>
        <mxCell id="pmR28CLBr2qjQM95Hy9x-114" value="6" style="text;html=1;spacing=0;align=center;fontFamily=dialog;fontSize=12;fontStyle=0;fontColor=#000000" parent="pmR28CLBr2qjQM95Hy9x-113" vertex="1">
          <mxGeometry width="10.673828125" height="18.701171875" relative="1" as="geometry">
            <mxPoint x="-3.126220703125" y="-8.827392578125" as="offset" />
          </mxGeometry>
        </mxCell>
        <mxCell id="pmR28CLBr2qjQM95Hy9x-115" value="" style="graphMlID=e17;rounded=0;endArrow=none;strokeColor=#000000;strokeWidth=1.0;startArrow=none;startFill=1;endFill=1" parent="pmR28CLBr2qjQM95Hy9x-1" source="pmR28CLBr2qjQM95Hy9x-28" target="pmR28CLBr2qjQM95Hy9x-26" edge="1">
          <mxGeometry relative="1" as="geometry" />
        </mxCell>
        <mxCell id="pmR28CLBr2qjQM95Hy9x-116" value="" style="graphMlID=e18;rounded=0;endArrow=none;strokeColor=#000000;strokeWidth=1.0;startArrow=none;startFill=1;endFill=1" parent="pmR28CLBr2qjQM95Hy9x-1" source="pmR28CLBr2qjQM95Hy9x-26" target="pmR28CLBr2qjQM95Hy9x-30" edge="1">
          <mxGeometry relative="1" as="geometry" />
        </mxCell>
        <mxCell id="pmR28CLBr2qjQM95Hy9x-117" value="" style="graphMlID=e19;rounded=0;endArrow=none;strokeColor=#000000;strokeWidth=1.0;startArrow=none;startFill=1;endFill=1" parent="pmR28CLBr2qjQM95Hy9x-1" source="pmR28CLBr2qjQM95Hy9x-28" target="pmR28CLBr2qjQM95Hy9x-30" edge="1">
          <mxGeometry relative="1" as="geometry" />
        </mxCell>
        <mxCell id="pmR28CLBr2qjQM95Hy9x-118" value="" style="graphMlID=e20;rounded=0;endArrow=none;strokeColor=#000000;strokeWidth=1.0;startArrow=none;startFill=1;endFill=1" parent="pmR28CLBr2qjQM95Hy9x-1" source="pmR28CLBr2qjQM95Hy9x-32" target="pmR28CLBr2qjQM95Hy9x-30" edge="1">
          <mxGeometry relative="1" as="geometry" />
        </mxCell>
        <mxCell id="pmR28CLBr2qjQM95Hy9x-119" value="" style="graphMlID=e21;rounded=0;endArrow=none;strokeColor=#000000;strokeWidth=1.0;startArrow=none;startFill=1;endFill=1" parent="pmR28CLBr2qjQM95Hy9x-1" source="pmR28CLBr2qjQM95Hy9x-26" target="pmR28CLBr2qjQM95Hy9x-32" edge="1">
          <mxGeometry relative="1" as="geometry" />
        </mxCell>
        <mxCell id="pmR28CLBr2qjQM95Hy9x-120" value="" style="graphMlID=e22;rounded=0;endArrow=none;strokeColor=#000000;strokeWidth=1.0;startArrow=none;startFill=1;endFill=1" parent="pmR28CLBr2qjQM95Hy9x-1" source="pmR28CLBr2qjQM95Hy9x-34" target="pmR28CLBr2qjQM95Hy9x-32" edge="1">
          <mxGeometry relative="1" as="geometry" />
        </mxCell>
        <mxCell id="pmR28CLBr2qjQM95Hy9x-121" value="" style="graphMlID=e23;rounded=0;endArrow=none;strokeColor=#000000;strokeWidth=1.0;startArrow=none;startFill=1;endFill=1" parent="pmR28CLBr2qjQM95Hy9x-1" source="pmR28CLBr2qjQM95Hy9x-30" target="pmR28CLBr2qjQM95Hy9x-36" edge="1">
          <mxGeometry relative="1" as="geometry" />
        </mxCell>
        <mxCell id="pmR28CLBr2qjQM95Hy9x-122" value="" style="graphMlID=e24;rounded=0;endArrow=none;strokeColor=#000000;strokeWidth=1.0;startArrow=none;startFill=1;endFill=1" parent="pmR28CLBr2qjQM95Hy9x-1" source="pmR28CLBr2qjQM95Hy9x-38" target="pmR28CLBr2qjQM95Hy9x-40" edge="1">
          <mxGeometry relative="1" as="geometry" />
        </mxCell>
        <mxCell id="pmR28CLBr2qjQM95Hy9x-123" value="9" style="text;html=1;spacing=0;align=center;fontFamily=dialog;fontSize=12;fontStyle=0;fontColor=#000000" parent="pmR28CLBr2qjQM95Hy9x-122" vertex="1">
          <mxGeometry width="10.673828125" height="18.701171875" relative="1" as="geometry">
            <mxPoint x="-9.185791015625" y="-18.3505859375" as="offset" />
          </mxGeometry>
        </mxCell>
        <mxCell id="pmR28CLBr2qjQM95Hy9x-124" value="" style="graphMlID=e25;rounded=0;endArrow=none;strokeColor=#000000;strokeWidth=1.0;startArrow=none;startFill=1;endFill=1" parent="pmR28CLBr2qjQM95Hy9x-1" source="pmR28CLBr2qjQM95Hy9x-40" target="pmR28CLBr2qjQM95Hy9x-46" edge="1">
          <mxGeometry relative="1" as="geometry" />
        </mxCell>
        <mxCell id="pmR28CLBr2qjQM95Hy9x-125" value="6" style="text;html=1;spacing=0;align=center;fontFamily=dialog;fontSize=12;fontStyle=0;fontColor=#000000" parent="pmR28CLBr2qjQM95Hy9x-124" vertex="1">
          <mxGeometry width="10.673828125" height="18.701171875" relative="1" as="geometry">
            <mxPoint x="7.0185546875" y="41.64404296875" as="offset" />
          </mxGeometry>
        </mxCell>
        <mxCell id="pmR28CLBr2qjQM95Hy9x-126" value="" style="graphMlID=e26;rounded=0;endArrow=none;strokeColor=#000000;strokeWidth=1.0;startArrow=none;startFill=1;endFill=1" parent="pmR28CLBr2qjQM95Hy9x-1" source="pmR28CLBr2qjQM95Hy9x-40" target="pmR28CLBr2qjQM95Hy9x-42" edge="1">
          <mxGeometry relative="1" as="geometry" />
        </mxCell>
        <mxCell id="pmR28CLBr2qjQM95Hy9x-127" value="4" style="text;html=1;spacing=0;align=center;fontFamily=dialog;fontSize=12;fontStyle=0;fontColor=#000000" parent="pmR28CLBr2qjQM95Hy9x-126" vertex="1">
          <mxGeometry width="10.673828125" height="18.701171875" relative="1" as="geometry">
            <mxPoint x="-11.087646484375" y="19.686767578125" as="offset" />
          </mxGeometry>
        </mxCell>
        <mxCell id="pmR28CLBr2qjQM95Hy9x-128" value="" style="graphMlID=e27;rounded=0;endArrow=none;strokeColor=#000000;strokeWidth=1.0;startArrow=none;startFill=1;endFill=1" parent="pmR28CLBr2qjQM95Hy9x-1" source="pmR28CLBr2qjQM95Hy9x-38" target="pmR28CLBr2qjQM95Hy9x-44" edge="1">
          <mxGeometry relative="1" as="geometry" />
        </mxCell>
        <mxCell id="pmR28CLBr2qjQM95Hy9x-129" value="3" style="text;html=1;spacing=0;align=center;fontFamily=dialog;fontSize=12;fontStyle=0;fontColor=#000000" parent="pmR28CLBr2qjQM95Hy9x-128" vertex="1">
          <mxGeometry width="10.673828125" height="18.701171875" relative="1" as="geometry">
            <mxPoint x="-18.609375" y="17.65673828125" as="offset" />
          </mxGeometry>
        </mxCell>
        <mxCell id="pmR28CLBr2qjQM95Hy9x-130" value="" style="graphMlID=e28;rounded=0;endArrow=none;strokeColor=#000000;strokeWidth=1.0;startArrow=none;startFill=1;endFill=1" parent="pmR28CLBr2qjQM95Hy9x-1" source="pmR28CLBr2qjQM95Hy9x-44" target="pmR28CLBr2qjQM95Hy9x-48" edge="1">
          <mxGeometry relative="1" as="geometry" />
        </mxCell>
        <mxCell id="pmR28CLBr2qjQM95Hy9x-131" value="5" style="text;html=1;spacing=0;align=center;fontFamily=dialog;fontSize=12;fontStyle=0;fontColor=#000000" parent="pmR28CLBr2qjQM95Hy9x-130" vertex="1">
          <mxGeometry width="10.673828125" height="18.701171875" relative="1" as="geometry">
            <mxPoint x="-19.4384765625" y="15.63720703125" as="offset" />
          </mxGeometry>
        </mxCell>
        <mxCell id="pmR28CLBr2qjQM95Hy9x-132" value="" style="graphMlID=e29;rounded=0;endArrow=none;strokeColor=#000000;strokeWidth=1.0;startArrow=none;startFill=1;endFill=1" parent="pmR28CLBr2qjQM95Hy9x-1" source="pmR28CLBr2qjQM95Hy9x-42" target="pmR28CLBr2qjQM95Hy9x-48" edge="1">
          <mxGeometry relative="1" as="geometry" />
        </mxCell>
        <mxCell id="pmR28CLBr2qjQM95Hy9x-133" value="4" style="text;html=1;spacing=0;align=center;fontFamily=dialog;fontSize=12;fontStyle=0;fontColor=#000000" parent="pmR28CLBr2qjQM95Hy9x-132" vertex="1">
          <mxGeometry width="10.673828125" height="18.701171875" relative="1" as="geometry">
            <mxPoint x="-16.6865234375" y="10.634765625" as="offset" />
          </mxGeometry>
        </mxCell>
        <mxCell id="pmR28CLBr2qjQM95Hy9x-134" value="" style="graphMlID=e30;rounded=0;endArrow=none;strokeColor=#000000;strokeWidth=1.0;startArrow=none;startFill=1;endFill=1" parent="pmR28CLBr2qjQM95Hy9x-1" source="pmR28CLBr2qjQM95Hy9x-48" target="pmR28CLBr2qjQM95Hy9x-46" edge="1">
          <mxGeometry relative="1" as="geometry" />
        </mxCell>
        <mxCell id="pmR28CLBr2qjQM95Hy9x-135" value="6" style="text;html=1;spacing=0;align=center;fontFamily=dialog;fontSize=12;fontStyle=0;fontColor=#000000" parent="pmR28CLBr2qjQM95Hy9x-134" vertex="1">
          <mxGeometry width="10.673828125" height="18.701171875" relative="1" as="geometry">
            <mxPoint x="-3.126220703125" y="-8.827392578125" as="offset" />
          </mxGeometry>
        </mxCell>
        <mxCell id="pmR28CLBr2qjQM95Hy9x-136" value="" style="graphMlID=e31;rounded=0;endArrow=none;strokeColor=#000000;strokeWidth=1.0;startArrow=none;startFill=1;endFill=1" parent="pmR28CLBr2qjQM95Hy9x-1" source="pmR28CLBr2qjQM95Hy9x-38" target="pmR28CLBr2qjQM95Hy9x-48" edge="1">
          <mxGeometry relative="1" as="geometry" />
        </mxCell>
        <mxCell id="pmR28CLBr2qjQM95Hy9x-137" value="10" style="text;html=1;spacing=0;align=center;fontFamily=dialog;fontSize=12;fontStyle=0;fontColor=#000000" parent="pmR28CLBr2qjQM95Hy9x-136" vertex="1">
          <mxGeometry width="17.34765625" height="18.701171875" relative="1" as="geometry">
            <mxPoint x="16.13134765625" y="46.653076171875" as="offset" />
          </mxGeometry>
        </mxCell>
        <mxCell id="pmR28CLBr2qjQM95Hy9x-138" value="" style="graphMlID=e32;endArrow=classic;strokeColor=#000000;strokeWidth=1.0;startArrow=none;startFill=1;endFill=1;curved=1;" parent="pmR28CLBr2qjQM95Hy9x-1" source="pmR28CLBr2qjQM95Hy9x-50" target="pmR28CLBr2qjQM95Hy9x-52" edge="1">
          <mxGeometry relative="1" as="geometry">
            <Array as="points">
              <mxPoint x="171" y="147" />
            </Array>
          </mxGeometry>
        </mxCell>
        <mxCell id="pmR28CLBr2qjQM95Hy9x-139" value="1" style="text;html=1;spacing=0;align=center;fontFamily=dialog;fontSize=12;fontStyle=0;fontColor=#000000" parent="pmR28CLBr2qjQM95Hy9x-138" vertex="1">
          <mxGeometry width="10.673828125" height="18.701171875" relative="1" as="geometry">
            <mxPoint x="24.93408203125" y="47.63818359375" as="offset" />
          </mxGeometry>
        </mxCell>
        <mxCell id="pmR28CLBr2qjQM95Hy9x-140" value="" style="graphMlID=e33;rounded=0;endArrow=classic;strokeColor=#000000;strokeWidth=1.0;startArrow=none;startFill=1;endFill=1" parent="pmR28CLBr2qjQM95Hy9x-1" source="pmR28CLBr2qjQM95Hy9x-50" target="pmR28CLBr2qjQM95Hy9x-54" edge="1">
          <mxGeometry relative="1" as="geometry" />
        </mxCell>
        <mxCell id="pmR28CLBr2qjQM95Hy9x-141" value="3" style="text;html=1;spacing=0;align=center;fontFamily=dialog;fontSize=12;fontStyle=0;fontColor=#000000" parent="pmR28CLBr2qjQM95Hy9x-140" vertex="1">
          <mxGeometry width="10.673828125" height="18.701171875" relative="1" as="geometry">
            <mxPoint x="-18.67529296875" y="-24.16943359375" as="offset" />
          </mxGeometry>
        </mxCell>
        <mxCell id="pmR28CLBr2qjQM95Hy9x-144" value="" style="graphMlID=e35;rounded=0;endArrow=classic;strokeColor=#000000;strokeWidth=1.0;startArrow=none;startFill=1;endFill=1" parent="pmR28CLBr2qjQM95Hy9x-1" source="pmR28CLBr2qjQM95Hy9x-52" target="pmR28CLBr2qjQM95Hy9x-58" edge="1">
          <mxGeometry relative="1" as="geometry">
            <Array as="points">
              <mxPoint x="261.6" y="243.17000000000002" />
            </Array>
          </mxGeometry>
        </mxCell>
        <mxCell id="pmR28CLBr2qjQM95Hy9x-145" value="5" style="text;html=1;spacing=0;align=center;fontFamily=dialog;fontSize=12;fontStyle=0;fontColor=#000000" parent="pmR28CLBr2qjQM95Hy9x-144" vertex="1">
          <mxGeometry width="10.673828125" height="18.701171875" relative="1" as="geometry">
            <mxPoint x="3.316162109375" y="-18.771728515625" as="offset" />
          </mxGeometry>
        </mxCell>
        <mxCell id="pmR28CLBr2qjQM95Hy9x-146" value="" style="graphMlID=e36;rounded=0;endArrow=classic;strokeColor=#000000;strokeWidth=1.0;startArrow=none;startFill=1;endFill=1" parent="pmR28CLBr2qjQM95Hy9x-1" source="pmR28CLBr2qjQM95Hy9x-52" target="pmR28CLBr2qjQM95Hy9x-56" edge="1">
          <mxGeometry relative="1" as="geometry">
            <Array as="points">
              <mxPoint x="208.6" y="221.17000000000002" />
            </Array>
          </mxGeometry>
        </mxCell>
        <mxCell id="pmR28CLBr2qjQM95Hy9x-147" value="3" style="text;html=1;spacing=0;align=center;fontFamily=dialog;fontSize=12;fontStyle=0;fontColor=#000000" parent="pmR28CLBr2qjQM95Hy9x-146" vertex="1">
          <mxGeometry width="10.673828125" height="18.701171875" relative="1" as="geometry">
            <mxPoint x="7.333984375" y="-19.07177734375" as="offset" />
          </mxGeometry>
        </mxCell>
        <mxCell id="pmR28CLBr2qjQM95Hy9x-148" value="" style="graphMlID=e37;rounded=0;endArrow=classic;strokeColor=#000000;strokeWidth=1.0;startArrow=none;startFill=1;endFill=1" parent="pmR28CLBr2qjQM95Hy9x-1" source="pmR28CLBr2qjQM95Hy9x-54" target="pmR28CLBr2qjQM95Hy9x-52" edge="1">
          <mxGeometry relative="1" as="geometry" />
        </mxCell>
        <mxCell id="pmR28CLBr2qjQM95Hy9x-149" value="3" style="text;html=1;spacing=0;align=center;fontFamily=dialog;fontSize=12;fontStyle=0;fontColor=#000000" parent="pmR28CLBr2qjQM95Hy9x-148" vertex="1">
          <mxGeometry width="10.673828125" height="18.701171875" relative="1" as="geometry">
            <mxPoint x="-12.728759765625" y="39.64404296874998" as="offset" />
          </mxGeometry>
        </mxCell>
        <mxCell id="pmR28CLBr2qjQM95Hy9x-150" value="" style="graphMlID=e38;rounded=0;endArrow=classic;strokeColor=#000000;strokeWidth=1.0;startArrow=none;startFill=1;endFill=1" parent="pmR28CLBr2qjQM95Hy9x-1" source="pmR28CLBr2qjQM95Hy9x-54" target="pmR28CLBr2qjQM95Hy9x-58" edge="1">
          <mxGeometry relative="1" as="geometry">
            <Array as="points">
              <mxPoint x="318.6" y="156.17000000000002" />
            </Array>
          </mxGeometry>
        </mxCell>
        <mxCell id="pmR28CLBr2qjQM95Hy9x-151" value="4" style="text;html=1;spacing=0;align=center;fontFamily=dialog;fontSize=12;fontStyle=0;fontColor=#000000" parent="pmR28CLBr2qjQM95Hy9x-150" vertex="1">
          <mxGeometry width="10.673828125" height="18.701171875" relative="1" as="geometry">
            <mxPoint x="10.420099306072416" y="46.87960772316842" as="offset" />
          </mxGeometry>
        </mxCell>
        <mxCell id="pmR28CLBr2qjQM95Hy9x-152" value="" style="graphMlID=e39;rounded=0;endArrow=classic;strokeColor=#000000;strokeWidth=1.0;startArrow=none;startFill=1;endFill=1" parent="pmR28CLBr2qjQM95Hy9x-1" source="pmR28CLBr2qjQM95Hy9x-54" target="pmR28CLBr2qjQM95Hy9x-56" edge="1">
          <mxGeometry relative="1" as="geometry">
            <Array as="points">
              <mxPoint x="261.6" y="135.17000000000002" />
            </Array>
          </mxGeometry>
        </mxCell>
        <mxCell id="pmR28CLBr2qjQM95Hy9x-153" value="2" style="text;html=1;spacing=0;align=center;fontFamily=dialog;fontSize=12;fontStyle=0;fontColor=#000000" parent="pmR28CLBr2qjQM95Hy9x-152" vertex="1">
          <mxGeometry width="10.673828125" height="18.701171875" relative="1" as="geometry">
            <mxPoint x="15.7060546875" y="35.66552734375" as="offset" />
          </mxGeometry>
        </mxCell>
        <mxCell id="pmR28CLBr2qjQM95Hy9x-154" value="" style="graphMlID=e40;rounded=0;endArrow=classic;strokeColor=#000000;strokeWidth=1.0;startArrow=none;startFill=1;endFill=1" parent="pmR28CLBr2qjQM95Hy9x-1" source="pmR28CLBr2qjQM95Hy9x-56" target="pmR28CLBr2qjQM95Hy9x-52" edge="1">
          <mxGeometry relative="1" as="geometry">
            <Array as="points">
              <mxPoint x="202.6" y="211.17000000000002" />
            </Array>
          </mxGeometry>
        </mxCell>
        <mxCell id="pmR28CLBr2qjQM95Hy9x-155" value="4" style="text;html=1;spacing=0;align=center;fontFamily=dialog;fontSize=12;fontStyle=0;fontColor=#000000" parent="pmR28CLBr2qjQM95Hy9x-154" vertex="1">
          <mxGeometry width="10.673828125" height="18.701171875" relative="1" as="geometry">
            <mxPoint x="-4.9990234375" y="-7.907714843749972" as="offset" />
          </mxGeometry>
        </mxCell>
        <mxCell id="pmR28CLBr2qjQM95Hy9x-156" value="" style="graphMlID=e41;rounded=0;endArrow=classic;strokeColor=#000000;strokeWidth=1.0;startArrow=none;startFill=1;endFill=1" parent="pmR28CLBr2qjQM95Hy9x-1" source="pmR28CLBr2qjQM95Hy9x-56" target="pmR28CLBr2qjQM95Hy9x-54" edge="1">
          <mxGeometry relative="1" as="geometry">
            <Array as="points">
              <mxPoint x="252.6" y="142.17000000000002" />
            </Array>
          </mxGeometry>
        </mxCell>
        <mxCell id="pmR28CLBr2qjQM95Hy9x-157" value="1" style="text;html=1;spacing=0;align=center;fontFamily=dialog;fontSize=12;fontStyle=0;fontColor=#000000" parent="pmR28CLBr2qjQM95Hy9x-156" vertex="1">
          <mxGeometry width="10.673828125" height="18.701171875" relative="1" as="geometry">
            <mxPoint x="-26.779296875" y="-48.3447265625" as="offset" />
          </mxGeometry>
        </mxCell>
        <mxCell id="pmR28CLBr2qjQM95Hy9x-158" value="" style="graphMlID=e42;rounded=0;endArrow=classic;strokeColor=#000000;strokeWidth=1.0;startArrow=none;startFill=1;endFill=1" parent="pmR28CLBr2qjQM95Hy9x-1" source="pmR28CLBr2qjQM95Hy9x-56" target="pmR28CLBr2qjQM95Hy9x-58" edge="1">
          <mxGeometry relative="1" as="geometry">
            <Array as="points">
              <mxPoint x="311.6" y="211.17000000000002" />
            </Array>
          </mxGeometry>
        </mxCell>
        <mxCell id="pmR28CLBr2qjQM95Hy9x-159" value="2" style="text;html=1;spacing=0;align=center;fontFamily=dialog;fontSize=12;fontStyle=0;fontColor=#000000" parent="pmR28CLBr2qjQM95Hy9x-158" vertex="1">
          <mxGeometry width="10.673828125" height="18.701171875" relative="1" as="geometry">
            <mxPoint x="-20.034840429209652" y="-12.496118470135343" as="offset" />
          </mxGeometry>
        </mxCell>
        <mxCell id="pmR28CLBr2qjQM95Hy9x-160" value="" style="graphMlID=e43;rounded=0;endArrow=classic;strokeColor=#000000;strokeWidth=1.0;startArrow=none;startFill=1;endFill=1" parent="pmR28CLBr2qjQM95Hy9x-1" source="pmR28CLBr2qjQM95Hy9x-58" target="pmR28CLBr2qjQM95Hy9x-52" edge="1">
          <mxGeometry relative="1" as="geometry">
            <Array as="points">
              <mxPoint x="262.6" y="252.17000000000002" />
            </Array>
          </mxGeometry>
        </mxCell>
        <mxCell id="pmR28CLBr2qjQM95Hy9x-161" value="5" style="text;html=1;spacing=0;align=center;fontFamily=dialog;fontSize=12;fontStyle=0;fontColor=#000000" parent="pmR28CLBr2qjQM95Hy9x-160" vertex="1">
          <mxGeometry width="10.673828125" height="18.701171875" relative="1" as="geometry">
            <mxPoint x="0.97314453125" y="7.225341796875028" as="offset" />
          </mxGeometry>
        </mxCell>
        <mxCell id="pmR28CLBr2qjQM95Hy9x-162" value="" style="graphMlID=e44;rounded=0;endArrow=classic;strokeColor=#000000;strokeWidth=1.0;startArrow=none;startFill=1;endFill=1" parent="pmR28CLBr2qjQM95Hy9x-1" source="pmR28CLBr2qjQM95Hy9x-58" target="pmR28CLBr2qjQM95Hy9x-54" edge="1">
          <mxGeometry relative="1" as="geometry" />
        </mxCell>
        <mxCell id="pmR28CLBr2qjQM95Hy9x-163" value="4" style="text;html=1;spacing=0;align=center;fontFamily=dialog;fontSize=12;fontStyle=0;fontColor=#000000" parent="pmR28CLBr2qjQM95Hy9x-162" vertex="1">
          <mxGeometry width="10.673828125" height="18.701171875" relative="1" as="geometry">
            <mxPoint x="-17.565185546875" y="-72.38745117187503" as="offset" />
          </mxGeometry>
        </mxCell>
        <mxCell id="pmR28CLBr2qjQM95Hy9x-164" value="" style="graphMlID=e45;rounded=0;endArrow=classic;strokeColor=#000000;strokeWidth=1.0;startArrow=none;startFill=1;endFill=1" parent="pmR28CLBr2qjQM95Hy9x-1" source="pmR28CLBr2qjQM95Hy9x-58" target="pmR28CLBr2qjQM95Hy9x-56" edge="1">
          <mxGeometry relative="1" as="geometry" />
        </mxCell>
        <mxCell id="pmR28CLBr2qjQM95Hy9x-165" value="3" style="text;html=1;spacing=0;align=center;fontFamily=dialog;fontSize=12;fontStyle=0;fontColor=#000000" parent="pmR28CLBr2qjQM95Hy9x-164" vertex="1">
          <mxGeometry width="10.673828125" height="18.701171875" relative="1" as="geometry">
            <mxPoint x="-11.99853515625" y="-26.844482421875" as="offset" />
          </mxGeometry>
        </mxCell>
        <mxCell id="pmR28CLBr2qjQM95Hy9x-166" value="" style="graphMlID=e46;rounded=0;endArrow=none;strokeColor=#000000;strokeWidth=1.0;startArrow=none;startFill=1;endFill=1" parent="pmR28CLBr2qjQM95Hy9x-1" source="pmR28CLBr2qjQM95Hy9x-60" target="pmR28CLBr2qjQM95Hy9x-62" edge="1">
          <mxGeometry relative="1" as="geometry" />
        </mxCell>
        <mxCell id="pmR28CLBr2qjQM95Hy9x-167" value="" style="graphMlID=e47;rounded=0;endArrow=none;strokeColor=#000000;strokeWidth=1.0;startArrow=none;startFill=1;endFill=1" parent="pmR28CLBr2qjQM95Hy9x-1" source="pmR28CLBr2qjQM95Hy9x-60" target="pmR28CLBr2qjQM95Hy9x-64" edge="1">
          <mxGeometry relative="1" as="geometry" />
        </mxCell>
        <mxCell id="pmR28CLBr2qjQM95Hy9x-168" value="" style="graphMlID=e48;rounded=0;endArrow=none;strokeColor=#000000;strokeWidth=1.0;startArrow=none;startFill=1;endFill=1" parent="pmR28CLBr2qjQM95Hy9x-1" source="pmR28CLBr2qjQM95Hy9x-60" target="pmR28CLBr2qjQM95Hy9x-68" edge="1">
          <mxGeometry relative="1" as="geometry" />
        </mxCell>
        <mxCell id="pmR28CLBr2qjQM95Hy9x-169" value="" style="graphMlID=e49;rounded=0;endArrow=none;strokeColor=#000000;strokeWidth=1.0;startArrow=none;startFill=1;endFill=1" parent="pmR28CLBr2qjQM95Hy9x-1" source="pmR28CLBr2qjQM95Hy9x-60" target="pmR28CLBr2qjQM95Hy9x-66" edge="1">
          <mxGeometry relative="1" as="geometry" />
        </mxCell>
        <mxCell id="pmR28CLBr2qjQM95Hy9x-170" value="" style="graphMlID=e50;rounded=0;endArrow=none;strokeColor=#000000;strokeWidth=1.0;startArrow=none;startFill=1;endFill=1" parent="pmR28CLBr2qjQM95Hy9x-1" source="pmR28CLBr2qjQM95Hy9x-62" target="pmR28CLBr2qjQM95Hy9x-66" edge="1">
          <mxGeometry relative="1" as="geometry" />
        </mxCell>
        <mxCell id="pmR28CLBr2qjQM95Hy9x-171" value="" style="graphMlID=e51;rounded=0;endArrow=none;strokeColor=#000000;strokeWidth=1.0;startArrow=none;startFill=1;endFill=1" parent="pmR28CLBr2qjQM95Hy9x-1" source="pmR28CLBr2qjQM95Hy9x-62" target="pmR28CLBr2qjQM95Hy9x-64" edge="1">
          <mxGeometry relative="1" as="geometry" />
        </mxCell>
        <mxCell id="pmR28CLBr2qjQM95Hy9x-172" value="" style="graphMlID=e52;rounded=0;endArrow=none;strokeColor=#000000;strokeWidth=1.0;startArrow=none;startFill=1;endFill=1" parent="pmR28CLBr2qjQM95Hy9x-1" source="pmR28CLBr2qjQM95Hy9x-62" target="pmR28CLBr2qjQM95Hy9x-68" edge="1">
          <mxGeometry relative="1" as="geometry" />
        </mxCell>
        <mxCell id="pmR28CLBr2qjQM95Hy9x-173" value="" style="graphMlID=e53;rounded=0;endArrow=none;strokeColor=#000000;strokeWidth=1.0;startArrow=none;startFill=1;endFill=1" parent="pmR28CLBr2qjQM95Hy9x-1" source="pmR28CLBr2qjQM95Hy9x-64" target="pmR28CLBr2qjQM95Hy9x-66" edge="1">
          <mxGeometry relative="1" as="geometry" />
        </mxCell>
        <mxCell id="pmR28CLBr2qjQM95Hy9x-174" value="" style="graphMlID=e54;rounded=0;endArrow=none;strokeColor=#000000;strokeWidth=1.0;startArrow=none;startFill=1;endFill=1" parent="pmR28CLBr2qjQM95Hy9x-1" source="pmR28CLBr2qjQM95Hy9x-64" target="pmR28CLBr2qjQM95Hy9x-68" edge="1">
          <mxGeometry relative="1" as="geometry" />
        </mxCell>
        <mxCell id="pmR28CLBr2qjQM95Hy9x-175" value="" style="graphMlID=e55;rounded=0;endArrow=none;strokeColor=#000000;strokeWidth=1.0;startArrow=none;startFill=1;endFill=1" parent="pmR28CLBr2qjQM95Hy9x-1" source="pmR28CLBr2qjQM95Hy9x-68" target="pmR28CLBr2qjQM95Hy9x-66" edge="1">
          <mxGeometry relative="1" as="geometry" />
        </mxCell>
        <mxCell id="pmR28CLBr2qjQM95Hy9x-176" value="" style="graphMlID=e56;rounded=0;endArrow=none;strokeColor=#000000;strokeWidth=1.0;startArrow=none;startFill=1;endFill=1" parent="pmR28CLBr2qjQM95Hy9x-1" source="pmR28CLBr2qjQM95Hy9x-70" target="pmR28CLBr2qjQM95Hy9x-72" edge="1">
          <mxGeometry relative="1" as="geometry" />
        </mxCell>
        <mxCell id="pmR28CLBr2qjQM95Hy9x-177" value="" style="graphMlID=e57;rounded=0;endArrow=none;strokeColor=#000000;strokeWidth=1.0;startArrow=none;startFill=1;endFill=1" parent="pmR28CLBr2qjQM95Hy9x-1" source="pmR28CLBr2qjQM95Hy9x-70" target="pmR28CLBr2qjQM95Hy9x-76" edge="1">
          <mxGeometry relative="1" as="geometry" />
        </mxCell>
        <mxCell id="pmR28CLBr2qjQM95Hy9x-178" value="" style="graphMlID=e58;rounded=0;endArrow=none;strokeColor=#000000;strokeWidth=1.0;startArrow=none;startFill=1;endFill=1" parent="pmR28CLBr2qjQM95Hy9x-1" source="pmR28CLBr2qjQM95Hy9x-72" target="pmR28CLBr2qjQM95Hy9x-74" edge="1">
          <mxGeometry relative="1" as="geometry" />
        </mxCell>
        <mxCell id="pmR28CLBr2qjQM95Hy9x-179" value="" style="graphMlID=e59;rounded=0;endArrow=none;strokeColor=#000000;strokeWidth=1.0;startArrow=none;startFill=1;endFill=1" parent="pmR28CLBr2qjQM95Hy9x-1" source="pmR28CLBr2qjQM95Hy9x-74" target="pmR28CLBr2qjQM95Hy9x-78" edge="1">
          <mxGeometry relative="1" as="geometry" />
        </mxCell>
        <mxCell id="pmR28CLBr2qjQM95Hy9x-180" value="" style="graphMlID=e60;rounded=0;endArrow=none;strokeColor=#000000;strokeWidth=1.0;startArrow=none;startFill=1;endFill=1" parent="pmR28CLBr2qjQM95Hy9x-1" source="pmR28CLBr2qjQM95Hy9x-78" target="pmR28CLBr2qjQM95Hy9x-76" edge="1">
          <mxGeometry relative="1" as="geometry" />
        </mxCell>
        <mxCell id="pmR28CLBr2qjQM95Hy9x-181" value="" style="graphMlID=e61;rounded=0;endArrow=none;strokeColor=#000000;strokeWidth=1.0;startArrow=none;startFill=1;endFill=1" parent="pmR28CLBr2qjQM95Hy9x-1" source="pmR28CLBr2qjQM95Hy9x-80" target="pmR28CLBr2qjQM95Hy9x-82" edge="1">
          <mxGeometry relative="1" as="geometry" />
        </mxCell>
        <mxCell id="pmR28CLBr2qjQM95Hy9x-182" value="5" style="text;html=1;spacing=0;align=center;fontFamily=dialog;fontSize=12;fontStyle=0;fontColor=#000000" parent="pmR28CLBr2qjQM95Hy9x-181" vertex="1">
          <mxGeometry width="10.673828125" height="18.701171875" relative="1" as="geometry">
            <mxPoint x="-0.44107666015605673" y="-5.0456054687499545" as="offset" />
          </mxGeometry>
        </mxCell>
        <mxCell id="pmR28CLBr2qjQM95Hy9x-183" value="" style="graphMlID=e62;rounded=0;endArrow=none;strokeColor=#000000;strokeWidth=1.0;startArrow=none;startFill=1;endFill=1" parent="pmR28CLBr2qjQM95Hy9x-1" source="pmR28CLBr2qjQM95Hy9x-80" target="pmR28CLBr2qjQM95Hy9x-84" edge="1">
          <mxGeometry relative="1" as="geometry">
            <Array as="points">
              <mxPoint x="738.6000000000003" y="815.4" />
            </Array>
          </mxGeometry>
        </mxCell>
        <mxCell id="pmR28CLBr2qjQM95Hy9x-184" value="8" style="text;html=1;spacing=0;align=center;fontFamily=dialog;fontSize=12;fontStyle=0;fontColor=#000000" parent="pmR28CLBr2qjQM95Hy9x-183" vertex="1">
          <mxGeometry width="10.673828125" height="18.701171875" relative="1" as="geometry">
            <mxPoint x="-6.663061523437364" y="26.042407226562545" as="offset" />
          </mxGeometry>
        </mxCell>
        <mxCell id="pmR28CLBr2qjQM95Hy9x-185" value="" style="graphMlID=e63;rounded=0;endArrow=none;strokeColor=#000000;strokeWidth=1.0;startArrow=none;startFill=1;endFill=1" parent="pmR28CLBr2qjQM95Hy9x-1" source="pmR28CLBr2qjQM95Hy9x-82" target="pmR28CLBr2qjQM95Hy9x-88" edge="1">
          <mxGeometry relative="1" as="geometry" />
        </mxCell>
        <mxCell id="pmR28CLBr2qjQM95Hy9x-186" value="2" style="text;html=1;spacing=0;align=center;fontFamily=dialog;fontSize=12;fontStyle=0;fontColor=#000000" parent="pmR28CLBr2qjQM95Hy9x-185" vertex="1">
          <mxGeometry width="10.673828125" height="18.701171875" relative="1" as="geometry">
            <mxPoint x="-1.7410522460936022" y="-4.44561767578125" as="offset" />
          </mxGeometry>
        </mxCell>
        <mxCell id="pmR28CLBr2qjQM95Hy9x-187" value="" style="graphMlID=e64;rounded=0;endArrow=none;strokeColor=#000000;strokeWidth=1.0;startArrow=none;startFill=1;endFill=1" parent="pmR28CLBr2qjQM95Hy9x-1" source="pmR28CLBr2qjQM95Hy9x-82" target="pmR28CLBr2qjQM95Hy9x-86" edge="1">
          <mxGeometry relative="1" as="geometry" />
        </mxCell>
        <mxCell id="pmR28CLBr2qjQM95Hy9x-188" value="2" style="text;html=1;spacing=0;align=center;fontFamily=dialog;fontSize=12;fontStyle=0;fontColor=#000000" parent="pmR28CLBr2qjQM95Hy9x-187" vertex="1">
          <mxGeometry width="10.673828125" height="18.701171875" relative="1" as="geometry">
            <mxPoint x="-13.741052246093602" y="-25.855554199218773" as="offset" />
          </mxGeometry>
        </mxCell>
        <mxCell id="pmR28CLBr2qjQM95Hy9x-189" value="" style="graphMlID=e65;rounded=0;endArrow=none;strokeColor=#000000;strokeWidth=1.0;startArrow=none;startFill=1;endFill=1" parent="pmR28CLBr2qjQM95Hy9x-1" source="pmR28CLBr2qjQM95Hy9x-84" target="pmR28CLBr2qjQM95Hy9x-82" edge="1">
          <mxGeometry relative="1" as="geometry" />
        </mxCell>
        <mxCell id="pmR28CLBr2qjQM95Hy9x-190" value="1" style="text;html=1;spacing=0;align=center;fontFamily=dialog;fontSize=12;fontStyle=0;fontColor=#000000" parent="pmR28CLBr2qjQM95Hy9x-189" vertex="1">
          <mxGeometry width="10.673828125" height="18.701171875" relative="1" as="geometry">
            <mxPoint x="-2.0410766601560795" y="-20.45556640625" as="offset" />
          </mxGeometry>
        </mxCell>
        <mxCell id="pmR28CLBr2qjQM95Hy9x-191" value="" style="graphMlID=e66;rounded=0;endArrow=none;strokeColor=#000000;strokeWidth=1.0;startArrow=none;startFill=1;endFill=1" parent="pmR28CLBr2qjQM95Hy9x-1" source="pmR28CLBr2qjQM95Hy9x-84" target="pmR28CLBr2qjQM95Hy9x-88" edge="1">
          <mxGeometry relative="1" as="geometry" />
        </mxCell>
        <mxCell id="pmR28CLBr2qjQM95Hy9x-192" value="8" style="text;html=1;spacing=0;align=center;fontFamily=dialog;fontSize=12;fontStyle=0;fontColor=#000000" parent="pmR28CLBr2qjQM95Hy9x-191" vertex="1">
          <mxGeometry width="10.673828125" height="18.701171875" relative="1" as="geometry">
            <mxPoint x="-10.183325195312364" y="1.44940185546875" as="offset" />
          </mxGeometry>
        </mxCell>
      </root>
    </mxGraphModel>
  </diagram>
  <diagram id="8vj5R1AjVTkTvmCII2Ym" name="Graphentypen">
    <mxGraphModel dx="946" dy="620" grid="0" gridSize="10" guides="1" tooltips="1" connect="1" arrows="1" fold="1" page="1" pageScale="1" pageWidth="1169" pageHeight="827" math="0" shadow="0">
      <root>
        <mxCell id="-fY76AHvY-9hXBHW9XMP-0" />
        <mxCell id="-fY76AHvY-9hXBHW9XMP-1" parent="-fY76AHvY-9hXBHW9XMP-0" />
        <mxCell id="zj5_DdM8K-C8BIw5lSPL-11" style="rounded=0;orthogonalLoop=1;jettySize=auto;html=1;exitX=0.75;exitY=1;exitDx=0;exitDy=0;entryX=0.25;entryY=0;entryDx=0;entryDy=0;" edge="1" parent="-fY76AHvY-9hXBHW9XMP-1" source="ceOwpP8FL8wiNZ_F9f5m-15" target="zj5_DdM8K-C8BIw5lSPL-8">
          <mxGeometry relative="1" as="geometry" />
        </mxCell>
        <mxCell id="zj5_DdM8K-C8BIw5lSPL-13" value="" style="edgeStyle=none;rounded=0;orthogonalLoop=1;jettySize=auto;html=1;" edge="1" parent="-fY76AHvY-9hXBHW9XMP-1" source="ceOwpP8FL8wiNZ_F9f5m-15" target="zj5_DdM8K-C8BIw5lSPL-7">
          <mxGeometry relative="1" as="geometry" />
        </mxCell>
        <mxCell id="ceOwpP8FL8wiNZ_F9f5m-15" value="A" style="rounded=1;whiteSpace=wrap;html=1;" vertex="1" parent="-fY76AHvY-9hXBHW9XMP-1">
          <mxGeometry x="145" y="131" width="45" height="28" as="geometry" />
        </mxCell>
        <mxCell id="ceOwpP8FL8wiNZ_F9f5m-16" style="edgeStyle=none;curved=1;orthogonalLoop=1;jettySize=auto;html=1;exitX=0.5;exitY=1;exitDx=0;exitDy=0;endArrow=classic;endFill=1;entryX=0.25;entryY=0;entryDx=0;entryDy=0;" edge="1" parent="-fY76AHvY-9hXBHW9XMP-1" target="ceOwpP8FL8wiNZ_F9f5m-19">
          <mxGeometry relative="1" as="geometry">
            <mxPoint x="200" y="352" as="targetPoint" />
            <mxPoint x="148.5" y="322" as="sourcePoint" />
          </mxGeometry>
        </mxCell>
        <mxCell id="zj5_DdM8K-C8BIw5lSPL-9" value="" style="edgeStyle=orthogonalEdgeStyle;rounded=0;orthogonalLoop=1;jettySize=auto;html=1;" edge="1" parent="-fY76AHvY-9hXBHW9XMP-1" source="zj5_DdM8K-C8BIw5lSPL-6" target="ceOwpP8FL8wiNZ_F9f5m-15">
          <mxGeometry relative="1" as="geometry" />
        </mxCell>
        <mxCell id="zj5_DdM8K-C8BIw5lSPL-6" value="B" style="rounded=1;whiteSpace=wrap;html=1;" vertex="1" parent="-fY76AHvY-9hXBHW9XMP-1">
          <mxGeometry x="263" y="131" width="45" height="28" as="geometry" />
        </mxCell>
        <mxCell id="zj5_DdM8K-C8BIw5lSPL-7" value="C" style="rounded=1;whiteSpace=wrap;html=1;" vertex="1" parent="-fY76AHvY-9hXBHW9XMP-1">
          <mxGeometry x="145" y="223" width="45" height="28" as="geometry" />
        </mxCell>
        <mxCell id="zj5_DdM8K-C8BIw5lSPL-10" value="" style="edgeStyle=orthogonalEdgeStyle;rounded=0;orthogonalLoop=1;jettySize=auto;html=1;" edge="1" parent="-fY76AHvY-9hXBHW9XMP-1" source="zj5_DdM8K-C8BIw5lSPL-8" target="zj5_DdM8K-C8BIw5lSPL-6">
          <mxGeometry relative="1" as="geometry" />
        </mxCell>
        <mxCell id="zj5_DdM8K-C8BIw5lSPL-12" value="" style="edgeStyle=none;rounded=0;orthogonalLoop=1;jettySize=auto;html=1;" edge="1" parent="-fY76AHvY-9hXBHW9XMP-1" source="zj5_DdM8K-C8BIw5lSPL-8" target="zj5_DdM8K-C8BIw5lSPL-7">
          <mxGeometry relative="1" as="geometry" />
        </mxCell>
        <mxCell id="zj5_DdM8K-C8BIw5lSPL-8" value="D" style="rounded=1;whiteSpace=wrap;html=1;" vertex="1" parent="-fY76AHvY-9hXBHW9XMP-1">
          <mxGeometry x="263" y="223" width="45" height="28" as="geometry" />
        </mxCell>
        <mxCell id="zj5_DdM8K-C8BIw5lSPL-14" style="rounded=0;orthogonalLoop=1;jettySize=auto;html=1;exitX=0.75;exitY=1;exitDx=0;exitDy=0;entryX=0.25;entryY=0;entryDx=0;entryDy=0;endArrow=none;endFill=0;" edge="1" parent="-fY76AHvY-9hXBHW9XMP-1" source="zj5_DdM8K-C8BIw5lSPL-16" target="zj5_DdM8K-C8BIw5lSPL-22">
          <mxGeometry relative="1" as="geometry" />
        </mxCell>
        <mxCell id="zj5_DdM8K-C8BIw5lSPL-15" value="" style="edgeStyle=none;rounded=0;orthogonalLoop=1;jettySize=auto;html=1;endArrow=none;endFill=0;" edge="1" parent="-fY76AHvY-9hXBHW9XMP-1" source="zj5_DdM8K-C8BIw5lSPL-16" target="zj5_DdM8K-C8BIw5lSPL-19">
          <mxGeometry relative="1" as="geometry" />
        </mxCell>
        <mxCell id="zj5_DdM8K-C8BIw5lSPL-16" value="A" style="rounded=1;whiteSpace=wrap;html=1;" vertex="1" parent="-fY76AHvY-9hXBHW9XMP-1">
          <mxGeometry x="425" y="131" width="45" height="28" as="geometry" />
        </mxCell>
        <mxCell id="zj5_DdM8K-C8BIw5lSPL-18" value="B" style="rounded=1;whiteSpace=wrap;html=1;" vertex="1" parent="-fY76AHvY-9hXBHW9XMP-1">
          <mxGeometry x="543" y="131" width="45" height="28" as="geometry" />
        </mxCell>
        <mxCell id="zj5_DdM8K-C8BIw5lSPL-19" value="C" style="rounded=1;whiteSpace=wrap;html=1;" vertex="1" parent="-fY76AHvY-9hXBHW9XMP-1">
          <mxGeometry x="425" y="223" width="45" height="28" as="geometry" />
        </mxCell>
        <mxCell id="zj5_DdM8K-C8BIw5lSPL-21" value="" style="edgeStyle=none;rounded=0;orthogonalLoop=1;jettySize=auto;html=1;endArrow=none;endFill=0;" edge="1" parent="-fY76AHvY-9hXBHW9XMP-1" source="zj5_DdM8K-C8BIw5lSPL-22" target="zj5_DdM8K-C8BIw5lSPL-19">
          <mxGeometry relative="1" as="geometry" />
        </mxCell>
        <mxCell id="zj5_DdM8K-C8BIw5lSPL-23" value="" style="edgeStyle=none;rounded=0;orthogonalLoop=1;jettySize=auto;html=1;endArrow=none;endFill=0;" edge="1" parent="-fY76AHvY-9hXBHW9XMP-1" source="zj5_DdM8K-C8BIw5lSPL-22" target="zj5_DdM8K-C8BIw5lSPL-18">
          <mxGeometry relative="1" as="geometry" />
        </mxCell>
        <mxCell id="zj5_DdM8K-C8BIw5lSPL-22" value="D" style="rounded=1;whiteSpace=wrap;html=1;" vertex="1" parent="-fY76AHvY-9hXBHW9XMP-1">
          <mxGeometry x="543" y="223" width="45" height="28" as="geometry" />
        </mxCell>
        <mxCell id="zj5_DdM8K-C8BIw5lSPL-24" style="rounded=0;orthogonalLoop=1;jettySize=auto;html=1;exitX=0.75;exitY=1;exitDx=0;exitDy=0;entryX=0.25;entryY=0;entryDx=0;entryDy=0;endArrow=none;endFill=0;" edge="1" parent="-fY76AHvY-9hXBHW9XMP-1" source="zj5_DdM8K-C8BIw5lSPL-26" target="zj5_DdM8K-C8BIw5lSPL-31">
          <mxGeometry relative="1" as="geometry" />
        </mxCell>
        <mxCell id="zj5_DdM8K-C8BIw5lSPL-25" value="" style="edgeStyle=none;rounded=0;orthogonalLoop=1;jettySize=auto;html=1;endArrow=none;endFill=0;" edge="1" parent="-fY76AHvY-9hXBHW9XMP-1" source="zj5_DdM8K-C8BIw5lSPL-26" target="zj5_DdM8K-C8BIw5lSPL-28">
          <mxGeometry relative="1" as="geometry" />
        </mxCell>
        <mxCell id="zj5_DdM8K-C8BIw5lSPL-26" value="A" style="rounded=1;whiteSpace=wrap;html=1;" vertex="1" parent="-fY76AHvY-9hXBHW9XMP-1">
          <mxGeometry x="425" y="298" width="45" height="28" as="geometry" />
        </mxCell>
        <mxCell id="zj5_DdM8K-C8BIw5lSPL-27" value="B" style="rounded=1;whiteSpace=wrap;html=1;" vertex="1" parent="-fY76AHvY-9hXBHW9XMP-1">
          <mxGeometry x="543" y="298" width="45" height="28" as="geometry" />
        </mxCell>
        <mxCell id="zj5_DdM8K-C8BIw5lSPL-28" value="C" style="rounded=1;whiteSpace=wrap;html=1;" vertex="1" parent="-fY76AHvY-9hXBHW9XMP-1">
          <mxGeometry x="425" y="390" width="45" height="28" as="geometry" />
        </mxCell>
        <mxCell id="zj5_DdM8K-C8BIw5lSPL-29" value="" style="edgeStyle=none;rounded=0;orthogonalLoop=1;jettySize=auto;html=1;endArrow=none;endFill=0;" edge="1" parent="-fY76AHvY-9hXBHW9XMP-1" source="zj5_DdM8K-C8BIw5lSPL-31" target="zj5_DdM8K-C8BIw5lSPL-28">
          <mxGeometry relative="1" as="geometry" />
        </mxCell>
        <mxCell id="zj5_DdM8K-C8BIw5lSPL-31" value="D" style="rounded=1;whiteSpace=wrap;html=1;" vertex="1" parent="-fY76AHvY-9hXBHW9XMP-1">
          <mxGeometry x="543" y="390" width="45" height="28" as="geometry" />
        </mxCell>
        <mxCell id="zj5_DdM8K-C8BIw5lSPL-32" style="rounded=0;orthogonalLoop=1;jettySize=auto;html=1;exitX=0.75;exitY=1;exitDx=0;exitDy=0;entryX=0.25;entryY=0;entryDx=0;entryDy=0;" edge="1" parent="-fY76AHvY-9hXBHW9XMP-1" source="zj5_DdM8K-C8BIw5lSPL-34" target="zj5_DdM8K-C8BIw5lSPL-40">
          <mxGeometry relative="1" as="geometry" />
        </mxCell>
        <mxCell id="zj5_DdM8K-C8BIw5lSPL-33" value="" style="edgeStyle=none;rounded=0;orthogonalLoop=1;jettySize=auto;html=1;" edge="1" parent="-fY76AHvY-9hXBHW9XMP-1" source="zj5_DdM8K-C8BIw5lSPL-34" target="zj5_DdM8K-C8BIw5lSPL-37">
          <mxGeometry relative="1" as="geometry" />
        </mxCell>
        <mxCell id="zj5_DdM8K-C8BIw5lSPL-34" value="A" style="rounded=1;whiteSpace=wrap;html=1;" vertex="1" parent="-fY76AHvY-9hXBHW9XMP-1">
          <mxGeometry x="145" y="302" width="45" height="28" as="geometry" />
        </mxCell>
        <mxCell id="zj5_DdM8K-C8BIw5lSPL-35" value="" style="edgeStyle=orthogonalEdgeStyle;rounded=0;orthogonalLoop=1;jettySize=auto;html=1;" edge="1" parent="-fY76AHvY-9hXBHW9XMP-1" source="zj5_DdM8K-C8BIw5lSPL-36" target="zj5_DdM8K-C8BIw5lSPL-34">
          <mxGeometry relative="1" as="geometry" />
        </mxCell>
        <mxCell id="zj5_DdM8K-C8BIw5lSPL-36" value="B" style="rounded=1;whiteSpace=wrap;html=1;" vertex="1" parent="-fY76AHvY-9hXBHW9XMP-1">
          <mxGeometry x="263" y="302" width="45" height="28" as="geometry" />
        </mxCell>
        <mxCell id="zj5_DdM8K-C8BIw5lSPL-41" style="edgeStyle=none;rounded=0;orthogonalLoop=1;jettySize=auto;html=1;exitX=1;exitY=0;exitDx=0;exitDy=0;entryX=0;entryY=1;entryDx=0;entryDy=0;endArrow=classic;endFill=1;" edge="1" parent="-fY76AHvY-9hXBHW9XMP-1" source="zj5_DdM8K-C8BIw5lSPL-37" target="zj5_DdM8K-C8BIw5lSPL-36">
          <mxGeometry relative="1" as="geometry" />
        </mxCell>
        <mxCell id="zj5_DdM8K-C8BIw5lSPL-37" value="C" style="rounded=1;whiteSpace=wrap;html=1;" vertex="1" parent="-fY76AHvY-9hXBHW9XMP-1">
          <mxGeometry x="145" y="394" width="45" height="28" as="geometry" />
        </mxCell>
        <mxCell id="zj5_DdM8K-C8BIw5lSPL-38" value="" style="edgeStyle=orthogonalEdgeStyle;rounded=0;orthogonalLoop=1;jettySize=auto;html=1;" edge="1" parent="-fY76AHvY-9hXBHW9XMP-1" source="zj5_DdM8K-C8BIw5lSPL-40" target="zj5_DdM8K-C8BIw5lSPL-36">
          <mxGeometry relative="1" as="geometry" />
        </mxCell>
        <mxCell id="zj5_DdM8K-C8BIw5lSPL-39" value="" style="edgeStyle=none;rounded=0;orthogonalLoop=1;jettySize=auto;html=1;" edge="1" parent="-fY76AHvY-9hXBHW9XMP-1" source="zj5_DdM8K-C8BIw5lSPL-40" target="zj5_DdM8K-C8BIw5lSPL-37">
          <mxGeometry relative="1" as="geometry" />
        </mxCell>
        <mxCell id="zj5_DdM8K-C8BIw5lSPL-40" value="D" style="rounded=1;whiteSpace=wrap;html=1;" vertex="1" parent="-fY76AHvY-9hXBHW9XMP-1">
          <mxGeometry x="263" y="394" width="45" height="28" as="geometry" />
        </mxCell>
      </root>
    </mxGraphModel>
  </diagram>
  <diagram id="4PYrOVTUwDhqboKEonbE" name="Adjazenzmatrix">
    <mxGraphModel dx="946" dy="620" grid="0" gridSize="10" guides="1" tooltips="1" connect="1" arrows="1" fold="1" page="1" pageScale="1" pageWidth="1169" pageHeight="827" math="0" shadow="0">
      <root>
        <mxCell id="fHFe6Do7vVLk4FmKXfxD-0" />
        <mxCell id="fHFe6Do7vVLk4FmKXfxD-1" parent="fHFe6Do7vVLk4FmKXfxD-0" />
      </root>
    </mxGraphModel>
  </diagram>
  <diagram id="j_04wb3OtZyefm5mgNjl" name="Page-3">
    <mxGraphModel dx="946" dy="620" grid="0" gridSize="10" guides="1" tooltips="1" connect="1" arrows="1" fold="1" page="1" pageScale="1" pageWidth="1169" pageHeight="827" math="0" shadow="0">
      <root>
        <mxCell id="5UMRifYAmH4T5DWQ1Kad-0" />
        <mxCell id="5UMRifYAmH4T5DWQ1Kad-1" parent="5UMRifYAmH4T5DWQ1Kad-0" />
        <mxCell id="5UMRifYAmH4T5DWQ1Kad-2" style="graphMlID=n0;shape=rect;rounded=1;arcsize=30;fillColor=#ffffff;strokeColor=#000000;strokeWidth=1.0" parent="5UMRifYAmH4T5DWQ1Kad-1" vertex="1">
          <mxGeometry x="611" y="449" width="117" height="38" as="geometry" />
        </mxCell>
        <mxCell id="5UMRifYAmH4T5DWQ1Kad-3" style="graphMlID=n1;shape=rect;rounded=1;arcsize=30;fillColor=#ffffff;strokeColor=#000000;strokeWidth=1.0" parent="5UMRifYAmH4T5DWQ1Kad-1" vertex="1">
          <mxGeometry x="617" y="148" width="154" height="38" as="geometry" />
        </mxCell>
        <mxCell id="5UMRifYAmH4T5DWQ1Kad-4" style="graphMlID=n2;shape=rect;rounded=1;arcsize=30;fillColor=#ffffff;strokeColor=#000000;strokeWidth=1.0" parent="5UMRifYAmH4T5DWQ1Kad-1" vertex="1">
          <mxGeometry x="526" y="144" width="43" height="236" as="geometry" />
        </mxCell>
        <mxCell id="5UMRifYAmH4T5DWQ1Kad-5" style="graphMlID=n3;shape=rect;rounded=1;arcsize=30;fillColor=#ffffff;strokeColor=#000000;strokeWidth=1.0" parent="5UMRifYAmH4T5DWQ1Kad-1" vertex="1">
          <mxGeometry x="283" y="178" width="30" height="30" as="geometry" />
        </mxCell>
        <mxCell id="5UMRifYAmH4T5DWQ1Kad-6" value="A" style="text;html=1;spacing=0;align=center;fontFamily=dialog;fontSize=12;fontStyle=0;fontColor=#000000" parent="5UMRifYAmH4T5DWQ1Kad-5" vertex="1">
          <mxGeometry x="8.998046875" y="5.6494140625" width="12.00390625" height="18.701171875" as="geometry" />
        </mxCell>
        <mxCell id="5UMRifYAmH4T5DWQ1Kad-7" style="graphMlID=n4;shape=rect;rounded=1;arcsize=30;fillColor=#ffffff;strokeColor=#000000;strokeWidth=1.0" parent="5UMRifYAmH4T5DWQ1Kad-1" vertex="1">
          <mxGeometry x="223" y="247" width="30" height="30" as="geometry" />
        </mxCell>
        <mxCell id="5UMRifYAmH4T5DWQ1Kad-8" value="B" style="text;html=1;spacing=0;align=center;fontFamily=dialog;fontSize=12;fontStyle=0;fontColor=#000000" parent="5UMRifYAmH4T5DWQ1Kad-7" vertex="1">
          <mxGeometry x="8.998046875" y="5.6494140625" width="12.00390625" height="18.701171875" as="geometry" />
        </mxCell>
        <mxCell id="5UMRifYAmH4T5DWQ1Kad-9" style="graphMlID=n5;shape=rect;rounded=1;arcsize=30;fillColor=#ffffff;strokeColor=#000000;strokeWidth=1.0" parent="5UMRifYAmH4T5DWQ1Kad-1" vertex="1">
          <mxGeometry x="343" y="247" width="30" height="30" as="geometry" />
        </mxCell>
        <mxCell id="5UMRifYAmH4T5DWQ1Kad-10" value="E" style="text;html=1;spacing=0;align=center;fontFamily=dialog;fontSize=12;fontStyle=0;fontColor=#000000" parent="5UMRifYAmH4T5DWQ1Kad-9" vertex="1">
          <mxGeometry x="8.998046875" y="5.6494140625" width="12.00390625" height="18.701171875" as="geometry" />
        </mxCell>
        <mxCell id="5UMRifYAmH4T5DWQ1Kad-11" style="graphMlID=n6;shape=rect;rounded=1;arcsize=30;fillColor=#ffffff;strokeColor=#000000;strokeWidth=1.0" parent="5UMRifYAmH4T5DWQ1Kad-1" vertex="1">
          <mxGeometry x="283" y="322" width="30" height="30" as="geometry" />
        </mxCell>
        <mxCell id="5UMRifYAmH4T5DWQ1Kad-12" value="C" style="text;html=1;spacing=0;align=center;fontFamily=dialog;fontSize=12;fontStyle=0;fontColor=#000000" parent="5UMRifYAmH4T5DWQ1Kad-11" vertex="1">
          <mxGeometry x="8.6669921875" y="5.6494140625" width="12.666015625" height="18.701171875" as="geometry" />
        </mxCell>
        <mxCell id="5UMRifYAmH4T5DWQ1Kad-13" style="graphMlID=n7;shape=rect;rounded=1;arcsize=30;fillColor=#ffffff;strokeColor=#000000;strokeWidth=1.0" parent="5UMRifYAmH4T5DWQ1Kad-1" vertex="1">
          <mxGeometry x="363" y="322" width="30" height="30" as="geometry" />
        </mxCell>
        <mxCell id="5UMRifYAmH4T5DWQ1Kad-14" value="D" style="text;html=1;spacing=0;align=center;fontFamily=dialog;fontSize=12;fontStyle=0;fontColor=#000000" parent="5UMRifYAmH4T5DWQ1Kad-13" vertex="1">
          <mxGeometry x="8.6669921875" y="5.6494140625" width="12.666015625" height="18.701171875" as="geometry" />
        </mxCell>
        <mxCell id="5UMRifYAmH4T5DWQ1Kad-15" style="graphMlID=n8;shape=rect;rounded=1;arcsize=30;fillColor=#ffffff;strokeColor=#000000;strokeWidth=1.0" parent="5UMRifYAmH4T5DWQ1Kad-1" vertex="1">
          <mxGeometry x="392" y="197" width="30" height="30" as="geometry" />
        </mxCell>
        <mxCell id="5UMRifYAmH4T5DWQ1Kad-16" value="F" style="text;html=1;spacing=0;align=center;fontFamily=dialog;fontSize=12;fontStyle=0;fontColor=#000000" parent="5UMRifYAmH4T5DWQ1Kad-15" vertex="1">
          <mxGeometry x="9.3349609375" y="5.6494140625" width="11.330078125" height="18.701171875" as="geometry" />
        </mxCell>
        <mxCell id="5UMRifYAmH4T5DWQ1Kad-17" style="graphMlID=n9;shape=rect;rounded=1;arcsize=30;fillColor=#ffffff;strokeColor=#000000;strokeWidth=1.0" parent="5UMRifYAmH4T5DWQ1Kad-1" vertex="1">
          <mxGeometry x="533" y="152" width="30" height="30" as="geometry" />
        </mxCell>
        <mxCell id="5UMRifYAmH4T5DWQ1Kad-18" value="A" style="text;html=1;spacing=0;align=center;fontFamily=dialog;fontSize=12;fontStyle=0;fontColor=#000000" parent="5UMRifYAmH4T5DWQ1Kad-17" vertex="1">
          <mxGeometry x="8.998046875" y="5.6494140625" width="12.00390625" height="18.701171875" as="geometry" />
        </mxCell>
        <mxCell id="5UMRifYAmH4T5DWQ1Kad-19" style="graphMlID=n10;shape=rect;rounded=1;arcsize=30;fillColor=#0000ff;strokeColor=#000000;strokeWidth=1.0" parent="5UMRifYAmH4T5DWQ1Kad-1" vertex="1">
          <mxGeometry x="533" y="190" width="30" height="30" as="geometry" />
        </mxCell>
        <mxCell id="5UMRifYAmH4T5DWQ1Kad-20" value="B" style="text;html=1;spacing=0;align=center;fontFamily=dialog;fontSize=12;fontStyle=0;fontColor=#ffffff" parent="5UMRifYAmH4T5DWQ1Kad-19" vertex="1">
          <mxGeometry x="8.998046875" y="5.6494140625" width="12.00390625" height="18.701171875" as="geometry" />
        </mxCell>
        <mxCell id="5UMRifYAmH4T5DWQ1Kad-21" style="graphMlID=n11;shape=rect;rounded=1;arcsize=30;fillColor=#ffffff;strokeColor=#000000;strokeWidth=1.0" parent="5UMRifYAmH4T5DWQ1Kad-1" vertex="1">
          <mxGeometry x="533" y="228" width="30" height="30" as="geometry" />
        </mxCell>
        <mxCell id="5UMRifYAmH4T5DWQ1Kad-22" value="C" style="text;html=1;spacing=0;align=center;fontFamily=dialog;fontSize=12;fontStyle=0;fontColor=#000000" parent="5UMRifYAmH4T5DWQ1Kad-21" vertex="1">
          <mxGeometry x="8.6669921875" y="5.6494140625" width="12.666015625" height="18.701171875" as="geometry" />
        </mxCell>
        <mxCell id="5UMRifYAmH4T5DWQ1Kad-23" style="graphMlID=n12;shape=rect;rounded=1;arcsize=30;fillColor=#ffffff;strokeColor=#000000;strokeWidth=1.0" parent="5UMRifYAmH4T5DWQ1Kad-1" vertex="1">
          <mxGeometry x="533" y="266" width="30" height="30" as="geometry" />
        </mxCell>
        <mxCell id="5UMRifYAmH4T5DWQ1Kad-24" value="D" style="text;html=1;spacing=0;align=center;fontFamily=dialog;fontSize=12;fontStyle=0;fontColor=#000000" parent="5UMRifYAmH4T5DWQ1Kad-23" vertex="1">
          <mxGeometry x="8.6669921875" y="5.6494140625" width="12.666015625" height="18.701171875" as="geometry" />
        </mxCell>
        <mxCell id="5UMRifYAmH4T5DWQ1Kad-25" style="graphMlID=n13;shape=rect;rounded=1;arcsize=30;fillColor=#ffffff;strokeColor=#000000;strokeWidth=1.0" parent="5UMRifYAmH4T5DWQ1Kad-1" vertex="1">
          <mxGeometry x="533" y="304" width="30" height="30" as="geometry" />
        </mxCell>
        <mxCell id="5UMRifYAmH4T5DWQ1Kad-26" value="E" style="text;html=1;spacing=0;align=center;fontFamily=dialog;fontSize=12;fontStyle=0;fontColor=#000000" parent="5UMRifYAmH4T5DWQ1Kad-25" vertex="1">
          <mxGeometry x="8.998046875" y="5.6494140625" width="12.00390625" height="18.701171875" as="geometry" />
        </mxCell>
        <mxCell id="5UMRifYAmH4T5DWQ1Kad-27" style="graphMlID=n14;shape=rect;rounded=1;arcsize=30;fillColor=#ffffff;strokeColor=#000000;strokeWidth=1.0" parent="5UMRifYAmH4T5DWQ1Kad-1" vertex="1">
          <mxGeometry x="533" y="342" width="30" height="30" as="geometry" />
        </mxCell>
        <mxCell id="5UMRifYAmH4T5DWQ1Kad-28" value="F" style="text;html=1;spacing=0;align=center;fontFamily=dialog;fontSize=12;fontStyle=0;fontColor=#000000" parent="5UMRifYAmH4T5DWQ1Kad-27" vertex="1">
          <mxGeometry x="9.3349609375" y="5.6494140625" width="11.330078125" height="18.701171875" as="geometry" />
        </mxCell>
        <mxCell id="5UMRifYAmH4T5DWQ1Kad-29" style="graphMlID=n15;shape=rect;rounded=1;arcsize=30;fillColor=#ffffff;strokeColor=#000000;strokeWidth=1.0" parent="5UMRifYAmH4T5DWQ1Kad-1" vertex="1">
          <mxGeometry x="624" y="152" width="30" height="30" as="geometry" />
        </mxCell>
        <mxCell id="5UMRifYAmH4T5DWQ1Kad-30" value="A" style="text;html=1;spacing=0;align=center;fontFamily=dialog;fontSize=12;fontStyle=0;fontColor=#000000" parent="5UMRifYAmH4T5DWQ1Kad-29" vertex="1">
          <mxGeometry x="8.998046875" y="5.6494140625" width="12.00390625" height="18.701171875" as="geometry" />
        </mxCell>
        <mxCell id="5UMRifYAmH4T5DWQ1Kad-31" style="graphMlID=n16;shape=rect;rounded=1;arcsize=30;fillColor=#ffffff;strokeColor=#000000;strokeWidth=1.0" parent="5UMRifYAmH4T5DWQ1Kad-1" vertex="1">
          <mxGeometry x="661" y="152" width="30" height="30" as="geometry" />
        </mxCell>
        <mxCell id="5UMRifYAmH4T5DWQ1Kad-32" value="B" style="text;html=1;spacing=0;align=center;fontFamily=dialog;fontSize=12;fontStyle=0;fontColor=#000000" parent="5UMRifYAmH4T5DWQ1Kad-31" vertex="1">
          <mxGeometry x="8.998046875" y="5.6494140625" width="12.00390625" height="18.701171875" as="geometry" />
        </mxCell>
        <mxCell id="5UMRifYAmH4T5DWQ1Kad-33" style="graphMlID=n17;shape=rect;rounded=1;arcsize=30;fillColor=#ffffff;strokeColor=#000000;strokeWidth=1.0" parent="5UMRifYAmH4T5DWQ1Kad-1" vertex="1">
          <mxGeometry x="698" y="152" width="30" height="30" as="geometry" />
        </mxCell>
        <mxCell id="5UMRifYAmH4T5DWQ1Kad-34" value="C" style="text;html=1;spacing=0;align=center;fontFamily=dialog;fontSize=12;fontStyle=0;fontColor=#000000" parent="5UMRifYAmH4T5DWQ1Kad-33" vertex="1">
          <mxGeometry x="8.6669921875" y="5.6494140625" width="12.666015625" height="18.701171875" as="geometry" />
        </mxCell>
        <mxCell id="5UMRifYAmH4T5DWQ1Kad-35" style="graphMlID=n18;shape=rect;rounded=1;arcsize=30;fillColor=#ffffff;strokeColor=#000000;strokeWidth=1.0" parent="5UMRifYAmH4T5DWQ1Kad-1" vertex="1">
          <mxGeometry x="735" y="152" width="30" height="30" as="geometry" />
        </mxCell>
        <mxCell id="5UMRifYAmH4T5DWQ1Kad-36" value="E" style="text;html=1;spacing=0;align=center;fontFamily=dialog;fontSize=12;fontStyle=0;fontColor=#000000" parent="5UMRifYAmH4T5DWQ1Kad-35" vertex="1">
          <mxGeometry x="8.998046875" y="5.6494140625" width="12.00390625" height="18.701171875" as="geometry" />
        </mxCell>
        <mxCell id="5UMRifYAmH4T5DWQ1Kad-37" style="graphMlID=n19;shape=rect;rounded=1;arcsize=30;fillColor=#ffffff;strokeColor=#000000;strokeWidth=1.0" parent="5UMRifYAmH4T5DWQ1Kad-1" vertex="1">
          <mxGeometry x="617" y="186" width="82" height="38" as="geometry" />
        </mxCell>
        <mxCell id="5UMRifYAmH4T5DWQ1Kad-38" style="graphMlID=n20;shape=rect;rounded=1;arcsize=30;fillColor=#ffffff;strokeColor=#000000;strokeWidth=1.0" parent="5UMRifYAmH4T5DWQ1Kad-1" vertex="1">
          <mxGeometry x="624" y="190" width="30" height="30" as="geometry" />
        </mxCell>
        <mxCell id="5UMRifYAmH4T5DWQ1Kad-39" value="A" style="text;html=1;spacing=0;align=center;fontFamily=dialog;fontSize=12;fontStyle=0;fontColor=#000000" parent="5UMRifYAmH4T5DWQ1Kad-38" vertex="1">
          <mxGeometry x="8.998046875" y="5.6494140625" width="12.00390625" height="18.701171875" as="geometry" />
        </mxCell>
        <mxCell id="5UMRifYAmH4T5DWQ1Kad-40" style="graphMlID=n21;shape=rect;rounded=1;arcsize=30;fillColor=#0000ff;strokeColor=#000000;strokeWidth=1.0" parent="5UMRifYAmH4T5DWQ1Kad-1" vertex="1">
          <mxGeometry x="661" y="190" width="30" height="30" as="geometry" />
        </mxCell>
        <mxCell id="5UMRifYAmH4T5DWQ1Kad-41" value="C" style="text;html=1;spacing=0;align=center;fontFamily=dialog;fontSize=12;fontStyle=0;fontColor=#ffffff" parent="5UMRifYAmH4T5DWQ1Kad-40" vertex="1">
          <mxGeometry x="8.6669921875" y="5.6494140625" width="12.666015625" height="18.701171875" as="geometry" />
        </mxCell>
        <mxCell id="5UMRifYAmH4T5DWQ1Kad-42" style="graphMlID=n22;shape=rect;rounded=1;arcsize=30;fillColor=#ffffff;strokeColor=#000000;strokeWidth=1.0" parent="5UMRifYAmH4T5DWQ1Kad-1" vertex="1">
          <mxGeometry x="617" y="224" width="43" height="38" as="geometry" />
        </mxCell>
        <mxCell id="5UMRifYAmH4T5DWQ1Kad-43" style="graphMlID=n23;shape=rect;rounded=1;arcsize=30;fillColor=#ffffff;strokeColor=#000000;strokeWidth=1.0" parent="5UMRifYAmH4T5DWQ1Kad-1" vertex="1">
          <mxGeometry x="624" y="228" width="30" height="30" as="geometry" />
        </mxCell>
        <mxCell id="5UMRifYAmH4T5DWQ1Kad-44" value="D" style="text;html=1;spacing=0;align=center;fontFamily=dialog;fontSize=12;fontStyle=0;fontColor=#000000" parent="5UMRifYAmH4T5DWQ1Kad-43" vertex="1">
          <mxGeometry x="8.6669921875" y="5.6494140625" width="12.666015625" height="18.701171875" as="geometry" />
        </mxCell>
        <mxCell id="5UMRifYAmH4T5DWQ1Kad-45" style="graphMlID=n24;shape=rect;rounded=1;arcsize=30;fillColor=#ffffff;strokeColor=#000000;strokeWidth=1.0" parent="5UMRifYAmH4T5DWQ1Kad-1" vertex="1">
          <mxGeometry x="616.5" y="262" width="43" height="38" as="geometry" />
        </mxCell>
        <mxCell id="5UMRifYAmH4T5DWQ1Kad-46" style="graphMlID=n25;shape=rect;rounded=1;arcsize=30;fillColor=#ffffff;strokeColor=#000000;strokeWidth=1.0" parent="5UMRifYAmH4T5DWQ1Kad-1" vertex="1">
          <mxGeometry x="616.5" y="300" width="43" height="38" as="geometry" />
        </mxCell>
        <mxCell id="5UMRifYAmH4T5DWQ1Kad-47" style="graphMlID=n26;shape=rect;rounded=1;arcsize=30;fillColor=#ffffff;strokeColor=#000000;strokeWidth=1.0" parent="5UMRifYAmH4T5DWQ1Kad-1" vertex="1">
          <mxGeometry x="623.5" y="304" width="30" height="30" as="geometry" />
        </mxCell>
        <mxCell id="5UMRifYAmH4T5DWQ1Kad-48" value="C" style="text;html=1;spacing=0;align=center;fontFamily=dialog;fontSize=12;fontStyle=0;fontColor=#000000" parent="5UMRifYAmH4T5DWQ1Kad-47" vertex="1">
          <mxGeometry x="8.6669921875" y="5.6494140625" width="12.666015625" height="18.701171875" as="geometry" />
        </mxCell>
        <mxCell id="5UMRifYAmH4T5DWQ1Kad-49" style="graphMlID=n27;shape=rect;rounded=1;arcsize=30;fillColor=#ffffff;strokeColor=#000000;strokeWidth=1.0" parent="5UMRifYAmH4T5DWQ1Kad-1" vertex="1">
          <mxGeometry x="616" y="338" width="43" height="38" as="geometry" />
        </mxCell>
        <mxCell id="5UMRifYAmH4T5DWQ1Kad-50" style="graphMlID=n28;shape=rect;rounded=1;arcsize=30;fillColor=#ffffff;strokeColor=#000000;strokeWidth=1.0" parent="5UMRifYAmH4T5DWQ1Kad-1" vertex="1">
          <mxGeometry x="623" y="342" width="30" height="30" as="geometry" />
        </mxCell>
        <mxCell id="5UMRifYAmH4T5DWQ1Kad-51" value="E" style="text;html=1;spacing=0;align=center;fontFamily=dialog;fontSize=12;fontStyle=0;fontColor=#000000" parent="5UMRifYAmH4T5DWQ1Kad-50" vertex="1">
          <mxGeometry x="8.998046875" y="5.6494140625" width="12.00390625" height="18.701171875" as="geometry" />
        </mxCell>
        <mxCell id="5UMRifYAmH4T5DWQ1Kad-52" style="graphMlID=n29;shape=rect;rounded=1;arcsize=30;fillColor=#ffffff;strokeColor=#000000;strokeWidth=1.0" parent="5UMRifYAmH4T5DWQ1Kad-1" vertex="1">
          <mxGeometry x="520" y="445" width="43" height="236" as="geometry" />
        </mxCell>
        <mxCell id="5UMRifYAmH4T5DWQ1Kad-53" style="graphMlID=n30;shape=rect;rounded=1;arcsize=30;fillColor=#ffffff;strokeColor=#000000;strokeWidth=1.0" parent="5UMRifYAmH4T5DWQ1Kad-1" vertex="1">
          <mxGeometry x="277" y="479" width="30" height="30" as="geometry" />
        </mxCell>
        <mxCell id="5UMRifYAmH4T5DWQ1Kad-54" value="A" style="text;html=1;spacing=0;align=center;fontFamily=dialog;fontSize=12;fontStyle=0;fontColor=#000000" parent="5UMRifYAmH4T5DWQ1Kad-53" vertex="1">
          <mxGeometry x="8.998046875" y="5.6494140625" width="12.00390625" height="18.701171875" as="geometry" />
        </mxCell>
        <mxCell id="5UMRifYAmH4T5DWQ1Kad-55" style="graphMlID=n31;shape=rect;rounded=1;arcsize=30;fillColor=#ffffff;strokeColor=#000000;strokeWidth=1.0" parent="5UMRifYAmH4T5DWQ1Kad-1" vertex="1">
          <mxGeometry x="217" y="548" width="30" height="30" as="geometry" />
        </mxCell>
        <mxCell id="5UMRifYAmH4T5DWQ1Kad-56" value="B" style="text;html=1;spacing=0;align=center;fontFamily=dialog;fontSize=12;fontStyle=0;fontColor=#000000" parent="5UMRifYAmH4T5DWQ1Kad-55" vertex="1">
          <mxGeometry x="8.998046875" y="5.6494140625" width="12.00390625" height="18.701171875" as="geometry" />
        </mxCell>
        <mxCell id="5UMRifYAmH4T5DWQ1Kad-57" style="graphMlID=n32;shape=rect;rounded=1;arcsize=30;fillColor=#ffffff;strokeColor=#000000;strokeWidth=1.0" parent="5UMRifYAmH4T5DWQ1Kad-1" vertex="1">
          <mxGeometry x="337" y="548" width="30" height="30" as="geometry" />
        </mxCell>
        <mxCell id="5UMRifYAmH4T5DWQ1Kad-58" value="E" style="text;html=1;spacing=0;align=center;fontFamily=dialog;fontSize=12;fontStyle=0;fontColor=#000000" parent="5UMRifYAmH4T5DWQ1Kad-57" vertex="1">
          <mxGeometry x="8.998046875" y="5.6494140625" width="12.00390625" height="18.701171875" as="geometry" />
        </mxCell>
        <mxCell id="5UMRifYAmH4T5DWQ1Kad-59" style="graphMlID=n33;shape=rect;rounded=1;arcsize=30;fillColor=#ffffff;strokeColor=#000000;strokeWidth=1.0" parent="5UMRifYAmH4T5DWQ1Kad-1" vertex="1">
          <mxGeometry x="277" y="623" width="30" height="30" as="geometry" />
        </mxCell>
        <mxCell id="5UMRifYAmH4T5DWQ1Kad-60" value="C" style="text;html=1;spacing=0;align=center;fontFamily=dialog;fontSize=12;fontStyle=0;fontColor=#000000" parent="5UMRifYAmH4T5DWQ1Kad-59" vertex="1">
          <mxGeometry x="8.6669921875" y="5.6494140625" width="12.666015625" height="18.701171875" as="geometry" />
        </mxCell>
        <mxCell id="5UMRifYAmH4T5DWQ1Kad-61" style="graphMlID=n34;shape=rect;rounded=1;arcsize=30;fillColor=#ffffff;strokeColor=#000000;strokeWidth=1.0" parent="5UMRifYAmH4T5DWQ1Kad-1" vertex="1">
          <mxGeometry x="357" y="623" width="30" height="30" as="geometry" />
        </mxCell>
        <mxCell id="5UMRifYAmH4T5DWQ1Kad-62" value="D" style="text;html=1;spacing=0;align=center;fontFamily=dialog;fontSize=12;fontStyle=0;fontColor=#000000" parent="5UMRifYAmH4T5DWQ1Kad-61" vertex="1">
          <mxGeometry x="8.6669921875" y="5.6494140625" width="12.666015625" height="18.701171875" as="geometry" />
        </mxCell>
        <mxCell id="5UMRifYAmH4T5DWQ1Kad-63" style="graphMlID=n35;shape=rect;rounded=1;arcsize=30;fillColor=#ffffff;strokeColor=#000000;strokeWidth=1.0" parent="5UMRifYAmH4T5DWQ1Kad-1" vertex="1">
          <mxGeometry x="386" y="498" width="30" height="30" as="geometry" />
        </mxCell>
        <mxCell id="5UMRifYAmH4T5DWQ1Kad-64" value="F" style="text;html=1;spacing=0;align=center;fontFamily=dialog;fontSize=12;fontStyle=0;fontColor=#000000" parent="5UMRifYAmH4T5DWQ1Kad-63" vertex="1">
          <mxGeometry x="9.3349609375" y="5.6494140625" width="11.330078125" height="18.701171875" as="geometry" />
        </mxCell>
        <mxCell id="5UMRifYAmH4T5DWQ1Kad-65" style="graphMlID=n36;shape=rect;rounded=1;arcsize=30;fillColor=#ffffff;strokeColor=#000000;strokeWidth=1.0" parent="5UMRifYAmH4T5DWQ1Kad-1" vertex="1">
          <mxGeometry x="527" y="453" width="30" height="30" as="geometry" />
        </mxCell>
        <mxCell id="5UMRifYAmH4T5DWQ1Kad-66" value="A" style="text;html=1;spacing=0;align=center;fontFamily=dialog;fontSize=12;fontStyle=0;fontColor=#000000" parent="5UMRifYAmH4T5DWQ1Kad-65" vertex="1">
          <mxGeometry x="8.998046875" y="5.6494140625" width="12.00390625" height="18.701171875" as="geometry" />
        </mxCell>
        <mxCell id="5UMRifYAmH4T5DWQ1Kad-67" style="graphMlID=n37;shape=rect;rounded=1;arcsize=30;fillColor=#0000ff;strokeColor=#000000;strokeWidth=1.0" parent="5UMRifYAmH4T5DWQ1Kad-1" vertex="1">
          <mxGeometry x="527" y="491" width="30" height="30" as="geometry" />
        </mxCell>
        <mxCell id="5UMRifYAmH4T5DWQ1Kad-68" value="B" style="text;html=1;spacing=0;align=center;fontFamily=dialog;fontSize=12;fontStyle=0;fontColor=#ffffff" parent="5UMRifYAmH4T5DWQ1Kad-67" vertex="1">
          <mxGeometry x="8.998046875" y="5.6494140625" width="12.00390625" height="18.701171875" as="geometry" />
        </mxCell>
        <mxCell id="5UMRifYAmH4T5DWQ1Kad-69" style="graphMlID=n38;shape=rect;rounded=1;arcsize=30;fillColor=#0000ff;strokeColor=#000000;strokeWidth=1.0" parent="5UMRifYAmH4T5DWQ1Kad-1" vertex="1">
          <mxGeometry x="527" y="529" width="30" height="30" as="geometry" />
        </mxCell>
        <mxCell id="5UMRifYAmH4T5DWQ1Kad-70" value="C" style="text;html=1;spacing=0;align=center;fontFamily=dialog;fontSize=12;fontStyle=0;fontColor=#ffffff" parent="5UMRifYAmH4T5DWQ1Kad-69" vertex="1">
          <mxGeometry x="8.6669921875" y="5.6494140625" width="12.666015625" height="18.701171875" as="geometry" />
        </mxCell>
        <mxCell id="5UMRifYAmH4T5DWQ1Kad-71" style="graphMlID=n39;shape=rect;rounded=1;arcsize=30;fillColor=#ffffff;strokeColor=#000000;strokeWidth=1.0" parent="5UMRifYAmH4T5DWQ1Kad-1" vertex="1">
          <mxGeometry x="527" y="567" width="30" height="30" as="geometry" />
        </mxCell>
        <mxCell id="5UMRifYAmH4T5DWQ1Kad-72" value="D" style="text;html=1;spacing=0;align=center;fontFamily=dialog;fontSize=12;fontStyle=0;fontColor=#000000" parent="5UMRifYAmH4T5DWQ1Kad-71" vertex="1">
          <mxGeometry x="8.6669921875" y="5.6494140625" width="12.666015625" height="18.701171875" as="geometry" />
        </mxCell>
        <mxCell id="5UMRifYAmH4T5DWQ1Kad-73" style="graphMlID=n40;shape=rect;rounded=1;arcsize=30;fillColor=#ffffff;strokeColor=#000000;strokeWidth=1.0" parent="5UMRifYAmH4T5DWQ1Kad-1" vertex="1">
          <mxGeometry x="527" y="605" width="30" height="30" as="geometry" />
        </mxCell>
        <mxCell id="5UMRifYAmH4T5DWQ1Kad-74" value="E" style="text;html=1;spacing=0;align=center;fontFamily=dialog;fontSize=12;fontStyle=0;fontColor=#000000" parent="5UMRifYAmH4T5DWQ1Kad-73" vertex="1">
          <mxGeometry x="8.998046875" y="5.6494140625" width="12.00390625" height="18.701171875" as="geometry" />
        </mxCell>
        <mxCell id="5UMRifYAmH4T5DWQ1Kad-75" style="graphMlID=n41;shape=rect;rounded=1;arcsize=30;fillColor=#ffffff;strokeColor=#000000;strokeWidth=1.0" parent="5UMRifYAmH4T5DWQ1Kad-1" vertex="1">
          <mxGeometry x="527" y="643" width="30" height="30" as="geometry" />
        </mxCell>
        <mxCell id="5UMRifYAmH4T5DWQ1Kad-76" value="F" style="text;html=1;spacing=0;align=center;fontFamily=dialog;fontSize=12;fontStyle=0;fontColor=#000000" parent="5UMRifYAmH4T5DWQ1Kad-75" vertex="1">
          <mxGeometry x="9.3349609375" y="5.6494140625" width="11.330078125" height="18.701171875" as="geometry" />
        </mxCell>
        <mxCell id="5UMRifYAmH4T5DWQ1Kad-77" style="graphMlID=n42;shape=rect;rounded=1;arcsize=30;fillColor=#ffffff;strokeColor=#000000;strokeWidth=1.0" parent="5UMRifYAmH4T5DWQ1Kad-1" vertex="1">
          <mxGeometry x="619" y="453" width="30" height="30" as="geometry" />
        </mxCell>
        <mxCell id="5UMRifYAmH4T5DWQ1Kad-78" value="B" style="text;html=1;spacing=0;align=center;fontFamily=dialog;fontSize=12;fontStyle=0;fontColor=#000000" parent="5UMRifYAmH4T5DWQ1Kad-77" vertex="1">
          <mxGeometry x="8.998046875" y="5.6494140625" width="12.00390625" height="18.701171875" as="geometry" />
        </mxCell>
        <mxCell id="5UMRifYAmH4T5DWQ1Kad-79" style="graphMlID=n43;shape=rect;rounded=1;arcsize=30;fillColor=#ffffff;strokeColor=#000000;strokeWidth=1.0" parent="5UMRifYAmH4T5DWQ1Kad-1" vertex="1">
          <mxGeometry x="656" y="453" width="30" height="30" as="geometry" />
        </mxCell>
        <mxCell id="5UMRifYAmH4T5DWQ1Kad-80" value="C" style="text;html=1;spacing=0;align=center;fontFamily=dialog;fontSize=12;fontStyle=0;fontColor=#000000" parent="5UMRifYAmH4T5DWQ1Kad-79" vertex="1">
          <mxGeometry x="8.6669921875" y="5.6494140625" width="12.666015625" height="18.701171875" as="geometry" />
        </mxCell>
        <mxCell id="5UMRifYAmH4T5DWQ1Kad-81" style="graphMlID=n44;shape=rect;rounded=1;arcsize=30;fillColor=#ffffff;strokeColor=#000000;strokeWidth=1.0" parent="5UMRifYAmH4T5DWQ1Kad-1" vertex="1">
          <mxGeometry x="693" y="453" width="30" height="30" as="geometry" />
        </mxCell>
        <mxCell id="5UMRifYAmH4T5DWQ1Kad-82" value="E" style="text;html=1;spacing=0;align=center;fontFamily=dialog;fontSize=12;fontStyle=0;fontColor=#000000" parent="5UMRifYAmH4T5DWQ1Kad-81" vertex="1">
          <mxGeometry x="8.998046875" y="5.6494140625" width="12.00390625" height="18.701171875" as="geometry" />
        </mxCell>
        <mxCell id="5UMRifYAmH4T5DWQ1Kad-83" style="graphMlID=n45;shape=rect;rounded=1;arcsize=30;fillColor=#ffffff;strokeColor=#000000;strokeWidth=1.0" parent="5UMRifYAmH4T5DWQ1Kad-1" vertex="1">
          <mxGeometry x="611" y="487" width="82" height="38" as="geometry" />
        </mxCell>
        <mxCell id="5UMRifYAmH4T5DWQ1Kad-84" style="graphMlID=n46;shape=rect;rounded=1;arcsize=30;fillColor=#ffffff;strokeColor=#000000;strokeWidth=1.0" parent="5UMRifYAmH4T5DWQ1Kad-1" vertex="1">
          <mxGeometry x="618" y="491" width="30" height="30" as="geometry" />
        </mxCell>
        <mxCell id="5UMRifYAmH4T5DWQ1Kad-85" value="A" style="text;html=1;spacing=0;align=center;fontFamily=dialog;fontSize=12;fontStyle=0;fontColor=#000000" parent="5UMRifYAmH4T5DWQ1Kad-84" vertex="1">
          <mxGeometry x="8.998046875" y="5.6494140625" width="12.00390625" height="18.701171875" as="geometry" />
        </mxCell>
        <mxCell id="5UMRifYAmH4T5DWQ1Kad-86" style="graphMlID=n47;shape=rect;rounded=1;arcsize=30;fillColor=#0000ff;strokeColor=#000000;strokeWidth=1.0" parent="5UMRifYAmH4T5DWQ1Kad-1" vertex="1">
          <mxGeometry x="655" y="491" width="30" height="30" as="geometry" />
        </mxCell>
        <mxCell id="5UMRifYAmH4T5DWQ1Kad-87" value="C" style="text;html=1;spacing=0;align=center;fontFamily=dialog;fontSize=12;fontStyle=0;fontColor=#ffffff" parent="5UMRifYAmH4T5DWQ1Kad-86" vertex="1">
          <mxGeometry x="8.6669921875" y="5.6494140625" width="12.666015625" height="18.701171875" as="geometry" />
        </mxCell>
        <mxCell id="5UMRifYAmH4T5DWQ1Kad-88" style="graphMlID=n48;shape=rect;rounded=1;arcsize=30;fillColor=#ffffff;strokeColor=#000000;strokeWidth=1.0" parent="5UMRifYAmH4T5DWQ1Kad-1" vertex="1">
          <mxGeometry x="611" y="525" width="154" height="38" as="geometry" />
        </mxCell>
        <mxCell id="5UMRifYAmH4T5DWQ1Kad-89" style="graphMlID=n49;shape=rect;rounded=1;arcsize=30;fillColor=#0000ff;strokeColor=#000000;strokeWidth=1.0" parent="5UMRifYAmH4T5DWQ1Kad-1" vertex="1">
          <mxGeometry x="618" y="529" width="30" height="30" as="geometry" />
        </mxCell>
        <mxCell id="5UMRifYAmH4T5DWQ1Kad-90" value="B" style="text;html=1;spacing=0;align=center;fontFamily=dialog;fontSize=12;fontStyle=0;fontColor=#ffffff" parent="5UMRifYAmH4T5DWQ1Kad-89" vertex="1">
          <mxGeometry x="8.998046875" y="5.6494140625" width="12.00390625" height="18.701171875" as="geometry" />
        </mxCell>
        <mxCell id="5UMRifYAmH4T5DWQ1Kad-91" style="graphMlID=n50;shape=rect;rounded=1;arcsize=30;fillColor=#ffffff;strokeColor=#000000;strokeWidth=1.0" parent="5UMRifYAmH4T5DWQ1Kad-1" vertex="1">
          <mxGeometry x="610.5" y="563" width="43" height="38" as="geometry" />
        </mxCell>
        <mxCell id="5UMRifYAmH4T5DWQ1Kad-92" style="graphMlID=n51;shape=rect;rounded=1;arcsize=30;fillColor=#ffffff;strokeColor=#000000;strokeWidth=1.0" parent="5UMRifYAmH4T5DWQ1Kad-1" vertex="1">
          <mxGeometry x="610.5" y="601" width="117.5" height="38" as="geometry" />
        </mxCell>
        <mxCell id="5UMRifYAmH4T5DWQ1Kad-93" style="graphMlID=n52;shape=rect;rounded=1;arcsize=30;fillColor=#ffffff;strokeColor=#000000;strokeWidth=1.0" parent="5UMRifYAmH4T5DWQ1Kad-1" vertex="1">
          <mxGeometry x="617.5" y="605" width="30" height="30" as="geometry" />
        </mxCell>
        <mxCell id="5UMRifYAmH4T5DWQ1Kad-94" value="C" style="text;html=1;spacing=0;align=center;fontFamily=dialog;fontSize=12;fontStyle=0;fontColor=#000000" parent="5UMRifYAmH4T5DWQ1Kad-93" vertex="1">
          <mxGeometry x="8.6669921875" y="5.6494140625" width="12.666015625" height="18.701171875" as="geometry" />
        </mxCell>
        <mxCell id="5UMRifYAmH4T5DWQ1Kad-95" style="graphMlID=n53;shape=rect;rounded=1;arcsize=30;fillColor=#ffffff;strokeColor=#000000;strokeWidth=1.0" parent="5UMRifYAmH4T5DWQ1Kad-1" vertex="1">
          <mxGeometry x="610" y="639" width="43" height="38" as="geometry" />
        </mxCell>
        <mxCell id="5UMRifYAmH4T5DWQ1Kad-96" style="graphMlID=n54;shape=rect;rounded=1;arcsize=30;fillColor=#ffffff;strokeColor=#000000;strokeWidth=1.0" parent="5UMRifYAmH4T5DWQ1Kad-1" vertex="1">
          <mxGeometry x="617" y="643" width="30" height="30" as="geometry" />
        </mxCell>
        <mxCell id="5UMRifYAmH4T5DWQ1Kad-97" value="E" style="text;html=1;spacing=0;align=center;fontFamily=dialog;fontSize=12;fontStyle=0;fontColor=#000000" parent="5UMRifYAmH4T5DWQ1Kad-96" vertex="1">
          <mxGeometry x="8.998046875" y="5.6494140625" width="12.00390625" height="18.701171875" as="geometry" />
        </mxCell>
        <mxCell id="5UMRifYAmH4T5DWQ1Kad-98" style="graphMlID=n55;shape=rect;rounded=1;arcsize=30;fillColor=#ffffff;strokeColor=#000000;strokeWidth=1.0" parent="5UMRifYAmH4T5DWQ1Kad-1" vertex="1">
          <mxGeometry x="655" y="529" width="30" height="30" as="geometry" />
        </mxCell>
        <mxCell id="5UMRifYAmH4T5DWQ1Kad-99" value="A" style="text;html=1;spacing=0;align=center;fontFamily=dialog;fontSize=12;fontStyle=0;fontColor=#000000" parent="5UMRifYAmH4T5DWQ1Kad-98" vertex="1">
          <mxGeometry x="8.998046875" y="5.6494140625" width="12.00390625" height="18.701171875" as="geometry" />
        </mxCell>
        <mxCell id="5UMRifYAmH4T5DWQ1Kad-100" style="graphMlID=n56;shape=rect;rounded=1;arcsize=30;fillColor=#ffffff;strokeColor=#000000;strokeWidth=1.0" parent="5UMRifYAmH4T5DWQ1Kad-1" vertex="1">
          <mxGeometry x="692" y="529" width="30" height="30" as="geometry" />
        </mxCell>
        <mxCell id="5UMRifYAmH4T5DWQ1Kad-101" value="E" style="text;html=1;spacing=0;align=center;fontFamily=dialog;fontSize=12;fontStyle=0;fontColor=#000000" parent="5UMRifYAmH4T5DWQ1Kad-100" vertex="1">
          <mxGeometry x="8.998046875" y="5.6494140625" width="12.00390625" height="18.701171875" as="geometry" />
        </mxCell>
        <mxCell id="5UMRifYAmH4T5DWQ1Kad-102" style="graphMlID=n57;shape=rect;rounded=1;arcsize=30;fillColor=#ffffff;strokeColor=#000000;strokeWidth=1.0" parent="5UMRifYAmH4T5DWQ1Kad-1" vertex="1">
          <mxGeometry x="729" y="529" width="30" height="30" as="geometry" />
        </mxCell>
        <mxCell id="5UMRifYAmH4T5DWQ1Kad-103" value="D" style="text;html=1;spacing=0;align=center;fontFamily=dialog;fontSize=12;fontStyle=0;fontColor=#000000" parent="5UMRifYAmH4T5DWQ1Kad-102" vertex="1">
          <mxGeometry x="8.6669921875" y="5.6494140625" width="12.666015625" height="18.701171875" as="geometry" />
        </mxCell>
        <mxCell id="5UMRifYAmH4T5DWQ1Kad-104" style="graphMlID=n58;shape=rect;rounded=1;arcsize=30;fillColor=#ffffff;strokeColor=#000000;strokeWidth=1.0" parent="5UMRifYAmH4T5DWQ1Kad-1" vertex="1">
          <mxGeometry x="617" y="567" width="30" height="30" as="geometry" />
        </mxCell>
        <mxCell id="5UMRifYAmH4T5DWQ1Kad-105" value="C" style="text;html=1;spacing=0;align=center;fontFamily=dialog;fontSize=12;fontStyle=0;fontColor=#000000" parent="5UMRifYAmH4T5DWQ1Kad-104" vertex="1">
          <mxGeometry x="8.6669921875" y="5.6494140625" width="12.666015625" height="18.701171875" as="geometry" />
        </mxCell>
        <mxCell id="5UMRifYAmH4T5DWQ1Kad-106" style="graphMlID=n59;shape=rect;rounded=1;arcsize=30;fillColor=#ffffff;strokeColor=#000000;strokeWidth=1.0" parent="5UMRifYAmH4T5DWQ1Kad-1" vertex="1">
          <mxGeometry x="654.25" y="605" width="30" height="30" as="geometry" />
        </mxCell>
        <mxCell id="5UMRifYAmH4T5DWQ1Kad-107" value="A" style="text;html=1;spacing=0;align=center;fontFamily=dialog;fontSize=12;fontStyle=0;fontColor=#000000" parent="5UMRifYAmH4T5DWQ1Kad-106" vertex="1">
          <mxGeometry x="8.998046875" y="5.6494140625" width="12.00390625" height="18.701171875" as="geometry" />
        </mxCell>
        <mxCell id="5UMRifYAmH4T5DWQ1Kad-108" style="graphMlID=n60;shape=rect;rounded=1;arcsize=30;fillColor=#ffffff;strokeColor=#000000;strokeWidth=1.0" parent="5UMRifYAmH4T5DWQ1Kad-1" vertex="1">
          <mxGeometry x="691.25" y="605" width="30" height="30" as="geometry" />
        </mxCell>
        <mxCell id="5UMRifYAmH4T5DWQ1Kad-109" value="F" style="text;html=1;spacing=0;align=center;fontFamily=dialog;fontSize=12;fontStyle=0;fontColor=#000000" parent="5UMRifYAmH4T5DWQ1Kad-108" vertex="1">
          <mxGeometry x="9.3349609375" y="5.6494140625" width="11.330078125" height="18.701171875" as="geometry" />
        </mxCell>
        <mxCell id="5UMRifYAmH4T5DWQ1Kad-110" value="" style="graphMlID=e0;rounded=0;endArrow=classic;strokeColor=#000000;strokeWidth=1.0;startArrow=none;startFill=1;endFill=1" parent="5UMRifYAmH4T5DWQ1Kad-1" source="5UMRifYAmH4T5DWQ1Kad-5" target="5UMRifYAmH4T5DWQ1Kad-7" edge="1">
          <mxGeometry relative="1" as="geometry">
            <Array as="points">
              <mxPoint x="266" y="223" />
            </Array>
          </mxGeometry>
        </mxCell>
        <mxCell id="5UMRifYAmH4T5DWQ1Kad-111" value="" style="graphMlID=e1;rounded=0;endArrow=classic;strokeColor=#000000;strokeWidth=1.0;startArrow=none;startFill=1;endFill=1" parent="5UMRifYAmH4T5DWQ1Kad-1" source="5UMRifYAmH4T5DWQ1Kad-7" target="5UMRifYAmH4T5DWQ1Kad-5" edge="1">
          <mxGeometry relative="1" as="geometry">
            <Array as="points">
              <mxPoint x="274" y="229" />
            </Array>
          </mxGeometry>
        </mxCell>
        <mxCell id="5UMRifYAmH4T5DWQ1Kad-112" value="" style="graphMlID=e2;rounded=0;endArrow=classic;strokeColor=#000000;strokeWidth=1.0;startArrow=none;startFill=1;endFill=1" parent="5UMRifYAmH4T5DWQ1Kad-1" source="5UMRifYAmH4T5DWQ1Kad-5" target="5UMRifYAmH4T5DWQ1Kad-5" edge="1">
          <mxGeometry relative="1" as="geometry">
            <Array as="points">
              <mxPoint x="298" y="153" />
            </Array>
          </mxGeometry>
        </mxCell>
        <mxCell id="5UMRifYAmH4T5DWQ1Kad-113" value="" style="graphMlID=e3;rounded=0;endArrow=classic;strokeColor=#000000;strokeWidth=1.0;startArrow=none;startFill=1;endFill=1" parent="5UMRifYAmH4T5DWQ1Kad-1" source="5UMRifYAmH4T5DWQ1Kad-5" target="5UMRifYAmH4T5DWQ1Kad-9" edge="1">
          <mxGeometry relative="1" as="geometry" />
        </mxCell>
        <mxCell id="5UMRifYAmH4T5DWQ1Kad-114" value="" style="graphMlID=e4;rounded=0;endArrow=classic;strokeColor=#000000;strokeWidth=1.0;startArrow=none;startFill=1;endFill=1" parent="5UMRifYAmH4T5DWQ1Kad-1" source="5UMRifYAmH4T5DWQ1Kad-5" target="5UMRifYAmH4T5DWQ1Kad-11" edge="1">
          <mxGeometry relative="1" as="geometry" />
        </mxCell>
        <mxCell id="5UMRifYAmH4T5DWQ1Kad-115" value="" style="graphMlID=e5;rounded=0;endArrow=classic;strokeColor=#0000ff;strokeWidth=3.0;startArrow=none;startFill=1;endFill=1" parent="5UMRifYAmH4T5DWQ1Kad-1" source="5UMRifYAmH4T5DWQ1Kad-7" target="5UMRifYAmH4T5DWQ1Kad-11" edge="1">
          <mxGeometry relative="1" as="geometry" />
        </mxCell>
        <mxCell id="5UMRifYAmH4T5DWQ1Kad-116" value="" style="graphMlID=e6;rounded=0;endArrow=classic;strokeColor=#000000;strokeWidth=1.0;startArrow=none;startFill=1;endFill=1" parent="5UMRifYAmH4T5DWQ1Kad-1" source="5UMRifYAmH4T5DWQ1Kad-11" target="5UMRifYAmH4T5DWQ1Kad-13" edge="1">
          <mxGeometry relative="1" as="geometry" />
        </mxCell>
        <mxCell id="5UMRifYAmH4T5DWQ1Kad-117" value="" style="graphMlID=e7;rounded=0;endArrow=classic;strokeColor=#000000;strokeWidth=1.0;startArrow=none;startFill=1;endFill=1" parent="5UMRifYAmH4T5DWQ1Kad-1" source="5UMRifYAmH4T5DWQ1Kad-15" target="5UMRifYAmH4T5DWQ1Kad-9" edge="1">
          <mxGeometry relative="1" as="geometry" />
        </mxCell>
        <mxCell id="5UMRifYAmH4T5DWQ1Kad-118" value="" style="graphMlID=e8;rounded=0;endArrow=classic;strokeColor=#000000;strokeWidth=1.0;startArrow=none;startFill=1;endFill=1" parent="5UMRifYAmH4T5DWQ1Kad-1" source="5UMRifYAmH4T5DWQ1Kad-17" target="5UMRifYAmH4T5DWQ1Kad-3" edge="1">
          <mxGeometry relative="1" as="geometry" />
        </mxCell>
        <mxCell id="5UMRifYAmH4T5DWQ1Kad-119" value="" style="graphMlID=e9;rounded=0;endArrow=classic;strokeColor=#000000;strokeWidth=1.0;startArrow=none;startFill=1;endFill=1" parent="5UMRifYAmH4T5DWQ1Kad-1" source="5UMRifYAmH4T5DWQ1Kad-19" target="5UMRifYAmH4T5DWQ1Kad-37" edge="1">
          <mxGeometry relative="1" as="geometry" />
        </mxCell>
        <mxCell id="5UMRifYAmH4T5DWQ1Kad-120" value="" style="graphMlID=e10;rounded=0;endArrow=classic;strokeColor=#000000;strokeWidth=1.0;startArrow=none;startFill=1;endFill=1" parent="5UMRifYAmH4T5DWQ1Kad-1" source="5UMRifYAmH4T5DWQ1Kad-21" target="5UMRifYAmH4T5DWQ1Kad-42" edge="1">
          <mxGeometry relative="1" as="geometry" />
        </mxCell>
        <mxCell id="5UMRifYAmH4T5DWQ1Kad-121" value="" style="graphMlID=e11;rounded=0;endArrow=classic;strokeColor=#000000;strokeWidth=1.0;startArrow=none;startFill=1;endFill=1" parent="5UMRifYAmH4T5DWQ1Kad-1" source="5UMRifYAmH4T5DWQ1Kad-23" target="5UMRifYAmH4T5DWQ1Kad-45" edge="1">
          <mxGeometry relative="1" as="geometry" />
        </mxCell>
        <mxCell id="5UMRifYAmH4T5DWQ1Kad-122" value="" style="graphMlID=e12;rounded=0;endArrow=classic;strokeColor=#000000;strokeWidth=1.0;startArrow=none;startFill=1;endFill=1" parent="5UMRifYAmH4T5DWQ1Kad-1" source="5UMRifYAmH4T5DWQ1Kad-25" target="5UMRifYAmH4T5DWQ1Kad-46" edge="1">
          <mxGeometry relative="1" as="geometry" />
        </mxCell>
        <mxCell id="5UMRifYAmH4T5DWQ1Kad-123" value="" style="graphMlID=e13;rounded=0;endArrow=classic;strokeColor=#000000;strokeWidth=1.0;startArrow=none;startFill=1;endFill=1" parent="5UMRifYAmH4T5DWQ1Kad-1" source="5UMRifYAmH4T5DWQ1Kad-27" target="5UMRifYAmH4T5DWQ1Kad-49" edge="1">
          <mxGeometry relative="1" as="geometry" />
        </mxCell>
        <mxCell id="5UMRifYAmH4T5DWQ1Kad-124" value="" style="graphMlID=e14;rounded=0;endArrow=none;strokeColor=#000000;strokeWidth=1.0;startArrow=none;startFill=1;endFill=1" parent="5UMRifYAmH4T5DWQ1Kad-1" source="5UMRifYAmH4T5DWQ1Kad-53" target="5UMRifYAmH4T5DWQ1Kad-57" edge="1">
          <mxGeometry relative="1" as="geometry" />
        </mxCell>
        <mxCell id="5UMRifYAmH4T5DWQ1Kad-125" value="" style="graphMlID=e15;rounded=0;endArrow=none;strokeColor=#000000;strokeWidth=1.0;startArrow=none;startFill=1;endFill=1" parent="5UMRifYAmH4T5DWQ1Kad-1" source="5UMRifYAmH4T5DWQ1Kad-53" target="5UMRifYAmH4T5DWQ1Kad-59" edge="1">
          <mxGeometry relative="1" as="geometry" />
        </mxCell>
        <mxCell id="5UMRifYAmH4T5DWQ1Kad-126" value="" style="graphMlID=e16;rounded=0;endArrow=none;strokeColor=#0000ff;strokeWidth=3.0;startArrow=none;startFill=1;endFill=1" parent="5UMRifYAmH4T5DWQ1Kad-1" source="5UMRifYAmH4T5DWQ1Kad-55" target="5UMRifYAmH4T5DWQ1Kad-59" edge="1">
          <mxGeometry relative="1" as="geometry" />
        </mxCell>
        <mxCell id="5UMRifYAmH4T5DWQ1Kad-127" value="" style="graphMlID=e17;rounded=0;endArrow=none;strokeColor=#000000;strokeWidth=1.0;startArrow=none;startFill=1;endFill=1" parent="5UMRifYAmH4T5DWQ1Kad-1" source="5UMRifYAmH4T5DWQ1Kad-59" target="5UMRifYAmH4T5DWQ1Kad-61" edge="1">
          <mxGeometry relative="1" as="geometry" />
        </mxCell>
        <mxCell id="5UMRifYAmH4T5DWQ1Kad-128" value="" style="graphMlID=e18;rounded=0;endArrow=none;strokeColor=#000000;strokeWidth=1.0;startArrow=none;startFill=1;endFill=1" parent="5UMRifYAmH4T5DWQ1Kad-1" source="5UMRifYAmH4T5DWQ1Kad-63" target="5UMRifYAmH4T5DWQ1Kad-57" edge="1">
          <mxGeometry relative="1" as="geometry" />
        </mxCell>
        <mxCell id="5UMRifYAmH4T5DWQ1Kad-129" value="" style="graphMlID=e19;rounded=0;endArrow=classic;strokeColor=#000000;strokeWidth=1.0;startArrow=none;startFill=1;endFill=1" parent="5UMRifYAmH4T5DWQ1Kad-1" source="5UMRifYAmH4T5DWQ1Kad-65" target="5UMRifYAmH4T5DWQ1Kad-2" edge="1">
          <mxGeometry relative="1" as="geometry" />
        </mxCell>
        <mxCell id="5UMRifYAmH4T5DWQ1Kad-130" value="" style="graphMlID=e20;rounded=0;endArrow=classic;strokeColor=#000000;strokeWidth=1.0;startArrow=none;startFill=1;endFill=1" parent="5UMRifYAmH4T5DWQ1Kad-1" source="5UMRifYAmH4T5DWQ1Kad-67" target="5UMRifYAmH4T5DWQ1Kad-83" edge="1">
          <mxGeometry relative="1" as="geometry" />
        </mxCell>
        <mxCell id="5UMRifYAmH4T5DWQ1Kad-131" value="" style="graphMlID=e21;rounded=0;endArrow=classic;strokeColor=#000000;strokeWidth=1.0;startArrow=none;startFill=1;endFill=1" parent="5UMRifYAmH4T5DWQ1Kad-1" source="5UMRifYAmH4T5DWQ1Kad-69" target="5UMRifYAmH4T5DWQ1Kad-88" edge="1">
          <mxGeometry relative="1" as="geometry" />
        </mxCell>
        <mxCell id="5UMRifYAmH4T5DWQ1Kad-132" value="" style="graphMlID=e22;rounded=0;endArrow=classic;strokeColor=#000000;strokeWidth=1.0;startArrow=none;startFill=1;endFill=1" parent="5UMRifYAmH4T5DWQ1Kad-1" source="5UMRifYAmH4T5DWQ1Kad-71" target="5UMRifYAmH4T5DWQ1Kad-91" edge="1">
          <mxGeometry relative="1" as="geometry" />
        </mxCell>
        <mxCell id="5UMRifYAmH4T5DWQ1Kad-133" value="" style="graphMlID=e23;rounded=0;endArrow=classic;strokeColor=#000000;strokeWidth=1.0;startArrow=none;startFill=1;endFill=1" parent="5UMRifYAmH4T5DWQ1Kad-1" source="5UMRifYAmH4T5DWQ1Kad-73" target="5UMRifYAmH4T5DWQ1Kad-92" edge="1">
          <mxGeometry relative="1" as="geometry" />
        </mxCell>
        <mxCell id="5UMRifYAmH4T5DWQ1Kad-134" value="" style="graphMlID=e24;rounded=0;endArrow=classic;strokeColor=#000000;strokeWidth=1.0;startArrow=none;startFill=1;endFill=1" parent="5UMRifYAmH4T5DWQ1Kad-1" source="5UMRifYAmH4T5DWQ1Kad-75" target="5UMRifYAmH4T5DWQ1Kad-95" edge="1">
          <mxGeometry relative="1" as="geometry" />
        </mxCell>
        <mxCell id="5UMRifYAmH4T5DWQ1Kad-135" value="" style="graphMlID=e25;rounded=0;endArrow=none;strokeColor=#000000;strokeWidth=1.0;startArrow=none;startFill=1;endFill=1" parent="5UMRifYAmH4T5DWQ1Kad-1" source="5UMRifYAmH4T5DWQ1Kad-55" target="5UMRifYAmH4T5DWQ1Kad-53" edge="1">
          <mxGeometry relative="1" as="geometry" />
        </mxCell>
        <mxCell id="5UMRifYAmH4T5DWQ1Kad-136" value="" style="graphMlID=e26;rounded=0;endArrow=none;strokeColor=#000000;strokeWidth=1.0;startArrow=none;startFill=1;endFill=1" parent="5UMRifYAmH4T5DWQ1Kad-1" source="5UMRifYAmH4T5DWQ1Kad-59" target="5UMRifYAmH4T5DWQ1Kad-57" edge="1">
          <mxGeometry relative="1" as="geometry" />
        </mxCell>
      </root>
    </mxGraphModel>
  </diagram>
  <diagram id="Nooo1EkxZy_kct1m7jix" name="Erste Graphen">
    <mxGraphModel dx="946" dy="620" grid="0" gridSize="10" guides="1" tooltips="1" connect="1" arrows="1" fold="1" page="1" pageScale="1" pageWidth="1169" pageHeight="827" math="0" shadow="0">
      <root>
        <mxCell id="2YSF07XlGSHCV8I9kfZ7-0" />
        <mxCell id="2YSF07XlGSHCV8I9kfZ7-1" parent="2YSF07XlGSHCV8I9kfZ7-0" />
        <mxCell id="2YSF07XlGSHCV8I9kfZ7-9" style="rounded=0;orthogonalLoop=1;jettySize=auto;html=1;exitX=0;exitY=0.75;exitDx=0;exitDy=0;entryX=1;entryY=0.25;entryDx=0;entryDy=0;endArrow=none;endFill=0;" parent="2YSF07XlGSHCV8I9kfZ7-1" source="2YSF07XlGSHCV8I9kfZ7-2" target="2YSF07XlGSHCV8I9kfZ7-6" edge="1">
          <mxGeometry relative="1" as="geometry" />
        </mxCell>
        <mxCell id="2YSF07XlGSHCV8I9kfZ7-10" style="edgeStyle=none;rounded=0;orthogonalLoop=1;jettySize=auto;html=1;exitX=0.5;exitY=1;exitDx=0;exitDy=0;entryX=0.5;entryY=0;entryDx=0;entryDy=0;endArrow=none;endFill=0;" parent="2YSF07XlGSHCV8I9kfZ7-1" source="2YSF07XlGSHCV8I9kfZ7-2" target="2YSF07XlGSHCV8I9kfZ7-3" edge="1">
          <mxGeometry relative="1" as="geometry" />
        </mxCell>
        <mxCell id="2YSF07XlGSHCV8I9kfZ7-2" value="Altdorf" style="rounded=1;whiteSpace=wrap;html=1;" parent="2YSF07XlGSHCV8I9kfZ7-1" vertex="1">
          <mxGeometry x="178" y="56" width="71" height="28" as="geometry" />
        </mxCell>
        <mxCell id="2YSF07XlGSHCV8I9kfZ7-14" style="edgeStyle=none;rounded=0;orthogonalLoop=1;jettySize=auto;html=1;exitX=0.5;exitY=1;exitDx=0;exitDy=0;entryX=0.5;entryY=0;entryDx=0;entryDy=0;endArrow=none;endFill=0;" parent="2YSF07XlGSHCV8I9kfZ7-1" source="2YSF07XlGSHCV8I9kfZ7-3" target="2YSF07XlGSHCV8I9kfZ7-4" edge="1">
          <mxGeometry relative="1" as="geometry" />
        </mxCell>
        <mxCell id="2YSF07XlGSHCV8I9kfZ7-3" value="Fischbach" style="rounded=1;whiteSpace=wrap;html=1;" parent="2YSF07XlGSHCV8I9kfZ7-1" vertex="1">
          <mxGeometry x="253" y="166" width="71" height="28" as="geometry" />
        </mxCell>
        <mxCell id="2YSF07XlGSHCV8I9kfZ7-18" style="edgeStyle=none;rounded=0;orthogonalLoop=1;jettySize=auto;html=1;exitX=0.5;exitY=1;exitDx=0;exitDy=0;entryX=0.75;entryY=0;entryDx=0;entryDy=0;endArrow=none;endFill=0;" parent="2YSF07XlGSHCV8I9kfZ7-1" source="2YSF07XlGSHCV8I9kfZ7-4" target="2YSF07XlGSHCV8I9kfZ7-8" edge="1">
          <mxGeometry relative="1" as="geometry" />
        </mxCell>
        <mxCell id="2YSF07XlGSHCV8I9kfZ7-4" value="Burg" style="rounded=1;whiteSpace=wrap;html=1;" parent="2YSF07XlGSHCV8I9kfZ7-1" vertex="1">
          <mxGeometry x="212" y="251" width="71" height="28" as="geometry" />
        </mxCell>
        <mxCell id="2YSF07XlGSHCV8I9kfZ7-13" style="edgeStyle=none;rounded=0;orthogonalLoop=1;jettySize=auto;html=1;exitX=1;exitY=0.5;exitDx=0;exitDy=0;entryX=0;entryY=0.5;entryDx=0;entryDy=0;endArrow=none;endFill=0;" parent="2YSF07XlGSHCV8I9kfZ7-1" source="2YSF07XlGSHCV8I9kfZ7-5" target="2YSF07XlGSHCV8I9kfZ7-3" edge="1">
          <mxGeometry relative="1" as="geometry" />
        </mxCell>
        <mxCell id="2YSF07XlGSHCV8I9kfZ7-15" style="edgeStyle=none;rounded=0;orthogonalLoop=1;jettySize=auto;html=1;exitX=0.75;exitY=1;exitDx=0;exitDy=0;entryX=0.25;entryY=0;entryDx=0;entryDy=0;endArrow=none;endFill=0;" parent="2YSF07XlGSHCV8I9kfZ7-1" source="2YSF07XlGSHCV8I9kfZ7-5" target="2YSF07XlGSHCV8I9kfZ7-4" edge="1">
          <mxGeometry relative="1" as="geometry" />
        </mxCell>
        <mxCell id="2YSF07XlGSHCV8I9kfZ7-16" style="edgeStyle=none;rounded=0;orthogonalLoop=1;jettySize=auto;html=1;exitX=0.25;exitY=1;exitDx=0;exitDy=0;entryX=0.5;entryY=0;entryDx=0;entryDy=0;endArrow=none;endFill=0;" parent="2YSF07XlGSHCV8I9kfZ7-1" source="2YSF07XlGSHCV8I9kfZ7-5" target="2YSF07XlGSHCV8I9kfZ7-7" edge="1">
          <mxGeometry relative="1" as="geometry" />
        </mxCell>
        <mxCell id="2YSF07XlGSHCV8I9kfZ7-5" value="Ziegelstein" style="rounded=1;whiteSpace=wrap;html=1;" parent="2YSF07XlGSHCV8I9kfZ7-1" vertex="1">
          <mxGeometry x="88" y="178" width="71" height="28" as="geometry" />
        </mxCell>
        <mxCell id="2YSF07XlGSHCV8I9kfZ7-11" style="edgeStyle=none;rounded=0;orthogonalLoop=1;jettySize=auto;html=1;exitX=1;exitY=0.75;exitDx=0;exitDy=0;entryX=0;entryY=0.25;entryDx=0;entryDy=0;endArrow=none;endFill=0;" parent="2YSF07XlGSHCV8I9kfZ7-1" source="2YSF07XlGSHCV8I9kfZ7-6" target="2YSF07XlGSHCV8I9kfZ7-3" edge="1">
          <mxGeometry relative="1" as="geometry" />
        </mxCell>
        <mxCell id="2YSF07XlGSHCV8I9kfZ7-12" style="edgeStyle=none;rounded=0;orthogonalLoop=1;jettySize=auto;html=1;exitX=0.5;exitY=1;exitDx=0;exitDy=0;entryX=0.5;entryY=0;entryDx=0;entryDy=0;endArrow=none;endFill=0;" parent="2YSF07XlGSHCV8I9kfZ7-1" source="2YSF07XlGSHCV8I9kfZ7-6" target="2YSF07XlGSHCV8I9kfZ7-5" edge="1">
          <mxGeometry relative="1" as="geometry" />
        </mxCell>
        <mxCell id="2YSF07XlGSHCV8I9kfZ7-6" value="Weiler" style="rounded=1;whiteSpace=wrap;html=1;" parent="2YSF07XlGSHCV8I9kfZ7-1" vertex="1">
          <mxGeometry x="52" y="102" width="71" height="28" as="geometry" />
        </mxCell>
        <mxCell id="2YSF07XlGSHCV8I9kfZ7-17" style="edgeStyle=none;rounded=0;orthogonalLoop=1;jettySize=auto;html=1;exitX=0.75;exitY=1;exitDx=0;exitDy=0;entryX=0.423;entryY=-0.071;entryDx=0;entryDy=0;entryPerimeter=0;endArrow=none;endFill=0;" parent="2YSF07XlGSHCV8I9kfZ7-1" source="2YSF07XlGSHCV8I9kfZ7-7" target="2YSF07XlGSHCV8I9kfZ7-8" edge="1">
          <mxGeometry relative="1" as="geometry" />
        </mxCell>
        <mxCell id="2YSF07XlGSHCV8I9kfZ7-7" value="Neustadt" style="rounded=1;whiteSpace=wrap;html=1;" parent="2YSF07XlGSHCV8I9kfZ7-1" vertex="1">
          <mxGeometry x="57" y="265" width="71" height="28" as="geometry" />
        </mxCell>
        <mxCell id="2YSF07XlGSHCV8I9kfZ7-8" value="Rain" style="rounded=1;whiteSpace=wrap;html=1;" parent="2YSF07XlGSHCV8I9kfZ7-1" vertex="1">
          <mxGeometry x="123" y="327" width="71" height="28" as="geometry" />
        </mxCell>
        <mxCell id="2YSF07XlGSHCV8I9kfZ7-19" style="rounded=0;orthogonalLoop=1;jettySize=auto;html=1;exitX=0;exitY=0.75;exitDx=0;exitDy=0;entryX=1;entryY=0.25;entryDx=0;entryDy=0;endArrow=none;endFill=0;fillColor=#d5e8d4;strokeColor=#82b366;" parent="2YSF07XlGSHCV8I9kfZ7-1" source="2YSF07XlGSHCV8I9kfZ7-21" target="2YSF07XlGSHCV8I9kfZ7-32" edge="1">
          <mxGeometry relative="1" as="geometry" />
        </mxCell>
        <mxCell id="2YSF07XlGSHCV8I9kfZ7-20" style="edgeStyle=none;rounded=0;orthogonalLoop=1;jettySize=auto;html=1;exitX=0.5;exitY=1;exitDx=0;exitDy=0;entryX=0.5;entryY=0;entryDx=0;entryDy=0;endArrow=none;endFill=0;fillColor=#d5e8d4;strokeColor=#82b366;" parent="2YSF07XlGSHCV8I9kfZ7-1" source="2YSF07XlGSHCV8I9kfZ7-21" target="2YSF07XlGSHCV8I9kfZ7-23" edge="1">
          <mxGeometry relative="1" as="geometry" />
        </mxCell>
        <mxCell id="2YSF07XlGSHCV8I9kfZ7-21" value="Altdorf" style="rounded=1;whiteSpace=wrap;html=1;fillColor=#dae8fc;strokeColor=#6c8ebf;" parent="2YSF07XlGSHCV8I9kfZ7-1" vertex="1">
          <mxGeometry x="688" y="169" width="71" height="28" as="geometry" />
        </mxCell>
        <mxCell id="2YSF07XlGSHCV8I9kfZ7-22" style="edgeStyle=none;rounded=0;orthogonalLoop=1;jettySize=auto;html=1;exitX=0.5;exitY=1;exitDx=0;exitDy=0;entryX=0.5;entryY=0;entryDx=0;entryDy=0;endArrow=none;endFill=0;fillColor=#d5e8d4;strokeColor=#82b366;" parent="2YSF07XlGSHCV8I9kfZ7-1" source="2YSF07XlGSHCV8I9kfZ7-23" target="2YSF07XlGSHCV8I9kfZ7-25" edge="1">
          <mxGeometry relative="1" as="geometry" />
        </mxCell>
        <mxCell id="2YSF07XlGSHCV8I9kfZ7-23" value="Fischbach" style="rounded=1;whiteSpace=wrap;html=1;fillColor=#dae8fc;strokeColor=#6c8ebf;" parent="2YSF07XlGSHCV8I9kfZ7-1" vertex="1">
          <mxGeometry x="763" y="279" width="71" height="28" as="geometry" />
        </mxCell>
        <mxCell id="2YSF07XlGSHCV8I9kfZ7-24" style="edgeStyle=none;rounded=0;orthogonalLoop=1;jettySize=auto;html=1;exitX=0.5;exitY=1;exitDx=0;exitDy=0;entryX=0.75;entryY=0;entryDx=0;entryDy=0;endArrow=none;endFill=0;fillColor=#d5e8d4;strokeColor=#82b366;" parent="2YSF07XlGSHCV8I9kfZ7-1" source="2YSF07XlGSHCV8I9kfZ7-25" target="2YSF07XlGSHCV8I9kfZ7-35" edge="1">
          <mxGeometry relative="1" as="geometry" />
        </mxCell>
        <mxCell id="2YSF07XlGSHCV8I9kfZ7-25" value="Burg" style="rounded=1;whiteSpace=wrap;html=1;fillColor=#dae8fc;strokeColor=#6c8ebf;" parent="2YSF07XlGSHCV8I9kfZ7-1" vertex="1">
          <mxGeometry x="722" y="364" width="71" height="28" as="geometry" />
        </mxCell>
        <mxCell id="2YSF07XlGSHCV8I9kfZ7-26" style="edgeStyle=none;rounded=0;orthogonalLoop=1;jettySize=auto;html=1;exitX=1;exitY=0.5;exitDx=0;exitDy=0;entryX=0;entryY=0.5;entryDx=0;entryDy=0;endArrow=none;endFill=0;fillColor=#d5e8d4;strokeColor=#82b366;" parent="2YSF07XlGSHCV8I9kfZ7-1" source="2YSF07XlGSHCV8I9kfZ7-29" target="2YSF07XlGSHCV8I9kfZ7-23" edge="1">
          <mxGeometry relative="1" as="geometry" />
        </mxCell>
        <mxCell id="2YSF07XlGSHCV8I9kfZ7-27" style="edgeStyle=none;rounded=0;orthogonalLoop=1;jettySize=auto;html=1;exitX=0.75;exitY=1;exitDx=0;exitDy=0;entryX=0.25;entryY=0;entryDx=0;entryDy=0;endArrow=none;endFill=0;fillColor=#d5e8d4;strokeColor=#82b366;" parent="2YSF07XlGSHCV8I9kfZ7-1" source="2YSF07XlGSHCV8I9kfZ7-29" target="2YSF07XlGSHCV8I9kfZ7-25" edge="1">
          <mxGeometry relative="1" as="geometry" />
        </mxCell>
        <mxCell id="2YSF07XlGSHCV8I9kfZ7-28" style="edgeStyle=none;rounded=0;orthogonalLoop=1;jettySize=auto;html=1;exitX=0.25;exitY=1;exitDx=0;exitDy=0;entryX=0.5;entryY=0;entryDx=0;entryDy=0;endArrow=none;endFill=0;fillColor=#d5e8d4;strokeColor=#82b366;" parent="2YSF07XlGSHCV8I9kfZ7-1" source="2YSF07XlGSHCV8I9kfZ7-29" target="2YSF07XlGSHCV8I9kfZ7-34" edge="1">
          <mxGeometry relative="1" as="geometry" />
        </mxCell>
        <mxCell id="2YSF07XlGSHCV8I9kfZ7-29" value="Ziegelstein" style="rounded=1;whiteSpace=wrap;html=1;fillColor=#dae8fc;strokeColor=#6c8ebf;" parent="2YSF07XlGSHCV8I9kfZ7-1" vertex="1">
          <mxGeometry x="598" y="291" width="71" height="28" as="geometry" />
        </mxCell>
        <mxCell id="2YSF07XlGSHCV8I9kfZ7-30" style="edgeStyle=none;rounded=0;orthogonalLoop=1;jettySize=auto;html=1;exitX=1;exitY=0.75;exitDx=0;exitDy=0;entryX=0;entryY=0.25;entryDx=0;entryDy=0;endArrow=none;endFill=0;fillColor=#d5e8d4;strokeColor=#82b366;" parent="2YSF07XlGSHCV8I9kfZ7-1" source="2YSF07XlGSHCV8I9kfZ7-32" target="2YSF07XlGSHCV8I9kfZ7-23" edge="1">
          <mxGeometry relative="1" as="geometry" />
        </mxCell>
        <mxCell id="2YSF07XlGSHCV8I9kfZ7-31" style="edgeStyle=none;rounded=0;orthogonalLoop=1;jettySize=auto;html=1;exitX=0.5;exitY=1;exitDx=0;exitDy=0;entryX=0.5;entryY=0;entryDx=0;entryDy=0;endArrow=none;endFill=0;fillColor=#d5e8d4;strokeColor=#82b366;" parent="2YSF07XlGSHCV8I9kfZ7-1" source="2YSF07XlGSHCV8I9kfZ7-32" target="2YSF07XlGSHCV8I9kfZ7-29" edge="1">
          <mxGeometry relative="1" as="geometry" />
        </mxCell>
        <mxCell id="2YSF07XlGSHCV8I9kfZ7-32" value="Weiler" style="rounded=1;whiteSpace=wrap;html=1;fillColor=#dae8fc;strokeColor=#6c8ebf;" parent="2YSF07XlGSHCV8I9kfZ7-1" vertex="1">
          <mxGeometry x="562" y="215" width="71" height="28" as="geometry" />
        </mxCell>
        <mxCell id="2YSF07XlGSHCV8I9kfZ7-33" style="edgeStyle=none;rounded=0;orthogonalLoop=1;jettySize=auto;html=1;exitX=0.75;exitY=1;exitDx=0;exitDy=0;entryX=0.423;entryY=-0.071;entryDx=0;entryDy=0;entryPerimeter=0;endArrow=none;endFill=0;fillColor=#d5e8d4;strokeColor=#82b366;" parent="2YSF07XlGSHCV8I9kfZ7-1" source="2YSF07XlGSHCV8I9kfZ7-34" target="2YSF07XlGSHCV8I9kfZ7-35" edge="1">
          <mxGeometry relative="1" as="geometry" />
        </mxCell>
        <mxCell id="2YSF07XlGSHCV8I9kfZ7-34" value="Neustadt" style="rounded=1;whiteSpace=wrap;html=1;fillColor=#dae8fc;strokeColor=#6c8ebf;" parent="2YSF07XlGSHCV8I9kfZ7-1" vertex="1">
          <mxGeometry x="567" y="378" width="71" height="28" as="geometry" />
        </mxCell>
        <mxCell id="2YSF07XlGSHCV8I9kfZ7-35" value="Rain" style="rounded=1;whiteSpace=wrap;html=1;fillColor=#dae8fc;strokeColor=#6c8ebf;" parent="2YSF07XlGSHCV8I9kfZ7-1" vertex="1">
          <mxGeometry x="633" y="440" width="71" height="28" as="geometry" />
        </mxCell>
        <mxCell id="2YSF07XlGSHCV8I9kfZ7-53" style="orthogonalLoop=1;jettySize=auto;html=1;exitX=0.75;exitY=1;exitDx=0;exitDy=0;entryX=0.75;entryY=0;entryDx=0;entryDy=0;endArrow=classic;endFill=1;curved=1;" parent="2YSF07XlGSHCV8I9kfZ7-1" source="2YSF07XlGSHCV8I9kfZ7-38" target="2YSF07XlGSHCV8I9kfZ7-40" edge="1">
          <mxGeometry relative="1" as="geometry">
            <Array as="points">
              <mxPoint x="330" y="552" />
            </Array>
          </mxGeometry>
        </mxCell>
        <mxCell id="2YSF07XlGSHCV8I9kfZ7-55" style="edgeStyle=none;curved=1;orthogonalLoop=1;jettySize=auto;html=1;exitX=0;exitY=0.5;exitDx=0;exitDy=0;endArrow=classic;endFill=1;entryX=1;entryY=0;entryDx=0;entryDy=0;" parent="2YSF07XlGSHCV8I9kfZ7-1" source="2YSF07XlGSHCV8I9kfZ7-38" target="2YSF07XlGSHCV8I9kfZ7-49" edge="1">
          <mxGeometry relative="1" as="geometry">
            <mxPoint x="169" y="546" as="targetPoint" />
          </mxGeometry>
        </mxCell>
        <mxCell id="2YSF07XlGSHCV8I9kfZ7-38" value="Altdorf" style="rounded=1;whiteSpace=wrap;html=1;" parent="2YSF07XlGSHCV8I9kfZ7-1" vertex="1">
          <mxGeometry x="226" y="492" width="71" height="28" as="geometry" />
        </mxCell>
        <mxCell id="2YSF07XlGSHCV8I9kfZ7-54" style="edgeStyle=none;curved=1;orthogonalLoop=1;jettySize=auto;html=1;exitX=0.5;exitY=0;exitDx=0;exitDy=0;entryX=0.5;entryY=1;entryDx=0;entryDy=0;endArrow=classic;endFill=1;" parent="2YSF07XlGSHCV8I9kfZ7-1" source="2YSF07XlGSHCV8I9kfZ7-40" target="2YSF07XlGSHCV8I9kfZ7-38" edge="1">
          <mxGeometry relative="1" as="geometry">
            <Array as="points">
              <mxPoint x="278" y="571" />
            </Array>
          </mxGeometry>
        </mxCell>
        <mxCell id="2YSF07XlGSHCV8I9kfZ7-56" style="edgeStyle=none;curved=1;orthogonalLoop=1;jettySize=auto;html=1;exitX=0;exitY=0;exitDx=0;exitDy=0;entryX=1;entryY=0.75;entryDx=0;entryDy=0;endArrow=classic;endFill=1;" parent="2YSF07XlGSHCV8I9kfZ7-1" source="2YSF07XlGSHCV8I9kfZ7-40" target="2YSF07XlGSHCV8I9kfZ7-49" edge="1">
          <mxGeometry relative="1" as="geometry">
            <Array as="points">
              <mxPoint x="240" y="566" />
            </Array>
          </mxGeometry>
        </mxCell>
        <mxCell id="2YSF07XlGSHCV8I9kfZ7-40" value="Fischbach" style="rounded=1;whiteSpace=wrap;html=1;" parent="2YSF07XlGSHCV8I9kfZ7-1" vertex="1">
          <mxGeometry x="301" y="602" width="71" height="28" as="geometry" />
        </mxCell>
        <mxCell id="2YSF07XlGSHCV8I9kfZ7-63" style="edgeStyle=none;curved=1;orthogonalLoop=1;jettySize=auto;html=1;exitX=0;exitY=0;exitDx=0;exitDy=0;entryX=1;entryY=1;entryDx=0;entryDy=0;endArrow=classic;endFill=1;" parent="2YSF07XlGSHCV8I9kfZ7-1" source="2YSF07XlGSHCV8I9kfZ7-42" target="2YSF07XlGSHCV8I9kfZ7-46" edge="1">
          <mxGeometry relative="1" as="geometry">
            <Array as="points">
              <mxPoint x="218" y="674" />
            </Array>
          </mxGeometry>
        </mxCell>
        <mxCell id="2YSF07XlGSHCV8I9kfZ7-65" style="edgeStyle=none;curved=1;orthogonalLoop=1;jettySize=auto;html=1;exitX=0.5;exitY=0;exitDx=0;exitDy=0;entryX=0.5;entryY=1;entryDx=0;entryDy=0;endArrow=classic;endFill=1;" parent="2YSF07XlGSHCV8I9kfZ7-1" source="2YSF07XlGSHCV8I9kfZ7-42" target="2YSF07XlGSHCV8I9kfZ7-40" edge="1">
          <mxGeometry relative="1" as="geometry" />
        </mxCell>
        <mxCell id="2YSF07XlGSHCV8I9kfZ7-42" value="Burg" style="rounded=1;whiteSpace=wrap;html=1;" parent="2YSF07XlGSHCV8I9kfZ7-1" vertex="1">
          <mxGeometry x="260" y="687" width="71" height="28" as="geometry" />
        </mxCell>
        <mxCell id="2YSF07XlGSHCV8I9kfZ7-59" style="edgeStyle=none;curved=1;orthogonalLoop=1;jettySize=auto;html=1;exitX=0.5;exitY=1;exitDx=0;exitDy=0;entryX=0.5;entryY=0;entryDx=0;entryDy=0;endArrow=classic;endFill=1;" parent="2YSF07XlGSHCV8I9kfZ7-1" source="2YSF07XlGSHCV8I9kfZ7-46" target="2YSF07XlGSHCV8I9kfZ7-51" edge="1">
          <mxGeometry relative="1" as="geometry" />
        </mxCell>
        <mxCell id="2YSF07XlGSHCV8I9kfZ7-62" style="edgeStyle=none;curved=1;orthogonalLoop=1;jettySize=auto;html=1;exitX=1;exitY=0.75;exitDx=0;exitDy=0;entryX=0.25;entryY=0;entryDx=0;entryDy=0;endArrow=classic;endFill=1;" parent="2YSF07XlGSHCV8I9kfZ7-1" source="2YSF07XlGSHCV8I9kfZ7-46" target="2YSF07XlGSHCV8I9kfZ7-42" edge="1">
          <mxGeometry relative="1" as="geometry">
            <Array as="points">
              <mxPoint x="253" y="656" />
            </Array>
          </mxGeometry>
        </mxCell>
        <mxCell id="2YSF07XlGSHCV8I9kfZ7-64" style="edgeStyle=none;curved=1;orthogonalLoop=1;jettySize=auto;html=1;exitX=1;exitY=0.5;exitDx=0;exitDy=0;entryX=0;entryY=0.75;entryDx=0;entryDy=0;endArrow=classic;endFill=1;" parent="2YSF07XlGSHCV8I9kfZ7-1" source="2YSF07XlGSHCV8I9kfZ7-46" target="2YSF07XlGSHCV8I9kfZ7-40" edge="1">
          <mxGeometry relative="1" as="geometry" />
        </mxCell>
        <mxCell id="2YSF07XlGSHCV8I9kfZ7-46" value="Ziegelstein" style="rounded=1;whiteSpace=wrap;html=1;" parent="2YSF07XlGSHCV8I9kfZ7-1" vertex="1">
          <mxGeometry x="136" y="614" width="71" height="28" as="geometry" />
        </mxCell>
        <mxCell id="2YSF07XlGSHCV8I9kfZ7-57" style="edgeStyle=none;curved=1;orthogonalLoop=1;jettySize=auto;html=1;exitX=1;exitY=1;exitDx=0;exitDy=0;entryX=0;entryY=0.25;entryDx=0;entryDy=0;endArrow=classic;endFill=1;" parent="2YSF07XlGSHCV8I9kfZ7-1" source="2YSF07XlGSHCV8I9kfZ7-49" target="2YSF07XlGSHCV8I9kfZ7-40" edge="1">
          <mxGeometry relative="1" as="geometry">
            <Array as="points">
              <mxPoint x="246" y="609" />
            </Array>
          </mxGeometry>
        </mxCell>
        <mxCell id="2YSF07XlGSHCV8I9kfZ7-58" style="edgeStyle=none;curved=1;orthogonalLoop=1;jettySize=auto;html=1;exitX=0.5;exitY=1;exitDx=0;exitDy=0;entryX=0.5;entryY=0;entryDx=0;entryDy=0;endArrow=classic;endFill=1;" parent="2YSF07XlGSHCV8I9kfZ7-1" source="2YSF07XlGSHCV8I9kfZ7-49" target="2YSF07XlGSHCV8I9kfZ7-46" edge="1">
          <mxGeometry relative="1" as="geometry" />
        </mxCell>
        <mxCell id="2YSF07XlGSHCV8I9kfZ7-49" value="Weiler" style="rounded=1;whiteSpace=wrap;html=1;" parent="2YSF07XlGSHCV8I9kfZ7-1" vertex="1">
          <mxGeometry x="100" y="538" width="71" height="28" as="geometry" />
        </mxCell>
        <mxCell id="2YSF07XlGSHCV8I9kfZ7-60" style="edgeStyle=none;curved=1;orthogonalLoop=1;jettySize=auto;html=1;exitX=0.5;exitY=1;exitDx=0;exitDy=0;endArrow=classic;endFill=1;entryX=0.25;entryY=0;entryDx=0;entryDy=0;" parent="2YSF07XlGSHCV8I9kfZ7-1" source="2YSF07XlGSHCV8I9kfZ7-51" target="2YSF07XlGSHCV8I9kfZ7-52" edge="1">
          <mxGeometry relative="1" as="geometry">
            <mxPoint x="192" y="759" as="targetPoint" />
          </mxGeometry>
        </mxCell>
        <mxCell id="2YSF07XlGSHCV8I9kfZ7-51" value="Neustadt" style="rounded=1;whiteSpace=wrap;html=1;" parent="2YSF07XlGSHCV8I9kfZ7-1" vertex="1">
          <mxGeometry x="105" y="701" width="71" height="28" as="geometry" />
        </mxCell>
        <mxCell id="2YSF07XlGSHCV8I9kfZ7-61" style="edgeStyle=none;curved=1;orthogonalLoop=1;jettySize=auto;html=1;exitX=0.75;exitY=0;exitDx=0;exitDy=0;entryX=0.25;entryY=1;entryDx=0;entryDy=0;endArrow=classic;endFill=1;" parent="2YSF07XlGSHCV8I9kfZ7-1" source="2YSF07XlGSHCV8I9kfZ7-52" target="2YSF07XlGSHCV8I9kfZ7-42" edge="1">
          <mxGeometry relative="1" as="geometry" />
        </mxCell>
        <mxCell id="2YSF07XlGSHCV8I9kfZ7-52" value="Rain" style="rounded=1;whiteSpace=wrap;html=1;" parent="2YSF07XlGSHCV8I9kfZ7-1" vertex="1">
          <mxGeometry x="171" y="763" width="71" height="28" as="geometry" />
        </mxCell>
        <mxCell id="2YSF07XlGSHCV8I9kfZ7-66" style="orthogonalLoop=1;jettySize=auto;html=1;exitX=0.75;exitY=1;exitDx=0;exitDy=0;entryX=0.75;entryY=0;entryDx=0;entryDy=0;endArrow=classic;endFill=1;curved=1;" parent="2YSF07XlGSHCV8I9kfZ7-1" source="2YSF07XlGSHCV8I9kfZ7-68" target="2YSF07XlGSHCV8I9kfZ7-71" edge="1">
          <mxGeometry relative="1" as="geometry">
            <Array as="points">
              <mxPoint x="744" y="575" />
            </Array>
          </mxGeometry>
        </mxCell>
        <mxCell id="2YSF07XlGSHCV8I9kfZ7-87" value="20" style="edgeLabel;html=1;align=center;verticalAlign=middle;resizable=0;points=[];" parent="2YSF07XlGSHCV8I9kfZ7-66" vertex="1" connectable="0">
          <mxGeometry x="-0.2513" y="-3" relative="1" as="geometry">
            <mxPoint x="6" y="-7" as="offset" />
          </mxGeometry>
        </mxCell>
        <mxCell id="2YSF07XlGSHCV8I9kfZ7-67" style="edgeStyle=none;curved=1;orthogonalLoop=1;jettySize=auto;html=1;exitX=0;exitY=0.5;exitDx=0;exitDy=0;endArrow=classic;endFill=1;entryX=1;entryY=0;entryDx=0;entryDy=0;" parent="2YSF07XlGSHCV8I9kfZ7-1" source="2YSF07XlGSHCV8I9kfZ7-68" target="2YSF07XlGSHCV8I9kfZ7-81" edge="1">
          <mxGeometry relative="1" as="geometry">
            <mxPoint x="583" y="569" as="targetPoint" />
          </mxGeometry>
        </mxCell>
        <mxCell id="2YSF07XlGSHCV8I9kfZ7-86" value="15" style="edgeLabel;html=1;align=center;verticalAlign=middle;resizable=0;points=[];" parent="2YSF07XlGSHCV8I9kfZ7-67" vertex="1" connectable="0">
          <mxGeometry x="-0.0882" y="-2" relative="1" as="geometry">
            <mxPoint x="-7" y="-5" as="offset" />
          </mxGeometry>
        </mxCell>
        <mxCell id="2YSF07XlGSHCV8I9kfZ7-68" value="Altdorf" style="rounded=1;whiteSpace=wrap;html=1;" parent="2YSF07XlGSHCV8I9kfZ7-1" vertex="1">
          <mxGeometry x="640" y="515" width="71" height="28" as="geometry" />
        </mxCell>
        <mxCell id="2YSF07XlGSHCV8I9kfZ7-69" style="edgeStyle=none;curved=1;orthogonalLoop=1;jettySize=auto;html=1;exitX=0.5;exitY=0;exitDx=0;exitDy=0;entryX=0.5;entryY=1;entryDx=0;entryDy=0;endArrow=classic;endFill=1;" parent="2YSF07XlGSHCV8I9kfZ7-1" source="2YSF07XlGSHCV8I9kfZ7-71" target="2YSF07XlGSHCV8I9kfZ7-68" edge="1">
          <mxGeometry relative="1" as="geometry">
            <Array as="points">
              <mxPoint x="692" y="594" />
            </Array>
          </mxGeometry>
        </mxCell>
        <mxCell id="2YSF07XlGSHCV8I9kfZ7-88" value="10" style="edgeLabel;html=1;align=center;verticalAlign=middle;resizable=0;points=[];" parent="2YSF07XlGSHCV8I9kfZ7-69" vertex="1" connectable="0">
          <mxGeometry x="0.3332" y="-7" relative="1" as="geometry">
            <mxPoint x="7" y="-4" as="offset" />
          </mxGeometry>
        </mxCell>
        <mxCell id="2YSF07XlGSHCV8I9kfZ7-70" value="10" style="edgeStyle=none;curved=1;orthogonalLoop=1;jettySize=auto;html=1;exitX=0;exitY=0;exitDx=0;exitDy=0;entryX=1;entryY=0.75;entryDx=0;entryDy=0;endArrow=classic;endFill=1;" parent="2YSF07XlGSHCV8I9kfZ7-1" edge="1">
          <mxGeometry x="0.0105" relative="1" as="geometry">
            <Array as="points">
              <mxPoint x="654" y="589" />
            </Array>
            <mxPoint x="715" y="625" as="sourcePoint" />
            <mxPoint x="585" y="582" as="targetPoint" />
            <mxPoint as="offset" />
          </mxGeometry>
        </mxCell>
        <mxCell id="2YSF07XlGSHCV8I9kfZ7-71" value="Fischbach" style="rounded=1;whiteSpace=wrap;html=1;" parent="2YSF07XlGSHCV8I9kfZ7-1" vertex="1">
          <mxGeometry x="715" y="625" width="71" height="28" as="geometry" />
        </mxCell>
        <mxCell id="2YSF07XlGSHCV8I9kfZ7-72" style="edgeStyle=none;curved=1;orthogonalLoop=1;jettySize=auto;html=1;exitX=0;exitY=0;exitDx=0;exitDy=0;entryX=1;entryY=1;entryDx=0;entryDy=0;endArrow=classic;endFill=1;" parent="2YSF07XlGSHCV8I9kfZ7-1" source="2YSF07XlGSHCV8I9kfZ7-74" target="2YSF07XlGSHCV8I9kfZ7-78" edge="1">
          <mxGeometry relative="1" as="geometry">
            <Array as="points">
              <mxPoint x="632" y="697" />
            </Array>
          </mxGeometry>
        </mxCell>
        <mxCell id="2YSF07XlGSHCV8I9kfZ7-93" value="5" style="edgeLabel;html=1;align=center;verticalAlign=middle;resizable=0;points=[];" parent="2YSF07XlGSHCV8I9kfZ7-72" vertex="1" connectable="0">
          <mxGeometry x="-0.0926" y="-6" relative="1" as="geometry">
            <mxPoint x="-6" y="9" as="offset" />
          </mxGeometry>
        </mxCell>
        <mxCell id="2YSF07XlGSHCV8I9kfZ7-73" style="edgeStyle=none;curved=1;orthogonalLoop=1;jettySize=auto;html=1;exitX=0.5;exitY=0;exitDx=0;exitDy=0;entryX=0.5;entryY=1;entryDx=0;entryDy=0;endArrow=classic;endFill=1;" parent="2YSF07XlGSHCV8I9kfZ7-1" source="2YSF07XlGSHCV8I9kfZ7-74" target="2YSF07XlGSHCV8I9kfZ7-71" edge="1">
          <mxGeometry relative="1" as="geometry" />
        </mxCell>
        <mxCell id="2YSF07XlGSHCV8I9kfZ7-94" value="15" style="edgeLabel;html=1;align=center;verticalAlign=middle;resizable=0;points=[];" parent="2YSF07XlGSHCV8I9kfZ7-73" vertex="1" connectable="0">
          <mxGeometry x="0.0152" y="-3" relative="1" as="geometry">
            <mxPoint x="6" y="5" as="offset" />
          </mxGeometry>
        </mxCell>
        <mxCell id="2YSF07XlGSHCV8I9kfZ7-74" value="Burg" style="rounded=1;whiteSpace=wrap;html=1;" parent="2YSF07XlGSHCV8I9kfZ7-1" vertex="1">
          <mxGeometry x="674" y="710" width="71" height="28" as="geometry" />
        </mxCell>
        <mxCell id="2YSF07XlGSHCV8I9kfZ7-75" style="edgeStyle=none;curved=1;orthogonalLoop=1;jettySize=auto;html=1;exitX=0.5;exitY=1;exitDx=0;exitDy=0;entryX=0.5;entryY=0;entryDx=0;entryDy=0;endArrow=classic;endFill=1;" parent="2YSF07XlGSHCV8I9kfZ7-1" source="2YSF07XlGSHCV8I9kfZ7-78" target="2YSF07XlGSHCV8I9kfZ7-83" edge="1">
          <mxGeometry relative="1" as="geometry" />
        </mxCell>
        <mxCell id="2YSF07XlGSHCV8I9kfZ7-96" value="15" style="edgeLabel;html=1;align=center;verticalAlign=middle;resizable=0;points=[];" parent="2YSF07XlGSHCV8I9kfZ7-75" vertex="1" connectable="0">
          <mxGeometry x="0.0133" relative="1" as="geometry">
            <mxPoint x="-8" y="-5" as="offset" />
          </mxGeometry>
        </mxCell>
        <mxCell id="2YSF07XlGSHCV8I9kfZ7-76" style="edgeStyle=none;curved=1;orthogonalLoop=1;jettySize=auto;html=1;exitX=1;exitY=0.75;exitDx=0;exitDy=0;entryX=0.25;entryY=0;entryDx=0;entryDy=0;endArrow=classic;endFill=1;" parent="2YSF07XlGSHCV8I9kfZ7-1" source="2YSF07XlGSHCV8I9kfZ7-78" target="2YSF07XlGSHCV8I9kfZ7-74" edge="1">
          <mxGeometry relative="1" as="geometry">
            <Array as="points">
              <mxPoint x="667" y="679" />
            </Array>
          </mxGeometry>
        </mxCell>
        <mxCell id="2YSF07XlGSHCV8I9kfZ7-92" value="20" style="edgeLabel;html=1;align=center;verticalAlign=middle;resizable=0;points=[];" parent="2YSF07XlGSHCV8I9kfZ7-76" vertex="1" connectable="0">
          <mxGeometry x="-0.1269" relative="1" as="geometry">
            <mxPoint x="5" y="-4" as="offset" />
          </mxGeometry>
        </mxCell>
        <mxCell id="2YSF07XlGSHCV8I9kfZ7-77" style="edgeStyle=none;curved=1;orthogonalLoop=1;jettySize=auto;html=1;exitX=1;exitY=0.5;exitDx=0;exitDy=0;entryX=0;entryY=0.75;entryDx=0;entryDy=0;endArrow=classic;endFill=1;" parent="2YSF07XlGSHCV8I9kfZ7-1" source="2YSF07XlGSHCV8I9kfZ7-78" target="2YSF07XlGSHCV8I9kfZ7-71" edge="1">
          <mxGeometry relative="1" as="geometry" />
        </mxCell>
        <mxCell id="2YSF07XlGSHCV8I9kfZ7-91" value="15" style="edgeLabel;html=1;align=center;verticalAlign=middle;resizable=0;points=[];" parent="2YSF07XlGSHCV8I9kfZ7-77" vertex="1" connectable="0">
          <mxGeometry x="-0.2105" y="2" relative="1" as="geometry">
            <mxPoint y="-7" as="offset" />
          </mxGeometry>
        </mxCell>
        <mxCell id="2YSF07XlGSHCV8I9kfZ7-78" value="Ziegelstein" style="rounded=1;whiteSpace=wrap;html=1;" parent="2YSF07XlGSHCV8I9kfZ7-1" vertex="1">
          <mxGeometry x="550" y="637" width="71" height="28" as="geometry" />
        </mxCell>
        <mxCell id="2YSF07XlGSHCV8I9kfZ7-79" style="edgeStyle=none;curved=1;orthogonalLoop=1;jettySize=auto;html=1;exitX=1;exitY=1;exitDx=0;exitDy=0;entryX=0;entryY=0.25;entryDx=0;entryDy=0;endArrow=classic;endFill=1;" parent="2YSF07XlGSHCV8I9kfZ7-1" source="2YSF07XlGSHCV8I9kfZ7-81" target="2YSF07XlGSHCV8I9kfZ7-71" edge="1">
          <mxGeometry relative="1" as="geometry">
            <Array as="points">
              <mxPoint x="660" y="632" />
            </Array>
          </mxGeometry>
        </mxCell>
        <mxCell id="2YSF07XlGSHCV8I9kfZ7-89" value="25" style="edgeLabel;html=1;align=center;verticalAlign=middle;resizable=0;points=[];" parent="2YSF07XlGSHCV8I9kfZ7-79" vertex="1" connectable="0">
          <mxGeometry x="-0.1162" y="4" relative="1" as="geometry">
            <mxPoint x="-7" y="7" as="offset" />
          </mxGeometry>
        </mxCell>
        <mxCell id="2YSF07XlGSHCV8I9kfZ7-80" style="edgeStyle=none;curved=1;orthogonalLoop=1;jettySize=auto;html=1;exitX=0.5;exitY=1;exitDx=0;exitDy=0;entryX=0.5;entryY=0;entryDx=0;entryDy=0;endArrow=classic;endFill=1;" parent="2YSF07XlGSHCV8I9kfZ7-1" source="2YSF07XlGSHCV8I9kfZ7-81" target="2YSF07XlGSHCV8I9kfZ7-78" edge="1">
          <mxGeometry relative="1" as="geometry" />
        </mxCell>
        <mxCell id="2YSF07XlGSHCV8I9kfZ7-90" value="5" style="edgeLabel;html=1;align=center;verticalAlign=middle;resizable=0;points=[];" parent="2YSF07XlGSHCV8I9kfZ7-80" vertex="1" connectable="0">
          <mxGeometry x="-0.2167" y="-2" relative="1" as="geometry">
            <mxPoint x="-5" y="2" as="offset" />
          </mxGeometry>
        </mxCell>
        <mxCell id="2YSF07XlGSHCV8I9kfZ7-81" value="Weiler" style="rounded=1;whiteSpace=wrap;html=1;" parent="2YSF07XlGSHCV8I9kfZ7-1" vertex="1">
          <mxGeometry x="514" y="561" width="71" height="28" as="geometry" />
        </mxCell>
        <mxCell id="2YSF07XlGSHCV8I9kfZ7-82" style="edgeStyle=none;curved=1;orthogonalLoop=1;jettySize=auto;html=1;exitX=0.5;exitY=1;exitDx=0;exitDy=0;endArrow=classic;endFill=1;entryX=0.25;entryY=0;entryDx=0;entryDy=0;" parent="2YSF07XlGSHCV8I9kfZ7-1" source="2YSF07XlGSHCV8I9kfZ7-83" target="2YSF07XlGSHCV8I9kfZ7-85" edge="1">
          <mxGeometry relative="1" as="geometry">
            <mxPoint x="606" y="782" as="targetPoint" />
          </mxGeometry>
        </mxCell>
        <mxCell id="2YSF07XlGSHCV8I9kfZ7-97" value="20" style="edgeLabel;html=1;align=center;verticalAlign=middle;resizable=0;points=[];" parent="2YSF07XlGSHCV8I9kfZ7-82" vertex="1" connectable="0">
          <mxGeometry x="-0.2811" relative="1" as="geometry">
            <mxPoint x="-7" y="7" as="offset" />
          </mxGeometry>
        </mxCell>
        <mxCell id="2YSF07XlGSHCV8I9kfZ7-83" value="Neustadt" style="rounded=1;whiteSpace=wrap;html=1;" parent="2YSF07XlGSHCV8I9kfZ7-1" vertex="1">
          <mxGeometry x="519" y="724" width="71" height="28" as="geometry" />
        </mxCell>
        <mxCell id="2YSF07XlGSHCV8I9kfZ7-84" style="edgeStyle=none;curved=1;orthogonalLoop=1;jettySize=auto;html=1;exitX=0.75;exitY=0;exitDx=0;exitDy=0;entryX=0.25;entryY=1;entryDx=0;entryDy=0;endArrow=classic;endFill=1;" parent="2YSF07XlGSHCV8I9kfZ7-1" source="2YSF07XlGSHCV8I9kfZ7-85" target="2YSF07XlGSHCV8I9kfZ7-74" edge="1">
          <mxGeometry relative="1" as="geometry" />
        </mxCell>
        <mxCell id="2YSF07XlGSHCV8I9kfZ7-95" value="25" style="edgeLabel;html=1;align=center;verticalAlign=middle;resizable=0;points=[];" parent="2YSF07XlGSHCV8I9kfZ7-84" vertex="1" connectable="0">
          <mxGeometry x="0.06" y="-1" relative="1" as="geometry">
            <mxPoint x="5" y="7" as="offset" />
          </mxGeometry>
        </mxCell>
        <mxCell id="2YSF07XlGSHCV8I9kfZ7-85" value="Rain" style="rounded=1;whiteSpace=wrap;html=1;" parent="2YSF07XlGSHCV8I9kfZ7-1" vertex="1">
          <mxGeometry x="585" y="786" width="71" height="28" as="geometry" />
        </mxCell>
      </root>
    </mxGraphModel>
  </diagram>
</mxfile>
